<svg xmlns="http://www.w3.org/2000/svg" xmlns:xlink="http://www.w3.org/1999/xlink" enable-background="new 0 0 4680 3120" viewBox="0 0 4680 3120"><path fill="#fcb713" d="M3525.852 2126.373c-18.677-37.877 36.057-125.685 53.169-153.772 79.84-131.046 217.127-206.819 326.785-309.062 42.586-39.707 78.197-94.725 94.37-150.831 19.264-66.83-14.967-137.28-81.885-158.696-107.973-34.551-201.51 25.525-261.387 113.58-99.401 146.181-136.582 339.662-145.291 513.243-2.228 44.419-6.346 103.79 14.239 145.538z" opacity=".51"/><path fill="#f6f7f7" d="M3947.618 1405.931c-14.077 10.098-27.773 20.714-41.334 31.487a1516.08 1516.08 0 0 0-40.048 33.101c-26.362 22.466-52.022 45.755-76.865 69.882-49.659 48.252-96.442 99.596-138.096 154.92-20.834 27.64-40.459 56.212-58.252 85.902-8.96 14.806-17.359 29.947-25.302 45.319l-2.967 5.771-1.483 2.886-1.417 2.918-5.672 11.672c-3.608 7.862-7.309 15.686-10.638 23.672-1.706 3.975-3.442 7.939-5.001 11.974-1.59 4.023-3.233 8.026-4.78 12.066l-4.481 12.18c-.77 2.022-1.452 4.075-2.138 6.126l-2.069 6.151c-5.408 16.432-10.293 33.059-14.064 49.953-1.072 4.194-1.858 8.451-2.748 12.685l-1.307 6.358c-.451 2.117-.751 4.261-1.135 6.391-.702 4.27-1.509 8.525-2.126 12.808l-1.731 12.869a479.63 479.63 0 0 0-3.253 51.827 479.436 479.436 0 0 1 2.767-51.883l1.612-12.9c.578-4.295 1.345-8.562 2.009-12.845.364-2.136.644-4.288 1.076-6.412l1.249-6.381c.851-4.25 1.599-8.523 2.633-12.734l2.955-12.665 3.339-12.57.841-3.141.93-3.116 1.86-6.231 1.86-6.232 2.035-6.177 2.041-6.175c.676-2.06 1.349-4.121 2.11-6.151l4.427-12.231c1.529-4.057 3.154-8.077 4.726-12.118 1.542-4.054 3.261-8.035 4.949-12.028 3.295-8.024 6.962-15.884 10.538-23.785l5.658-11.713 1.416-2.928 1.481-2.895 2.963-5.79c7.934-15.42 16.326-30.609 25.278-45.462 17.781-29.783 37.388-58.449 58.219-86.17a1247.15 1247.15 0 0 1 32.289-40.774c11.068-13.345 22.425-26.447 34.004-39.348a1334.218 1334.218 0 0 1 35.484-38.013 1416.228 1416.228 0 0 1 36.85-36.684 1585.782 1585.782 0 0 1 77.301-69.522 1516.606 1516.606 0 0 1 40.375-32.74c13.663-10.649 27.461-21.138 41.632-31.104z"/><path fill="#fcb713" d="M1192.318 2169.967c-32.144-86.391-107.499-147.339-185.67-191.968-107.882-61.582-239.516-104.245-323.14-202.606-51.956-61.075-79.347-150.903-61.478-227.475 5.745-24.741 16.247-48.127 32.148-68.683a98.85 98.85 0 0 1 3.018-3.747c47.596-58.008 129.091-78.241 201.549-64.964 46.264 8.463 89.313 28.638 129.26 54.691 23.908 15.597 46.686 33.285 68.342 51.854 64.445 55.244 122.488 120.384 160.142 197.851 72.719 149.715 33.129 307.098-24.171 455.047z" opacity=".35"/><path fill="#fcb713" d="M1205.691 1788.289c16.819-34.11-32.471-113.184-47.881-138.478-71.899-118.011-195.531-186.248-294.283-278.322-38.35-35.757-70.42-85.303-84.984-135.829-17.348-60.183 13.478-123.626 73.74-142.912 97.234-31.114 181.467 22.986 235.389 102.283 89.515 131.641 122.997 305.879 130.84 462.195 2.008 40.001 5.716 93.468-12.821 131.063z" opacity=".53"/><path fill="#f6f7f7" d="M815.835 1112.309c51.696 41.272 100.67 85.905 147.623 132.509 23.478 23.309 46.285 47.296 68.438 71.872a1572.522 1572.522 0 0 1 32.685 37.35c10.694 12.623 21.249 25.369 31.512 38.349 20.541 25.946 40.167 52.624 58.63 80.095 9.19 13.762 18.129 27.693 26.692 41.857a920.234 920.234 0 0 1 24.447 43.209 802.248 802.248 0 0 1 21.712 44.643l4.961 11.378 4.706 11.486c1.607 3.813 3.009 7.708 4.492 11.571l2.2 5.803c.717 1.94 1.376 3.902 2.061 5.854l2.035 5.863c.684 1.952 1.364 3.906 1.967 5.885l3.744 11.833 3.404 11.934.843 2.985.758 3.008 1.517 6.016c3.958 16.061 7.113 32.32 9.28 48.716-2.329-16.374-5.642-32.591-9.754-48.596l-1.574-5.994-.787-2.997-.871-2.974-3.517-11.884-3.855-11.778c-.621-1.97-1.319-3.914-2.021-5.856l-2.089-5.833c-5.64-15.526-11.798-30.87-18.65-45.903a800.725 800.725 0 0 0-21.919-44.439c-31.196-58.286-68.912-112.888-109.975-164.642-41.031-51.828-85.531-100.862-132.152-147.729-23.305-23.446-47.196-46.313-71.605-68.613a1926.826 1926.826 0 0 0-36.978-33.05c-12.489-10.837-25.077-21.563-37.96-31.928z"/><path fill="#fcb713" d="M709.4 1453.091c51.696 41.272 100.67 85.905 147.623 132.509 23.478 23.309 46.285 47.296 68.438 71.872a1576.734 1576.734 0 0 1 32.685 37.349c10.694 12.623 21.25 25.369 31.512 38.349 20.541 25.946 40.167 52.624 58.629 80.095 9.19 13.762 18.129 27.693 26.692 41.857a920.234 920.234 0 0 1 24.447 43.209 802.248 802.248 0 0 1 21.712 44.643l4.961 11.378 4.706 11.486c1.607 3.813 3.009 7.708 4.491 11.57l2.2 5.803c.717 1.94 1.376 3.902 2.061 5.854l2.035 5.863c.684 1.952 1.364 3.906 1.967 5.885l3.744 11.832 3.404 11.934.843 2.985.758 3.008 1.517 6.016c3.958 16.061 7.113 32.321 9.28 48.716-2.329-16.374-5.642-32.591-9.754-48.596l-1.574-5.994-.787-2.997-.871-2.974-3.517-11.884-3.855-11.778c-.621-1.97-1.319-3.914-2.021-5.856l-2.089-5.833c-5.64-15.526-11.798-30.87-18.651-45.903a801.071 801.071 0 0 0-21.919-44.439c-31.196-58.286-68.912-112.888-109.975-164.642-41.031-51.828-85.531-100.862-132.152-147.729-23.305-23.446-47.196-46.313-71.605-68.613a1930.259 1930.259 0 0 0-36.978-33.051c-12.486-10.833-25.074-21.558-37.957-31.924z"/><g opacity=".5"><path fill="#6457a4" d="M3535.649 378.367H1175.446c-13.164 0-23.852 12.59-23.852 28.116V2170.75c0 15.5 10.689 28.116 23.852 28.116h2360.203c13.164 0 23.83-12.616 23.83-28.116V406.483c0-15.526-10.667-28.116-23.83-28.116zm-5.695 1766.532H1174.417V477.159h2355.537v1667.74z"/><path fill="#6457a4" d="M1174.417 477.159h2355.537V2144.9H1174.417z"/></g><path fill="#fff" d="M1174.417 477.159h2355.537V2144.9H1174.417z"/><path fill="#6457a4" d="M3100.602 576.66H1528.37c-5.796 0-10.495-4.699-10.495-10.495v-35.198c0-5.796 4.699-10.495 10.495-10.495h1572.231c5.796 0 10.495 4.699 10.495 10.495v35.198c0 5.796-4.698 10.495-10.494 10.495zM3357.927 576.66h-186.032c-5.796 0-10.495-4.699-10.495-10.495v-35.198c0-5.796 4.699-10.495 10.495-10.495h186.032c5.796 0 10.495 4.699 10.495 10.495v35.198c0 5.796-4.699 10.495-10.495 10.495z" opacity=".1"/><path fill="#6457a4" fill-rule="evenodd" d="M3447.387 524.83c8.606 6.536 10.877 18.318 5.74 27.484l24.075 17.347c3.612 2.602-1.341 9.086-4.805 6.329l-23.231-18.58c-7.47 7.096-19.193 7.942-27.666 1.508-9.414-7.148-11.249-20.574-4.099-29.987 7.147-9.413 20.572-11.249 29.986-4.101zm-3.537 4.656c-6.84-5.196-16.598-3.861-21.795 2.98-5.196 6.842-3.862 16.601 2.98 21.796 6.842 5.196 16.601 3.861 21.797-2.981 5.195-6.841 3.861-16.598-2.982-21.795z" clip-rule="evenodd" opacity=".49"/><path fill="#fff" d="M3513.156 430.068c.989.989.989 2.608 0 3.614a2.597 2.597 0 0 1-1.807.75 2.543 2.543 0 0 1-1.807-.75l-9.428-9.428-9.428 9.428a2.568 2.568 0 0 1-1.807.75 2.543 2.543 0 0 1-1.807-.75 2.541 2.541 0 0 1 0-3.614l9.428-9.428-9.428-9.428a2.541 2.541 0 0 1 0-3.614 2.541 2.541 0 0 1 3.614 0l9.428 9.428 9.428-9.428a2.541 2.541 0 0 1 3.614 0c.989.989.989 2.608 0 3.614l-9.428 9.428 9.428 9.428zM3442.478 431.024h-5.425a1.57 1.57 0 0 1-1.569-1.568v-22.604a1.57 1.57 0 0 1 1.569-1.569h22.605c.866 0 1.568.703 1.568 1.569v4.97a1.57 1.57 0 0 1-1.568 1.569h-15.612v16.066a1.568 1.568 0 0 1-1.568 1.567zm-3.856-3.137h2.287v-16.066a1.57 1.57 0 0 1 1.569-1.569h15.612v-1.833h-19.468v19.468z"/><path fill="#fff" d="M3465.084 435.994h-22.605a1.57 1.57 0 0 1-1.569-1.569v-4.97a1.57 1.57 0 0 1 3.138 0v3.402h19.468V413.39h-3.856a1.57 1.57 0 0 1 0-3.138h5.425a1.57 1.57 0 0 1 1.569 1.569v22.604a1.572 1.572 0 0 1-1.57 1.569zM3410.012 422.729h-24.082a2.091 2.091 0 1 1 0-4.182h24.082a2.09 2.09 0 1 1 0 4.182z"/><path fill="#6457a4" d="M1441.029 552.521c0 17.688-14.349 32.036-32.044 32.036s-32.043-14.348-32.043-32.036c0-17.703 14.348-32.05 32.043-32.05s32.044 14.348 32.044 32.05zM1320.025 552.521c0 17.688-14.349 32.036-32.044 32.036s-32.043-14.348-32.043-32.036c0-17.703 14.348-32.05 32.043-32.05s32.044 14.348 32.044 32.05z" opacity=".1"/><path fill="#6457a4" d="M2867.164 982.606h-981.398V874.357h981.398v108.249zm-976.808-4.59h972.219v-99.07h-972.219v99.07z" opacity=".4"/><path fill="#f6f7f7" d="m2582.479 876.651-40.709 103.66h-653.709v-103.66z"/><path fill="#6457a4" d="m2582.479 876.651-40.709 103.66h-653.709v-103.66z" opacity=".3"/><path fill="#6457a4" d="M1908.226 1405.202h379.621v643.78h-379.621z" opacity=".1"/><path fill="#6457a4" d="M2357.531 1805.962h379.621v235.695h-379.621z" opacity=".05"/><g opacity=".4"><path fill="#6457a4" d="m2314.486 1367.836-386.478 673.821M1890.786 1367.836l397.062 681.146" opacity=".7"/></g><g opacity=".18"><path fill="#6457a4" d="M2357.531 1405.202h548.362v339.323h-548.362z" opacity=".1"/><path fill="#6457a4" d="m2357.531 1744.525 548.363-339.323M2905.894 1744.525l-548.362-355.047" opacity=".4"/></g><g opacity=".4"><path fill="#6457a4" d="m2737.153 1805.962-379.622 235.695M2737.153 2041.657l-379.622-235.695" opacity=".7"/></g><path fill="#1a3075" d="M1770.819 697.429c1.4-15.24-4.84-30.42-14.2-42.52-5.07-6.58-11.33-12.6-19.14-15.45-7.8-2.84-17.37-1.94-23.31 3.87-1.47-19.95-13.17-38.88-30.37-49.12-17.19-10.23-39.42-11.49-57.66-3.26-12.6 5.69-17.59 20.04-32.05 21.65-7.68.85-15.51-1.6-21.94-5.89-13.91-9.29-26.94-24.28-45.02-24.13-8.28.08-16.17 3.68-23.05 8.3-18.34 12.29-31.08 32.28-35.67 53.89-.99 4.67-1.62 9.58-1.87 14.62-1.51 29.41 9.36 63.6 32.32 81.01 15.61 11.83 39.41 15.4 54.27 2.63 1.47-1.25 2.93-3.05 2.4-4.91-.03-.11-.08-.22-.14-.32 16.21-1.31 31.47 10.93 40.84 24.71 3 4.43 5.65 9.05 8.04 13.81 8.09 16.03 13.35 33.57 20.07 50.32 6.78 16.91 19.62 49.97 40.87 44.98h.01c1.83-.43 3.72-1.14 5.67-2.17 1.06-.56 2.11-1.15 3.13-1.77.01.01.03 0 .04-.02 5.84-4.6 9.5-11.42 14.19-17.23 7.75-9.61 18.33-16.48 29-22.69.29-.17.57-.33.86-.49 2.69-2.14 5.5-4.12 8.46-5.86 3.98-2.34 8.18-4.34 12.24-6.54.01 0 .03-.01.04-.02 3.15-1.7 6.22-3.53 9.04-5.73 3.9-3.05 7.14-6.83 9.65-11.06 6.98-11.73 8.41-26.91 3.17-39.52-.27-.64-.55-1.27-.85-1.9-.53-1.1-1.12-2.2-1.77-3.26-4.45-7.36-11.21-13.51-13.61-21.76 14.75-4.08 24.95-18.94 26.34-34.17zm-52.28 62.25c-6.19-3.04-9.17-10.28-10.05-17.13-.87-6.84-.2-13.86-1.59-20.63-.43-2.07-1.17-4.28-2.97-5.42-1.71-1.1-3.93-.92-5.97-.79-11.01.69-22.2-1.61-32.06-6.56-20.57-10.33-34.48-31.4-55.68-40.36-20.47-8.65-45.99-3.6-61.62 12.19-5.11 5.16-9.17 11.26-14.24 16.45.69-1.64 1.37-3.08 1.98-4.18 7.21-13.06 17.04-24.71 28.48-34.27 21.85-18.24 50.27-29.15 78.92-27.36 9.62.6 19.2 2.55 28.02 6.41 6.77 2.97 13.02 7.04 18.79 11.66 31.16 24.99 47.2 67.51 40.32 106.86-.24 1.41-.53 2.82-.93 4.19-3.92.75-7.74.74-11.4-1.06z"/><path d="M1766.969 776.639c-1.02 7.85-4.56 15.09-9.43 21.4-2.72 3.52-5.87 6.75-9.22 9.64-.31.27-.62.54-.94.81-2.72 2.28-5.58 4.37-8.53 6.34-.01.01-.03.02-.04.02-6.66 4.48-13.74 8.36-20.7 12.4-.29.16-.57.32-.86.49-10.67 6.21-21.25 13.08-29 22.69-4.69 5.81-8.35 12.63-14.19 17.23-.01.02-.03.03-.04.02-.16.14-.31.26-.47.38-2.38 1.79-5.33 3.04-8.33 3.56h-.01c-4.71.81-9.53-.21-12.45-3.88-2.13-2.66-2.84-6.18-3.16-9.58-1-10.64.66-20.37 7.33-28.78 2.41-3.04 5.17-5.87 8.4-7.96-7.51-11.79-14.63-24.07-25.36-32.72-10.08-8.13-22.76-12.1-35.7-12.38-2.39-4.76-5.04-9.38-8.04-13.81-9.37-13.78-24.63-26.02-40.84-24.71.06.1.11.21.14.32.53 1.86-.93 3.66-2.4 4.91-14.86 12.77-38.66 9.2-54.27-2.63-22.96-17.41-33.83-51.6-32.32-81.01 10.04 7.27 18.71 24.99 24.25 31.91 5.98 7.46 13.26 15.3 22.8 15.94 2.17.15 4.32-.1 6.39-.67 5.13-1.39 9.84-4.67 13.69-8.45.24-.22 13.83 7.55 14.05 7.31-4.64 11.02-10.78 22.62 3.86 7.71 15.05-15.31 14.2-18.34 35.47-21.57 11.78-1.8 24.37-5.44 31.32-15.12 3.93 16.39 14.6 31.05 28.99 39.82 13.87 8.44 31 11.31 46.85 7.93.61-.13 1.22-.28 1.82-.42-1.53 8.19-3.05 16.55-2 24.82 1.07 8.27 5.19 16.58 12.48 20.62 7.3 4.03 17.89 2.3 21.98-4.96.63-1.11 1.09-2.29 1.45-3.52.3-1.03 15.05-4.56 16.76-4.74 4.41-.46 10.2.02 14.01 2.52.07.04.14.09.2.13 5.49 3.78 6.92 11.38 6.06 17.99z" opacity=".32"/><path d="m1732.249 754.739-3.83 14.23c-3.34 12.57-12.48 22.83-24.56 27.64l-4.42 1.73c-4.04 13.7-11.42 25.8-21.09 35.5l-135.53-39.02c-.45 1.35-2.38 1.68-3.61.95-1.22-.73-1.88-2.11-2.43-3.43-.56-1.35-1.08-2.71-1.54-4.09a84.449 84.449 0 0 1-.53-24.07l3.8-31.7 3.12-25.82a83.977 83.977 0 0 1 9.9-30.75c16.14-29.18 48.87-47.19 84.02-42.96 29.26 3.53 53.22 21.59 65.45 46.12 5.41 10.75 8.5 22.73 8.84 35.28.05.34.05.69.05 1.04v1.33c0 3.36-.2 6.77-.62 10.15l-1.4 11.81-.23 1.76 10.43-1.58c9.04-1.34 16.53 7.01 14.18 15.88z" opacity=".35"/><path fill="#fcb713" d="m1268.272 2423.963-25.143 123.697 66.435 5.217 76.232-161.215zM1836.74 2418.516l66.891 134.523 60.781-52.552-63.901-187.248z"/><path fill="#35479c" d="m1671.03 1429.771-13.712 48.323-.839 2.989-20.654 72.829h-.024l-87.134 307.154v.049l-40.046 141.064-17.812 62.8-80.686 284.45-21.147 74.534h-136.395l6.942-58.723 92.569-784.449v-.025l17.812-150.995z"/><path d="m1657.318 1478.094-.839 2.989-20.654 72.829h-.024l-87.134 307.154v.049l-40.046 141.064-38.663-550.174z" opacity=".2"/><path fill="#35479c" d="m1928.008 2387.919-125.204 54.128-30.436-66.505-158.011-345.322a393.295 393.295 0 0 1-31.153-104.377l-9.832-64.727v-.049l-48.199-316.937-9.289-61.169 56.351-17.046h.025l119.373-36.143 22.407-6.769 82.81-25.075-.914 40.466-2.248 99.708-7.584 335.169a202.434 202.434 0 0 0 8.227 62.009l119.892 405.997 13.785 46.642z"/><path fill="#f28389" d="m1732.249 754.739-.49 1.82-2.08 7.74-1.26 4.67a40.959 40.959 0 0 1-4.69 10.92 41.208 41.208 0 0 1-19.87 16.72l-4.42 1.73c-4.04 13.7-11.42 25.8-21.09 35.5a84.838 84.838 0 0 1-21.92 15.87 83.544 83.544 0 0 1-24.24 7.88c-7.65 1.26-15.63 1.45-23.76.49-1.24-.15-2.5-.32-3.71-.52-1.11-.2-2.22-.42-3.33-.64a83.102 83.102 0 0 1-18.53-6.13c-.03 0-.05-.02-.07-.05-1.96-.89-3.86-1.87-5.71-2.91-22.07-12.41-37.63-34.33-41.84-59.58a84.449 84.449 0 0 1-.53-24.07l3.8-31.7 1.17-9.69.53-4.36 1.42-11.77c.22-1.85.5-3.68.84-5.48a83.72 83.72 0 0 1 9.06-25.27c1.01-1.82 2.08-3.59 3.21-5.32 17.02-26.02 47.85-41.61 80.81-37.64 29.26 3.53 53.22 21.59 65.45 46.12 5.41 10.75 8.5 22.73 8.84 35.28.05.34.05.69.05 1.04v1.33c0 3.36-.2 6.77-.62 10.15l-1.4 11.81-.23 1.76 10.43-1.58c9.04-1.34 16.53 7.01 14.18 15.88z"/><path d="m1583.911 1549.963-8.843-16.739-74.6 10.905-45.481 11.24-102.895 25.421v-.025l17.812-150.995h297.025l22.407-6.769 81.896 15.391-2.248 99.708-134.985 34.141c-19.836 5.018-40.53-4.187-50.088-22.278z" opacity=".2"/><path fill="#f28389" d="M1714.535 969.992s-67.617 46.272-110.109 36.267c-58.55-13.785-94.619-85.948-68.136-94.224a51.39 51.39 0 0 0 4.397-1.606c5.559-2.347 10.475-5.633 14.823-9.561 12.599-11.364 20.48-28.213 25.347-43.357.717-2.298 1.408-4.546 2.001-6.72a82.834 82.834 0 0 0 18.529 6.127c1.112.222 2.224.445 3.335.642a91.78 91.78 0 0 0 3.706.519c8.128.964 16.107.766 23.766-.494a83.253 83.253 0 0 0 24.235-7.881c2.742 12.204 5.954 22.975 9.684 32.19 3.879 9.635 8.325 17.59 13.341 23.642 3.434 4.126 7.09 7.387 11.043 9.734 37.082 22.012 33.574 20.58 24.038 54.722z"/><defs><path id="a" d="M1879.562 1078.618c0 22.975-6.324 45.63-18.479 65.443l-198.947 323.829s-266.292 62.824-299.643 24.729c-25.149-28.756-24.804-198.181-16.997-255.867 2.545-18.825 4.57-30.906 4.57-30.906l-2.396-202.504 158.481-62.454 39.033-15.391a69.943 69.943 0 0 0 13.761 20.999c10.87 11.512 25.693 19.467 42.665 21.567l11.414 1.383c36.242 4.496 69.47-19.344 77.474-54.177l17.862 1.803 20.826 2.1c74.534 7.535 135.085 63.516 148.401 137.259a124.62 124.62 0 0 1 1.975 22.187z"/></defs><use fill="#fcb713" overflow="visible" xlink:href="#a"/><clipPath id="b"><use overflow="visible" xlink:href="#a"/></clipPath><g clip-path="url(#b)"><path fill="#f6f7f7" d="M1427.757 1130.94c-8.932 0-18.132-2.761-26.794-8.277-8.861-5.647-16.949-13.848-24.728-25.071-12.685-18.31-19.252-36.676-19.516-54.59-.315-21.411 10.24-48.247 34.161-56.568 19.103-6.641 40.656 1.097 65.885 23.666a7.26 7.26 0 0 1 .571 10.249 7.26 7.26 0 0 1-10.249.57c-20.943-18.737-37.771-25.541-51.436-20.774-16.359 5.69-24.666 25.759-24.416 42.644.216 14.769 6.073 30.862 16.933 46.535 6.657 9.608 13.394 16.507 20.595 21.097 12.152 7.738 25.011 8.018 35.281.751 11.566-8.183 16.718-23.482 13.127-38.979-2.826-12.193-18.007-27.564-30.081-30.462-5.504-1.324-7.258.764-7.834 1.449a7.252 7.252 0 0 1-10.224.89 7.254 7.254 0 0 1-.89-10.224c5.225-6.219 13.164-8.436 22.334-6.23 17.636 4.232 36.716 23.53 40.834 41.299 4.93 21.267-2.483 42.505-18.884 54.106-7.461 5.28-15.938 7.919-24.669 7.919zM1391.692 1282.183c-4.574 0-9.285-1.414-13.72-4.238-4.538-2.892-8.679-7.091-12.662-12.838-6.496-9.376-9.859-18.781-9.994-27.954-.161-10.964 5.244-24.706 17.493-28.966 9.782-3.401 20.818.562 33.737 12.119a3.717 3.717 0 0 1-4.956 5.54c-10.724-9.594-19.341-13.079-26.339-10.638-8.377 2.914-12.63 13.19-12.503 21.837.111 7.563 3.109 15.803 8.671 23.829 3.409 4.92 6.859 8.453 10.546 10.803 6.223 3.962 12.807 4.106 18.067.385 5.922-4.19 8.561-12.024 6.722-19.96-1.447-6.244-9.221-14.115-15.403-15.598-2.818-.678-3.717.391-4.011.742a3.713 3.713 0 0 1-5.235.456 3.714 3.714 0 0 1-.456-5.235c2.676-3.185 6.741-4.32 11.436-3.19 9.031 2.167 18.801 12.049 20.91 21.148 2.524 10.89-1.271 21.766-9.67 27.706-3.822 2.701-8.163 4.052-12.633 4.052zM1700.039 1308.131c-7.49 0-15.204-2.315-22.467-6.94-7.43-4.735-14.212-11.611-20.734-21.022-10.637-15.353-16.143-30.753-16.365-45.774-.264-17.953 8.586-40.455 28.645-47.432 16.018-5.569 34.09.92 55.245 19.844a6.087 6.087 0 0 1-8.116 9.072c-17.56-15.711-31.671-21.416-43.129-17.419-13.717 4.771-20.682 21.599-20.473 35.757.181 12.384 5.092 25.878 14.198 39.02 5.582 8.056 11.231 13.841 17.269 17.69 10.189 6.488 20.972 6.723 29.583.63 9.698-6.861 14.018-19.69 11.007-32.684-2.37-10.224-15.099-23.113-25.223-25.542-4.615-1.11-6.086.64-6.569 1.215a6.081 6.081 0 0 1-8.573.746 6.083 6.083 0 0 1-.746-8.573c4.382-5.215 11.038-7.074 18.727-5.224 14.788 3.548 30.787 19.73 34.24 34.629 4.133 17.832-2.082 35.641-15.834 45.368-6.257 4.427-13.365 6.639-20.685 6.639zM1487.916 1544.996c-9.418 0-19.118-2.911-28.25-8.727-9.343-5.954-17.87-14.6-26.071-26.434-13.375-19.305-20.298-38.669-20.577-57.557-.333-22.574 10.797-50.869 36.018-59.642 20.142-7.002 42.865 1.156 69.465 24.952a7.654 7.654 0 0 1-10.204 11.408c-22.081-19.755-39.824-26.929-54.232-21.903-17.248 5.999-26.006 27.159-25.743 44.961.228 15.572 6.402 32.539 17.853 49.064 7.019 10.13 14.122 17.405 21.715 22.243 12.812 8.159 26.37 8.454 37.199.792 12.194-8.628 17.627-24.758 13.84-41.098-2.98-12.855-18.985-29.063-31.715-32.117-5.803-1.396-7.652.805-8.26 1.528a7.646 7.646 0 0 1-10.78.938 7.65 7.65 0 0 1-.938-10.78c5.51-6.558 13.879-8.895 23.547-6.569 18.595 4.461 38.712 24.809 43.054 43.543 5.198 22.423-2.617 44.816-19.91 57.047-7.868 5.569-16.806 8.351-26.011 8.351zM1743.4 1425.88c-4.574 0-9.285-1.414-13.72-4.238-4.538-2.892-8.679-7.091-12.662-12.838-6.496-9.376-9.858-18.781-9.994-27.954-.161-10.964 5.244-24.705 17.493-28.966 9.782-3.401 20.818.562 33.737 12.119a3.717 3.717 0 0 1-4.956 5.54c-10.724-9.594-19.341-13.078-26.339-10.638-8.377 2.913-12.63 13.19-12.502 21.836.111 7.563 3.109 15.804 8.671 23.829 3.409 4.92 6.859 8.453 10.546 10.803 6.223 3.962 12.807 4.106 18.066.385 5.922-4.19 8.561-12.024 6.722-19.96-1.447-6.244-9.22-14.115-15.403-15.598-2.818-.678-3.717.391-4.011.742a3.714 3.714 0 0 1-5.236.455 3.714 3.714 0 0 1-.455-5.235c2.676-3.185 6.741-4.32 11.436-3.19 9.031 2.167 18.801 12.049 20.91 21.148 2.524 10.89-1.271 21.766-9.67 27.706-3.822 2.703-8.163 4.054-12.633 4.054zM1869.968 1116.484c-4.574 0-9.285-1.414-13.72-4.238-4.538-2.892-8.679-7.091-12.662-12.838-6.496-9.376-9.858-18.781-9.994-27.954-.161-10.964 5.244-24.705 17.493-28.966 9.782-3.401 20.818.562 33.737 12.119a3.716 3.716 0 1 1-4.956 5.54c-10.724-9.594-19.341-13.079-26.339-10.638-8.377 2.914-12.63 13.19-12.502 21.837.111 7.563 3.109 15.803 8.671 23.829 3.409 4.92 6.859 8.453 10.546 10.803 6.223 3.962 12.807 4.106 18.066.385 5.922-4.19 8.561-12.024 6.722-19.96-1.447-6.244-9.221-14.115-15.403-15.598-2.818-.678-3.717.391-4.011.742a3.713 3.713 0 0 1-5.235.456 3.714 3.714 0 0 1-.455-5.235c2.676-3.185 6.741-4.32 11.436-3.19 9.031 2.167 18.801 12.049 20.91 21.148 2.524 10.89-1.271 21.766-9.67 27.706-3.823 2.701-8.164 4.052-12.634 4.052zM1695.797 1021.725c-4.574 0-9.285-1.414-13.72-4.238-4.538-2.892-8.679-7.091-12.662-12.838-6.496-9.376-9.859-18.78-9.994-27.954-.161-10.964 5.244-24.706 17.493-28.966 9.782-3.401 20.818.562 33.737 12.119a3.717 3.717 0 0 1-4.956 5.54c-10.724-9.594-19.341-13.079-26.339-10.638-8.377 2.914-12.63 13.19-12.503 21.836.111 7.563 3.109 15.803 8.671 23.829 3.409 4.92 6.859 8.453 10.546 10.803 6.223 3.962 12.807 4.106 18.066.385 5.922-4.19 8.561-12.024 6.722-19.96-1.447-6.244-9.221-14.115-15.403-15.598-2.818-.678-3.717.391-4.011.742a3.713 3.713 0 0 1-5.235.456 3.714 3.714 0 0 1-.456-5.235c2.676-3.185 6.741-4.32 11.436-3.19 9.031 2.167 18.801 12.049 20.91 21.148 2.524 10.89-1.271 21.766-9.67 27.706-3.82 2.702-8.161 4.053-12.632 4.053z"/></g><path fill="#f37c20" d="m1348.633 1084.918 196.551-159.419-96.534 159.971c-13.677 22.665-5.895 52.152 17.185 65.116l144.346 81.078 30.313 136.172-298.631-85.182 6.77-197.736z" opacity=".3"/><defs><path id="c" d="m1581.129 1250.514-.815 12.797-2.792 43.233a18.606 18.606 0 0 1-6.275 12.871c-4.595 4.101-11.093 5.904-17.59 4.101l-225.381-62.849-52.226-14.6c-39.28-10.969-58.847-55.017-40.614-91.531l66.258-132.467c30.609-61.243 91.235-101.833 159.518-106.823l39.355-2.866 40.121-2.693c.988 5.88 2.55 11.3 4.872 16.686 3.508 8.35 5.528 16.27 11.754 22.817l-159.123 178.096c-8.35 9.338-5.682 24.038 5.41 29.868l177.528 93.36z"/></defs><use fill="#fcb713" overflow="visible" xlink:href="#c"/><clipPath id="d"><use overflow="visible" xlink:href="#c"/></clipPath><g clip-path="url(#d)"><path fill="#f6f7f7" d="M1346.57 972.366c-8.932 0-18.132-2.761-26.794-8.277-8.861-5.647-16.949-13.848-24.728-25.071-12.685-18.31-19.252-36.676-19.516-54.59-.315-21.41 10.24-48.247 34.161-56.568 19.103-6.641 40.656 1.097 65.885 23.666a7.26 7.26 0 0 1 .571 10.249 7.262 7.262 0 0 1-10.249.571c-20.943-18.737-37.771-25.541-51.436-20.774-16.359 5.69-24.666 25.759-24.416 42.644.216 14.769 6.073 30.862 16.933 46.535 6.657 9.607 13.394 16.508 20.595 21.097 12.152 7.738 25.011 8.018 35.281.751 11.565-8.183 16.718-23.482 13.127-38.979-2.826-12.193-18.007-27.564-30.081-30.462-5.504-1.324-7.258.764-7.834 1.45a7.251 7.251 0 0 1-10.224.889 7.254 7.254 0 0 1-.89-10.224c5.225-6.22 13.164-8.436 22.334-6.23 17.636 4.231 36.717 23.53 40.835 41.299 4.929 21.267-2.483 42.505-18.884 54.107-7.463 5.279-15.939 7.917-24.67 7.917zM1310.504 1123.609c-4.574 0-9.285-1.414-13.72-4.238-4.538-2.892-8.679-7.091-12.662-12.838-6.496-9.376-9.859-18.781-9.994-27.954-.161-10.964 5.244-24.705 17.493-28.967 9.782-3.401 20.818.562 33.737 12.119a3.717 3.717 0 0 1-4.956 5.54c-10.724-9.594-19.341-13.079-26.339-10.638-8.377 2.914-12.63 13.19-12.503 21.837.111 7.563 3.109 15.803 8.671 23.829 3.409 4.92 6.859 8.453 10.546 10.803 6.223 3.962 12.807 4.106 18.066.385 5.922-4.19 8.561-12.024 6.722-19.96-1.447-6.243-9.221-14.115-15.403-15.598-2.818-.678-3.717.391-4.011.742a3.713 3.713 0 0 1-5.235.456 3.714 3.714 0 0 1-.456-5.235c2.676-3.185 6.741-4.32 11.436-3.19 9.031 2.167 18.801 12.049 20.91 21.148 2.524 10.89-1.271 21.766-9.67 27.706-3.82 2.702-8.161 4.053-12.632 4.053zM1618.851 1149.557c-7.49 0-15.204-2.315-22.467-6.94-7.43-4.735-14.212-11.611-20.734-21.022-10.637-15.353-16.143-30.753-16.364-45.774-.265-17.953 8.586-40.455 28.644-47.432 16.018-5.569 34.09.92 55.245 19.844a6.087 6.087 0 0 1-8.116 9.072c-17.56-15.711-31.671-21.416-43.129-17.419-13.717 4.771-20.682 21.599-20.473 35.757.181 12.384 5.092 25.878 14.198 39.02 5.582 8.056 11.231 13.842 17.269 17.69 10.19 6.488 20.972 6.723 29.583.63 9.698-6.861 14.018-19.69 11.007-32.684-2.37-10.224-15.099-23.113-25.223-25.542-4.615-1.11-6.086.64-6.569 1.215a6.081 6.081 0 0 1-8.573.746 6.083 6.083 0 0 1-.746-8.573c4.382-5.215 11.038-7.074 18.727-5.224 14.788 3.548 30.787 19.73 34.24 34.629 4.133 17.832-2.082 35.641-15.834 45.369-6.256 4.426-13.364 6.638-20.685 6.638zM1406.729 1386.422c-9.418 0-19.118-2.911-28.25-8.727-9.343-5.954-17.87-14.6-26.071-26.434-13.375-19.305-20.299-38.669-20.577-57.557-.333-22.574 10.797-50.869 36.018-59.642 20.142-7.002 42.865 1.156 69.465 24.952a7.654 7.654 0 0 1-10.204 11.408c-22.081-19.755-39.823-26.929-54.232-21.903-17.248 5.999-26.006 27.159-25.743 44.961.228 15.572 6.402 32.539 17.853 49.064 7.019 10.13 14.122 17.405 21.715 22.243 12.813 8.159 26.37 8.454 37.199.792 12.194-8.628 17.627-24.758 13.84-41.098-2.98-12.855-18.985-29.063-31.715-32.117-5.803-1.396-7.652.805-8.26 1.528a7.646 7.646 0 0 1-10.78.938 7.65 7.65 0 0 1-.938-10.78c5.51-6.557 13.879-8.895 23.547-6.569 18.595 4.461 38.712 24.808 43.054 43.543 5.198 22.423-2.617 44.816-19.91 57.047-7.868 5.57-16.806 8.351-26.011 8.351zM1662.212 1267.306c-4.574 0-9.285-1.414-13.72-4.238-4.538-2.892-8.679-7.091-12.662-12.838-6.496-9.376-9.859-18.781-9.994-27.954-.161-10.964 5.244-24.706 17.493-28.966 9.782-3.401 20.818.562 33.737 12.119a3.717 3.717 0 0 1-4.956 5.54c-10.724-9.594-19.341-13.079-26.339-10.638-8.377 2.914-12.63 13.19-12.502 21.837.111 7.563 3.109 15.803 8.671 23.829 3.409 4.92 6.859 8.453 10.546 10.803 6.223 3.963 12.807 4.106 18.066.385 5.922-4.19 8.561-12.024 6.722-19.96-1.447-6.244-9.221-14.115-15.403-15.599-2.818-.678-3.717.391-4.011.742a3.713 3.713 0 0 1-5.235.455 3.713 3.713 0 0 1-.455-5.235c2.676-3.185 6.741-4.32 11.436-3.19 9.031 2.167 18.801 12.049 20.91 21.148 2.524 10.89-1.271 21.766-9.67 27.706-3.822 2.703-8.163 4.054-12.634 4.054zM1788.781 957.911c-4.574 0-9.285-1.414-13.72-4.238-4.538-2.892-8.679-7.091-12.662-12.838-6.496-9.376-9.859-18.78-9.994-27.954-.161-10.964 5.244-24.706 17.493-28.966 9.782-3.401 20.818.562 33.737 12.119a3.716 3.716 0 1 1-4.956 5.54c-10.724-9.594-19.341-13.079-26.339-10.638-8.377 2.914-12.63 13.19-12.503 21.837.111 7.563 3.109 15.803 8.671 23.829 3.409 4.92 6.859 8.453 10.546 10.803 6.223 3.963 12.807 4.106 18.066.385 5.922-4.19 8.561-12.024 6.722-19.96-1.447-6.244-9.22-14.115-15.403-15.598-2.818-.678-3.717.391-4.011.742a3.712 3.712 0 0 1-5.235.455 3.714 3.714 0 0 1-.455-5.235c2.676-3.185 6.741-4.32 11.436-3.19 9.031 2.167 18.802 12.049 20.91 21.148 2.524 10.89-1.271 21.766-9.67 27.706-3.822 2.702-8.163 4.053-12.633 4.053zM1614.61 863.151c-4.574 0-9.285-1.414-13.72-4.238-4.538-2.892-8.679-7.091-12.662-12.838-6.496-9.376-9.858-18.781-9.994-27.954-.162-10.964 5.244-24.706 17.493-28.966 9.782-3.401 20.818.562 33.737 12.119a3.717 3.717 0 0 1-4.956 5.54c-10.724-9.594-19.341-13.079-26.339-10.638-8.377 2.914-12.63 13.19-12.503 21.836.111 7.563 3.109 15.804 8.671 23.829 3.409 4.92 6.859 8.453 10.546 10.803 6.223 3.962 12.807 4.106 18.066.385 5.922-4.19 8.561-12.024 6.722-19.96-1.447-6.244-9.221-14.115-15.403-15.598-2.818-.678-3.717.391-4.011.742a3.713 3.713 0 0 1-5.235.456 3.713 3.713 0 0 1-.455-5.235c2.676-3.185 6.741-4.32 11.436-3.19 9.031 2.167 18.801 12.049 20.91 21.148 2.524 10.89-1.271 21.766-9.67 27.706-3.822 2.702-8.163 4.053-12.633 4.053z"/></g><path fill="#f37c20" d="m1410.123 2349.429-21.147 74.534h-136.395l6.942-58.723zM1928.008 2387.919l-125.204 54.128-30.436-66.505 141.855-34.266z"/><path fill="#f6f7f7" d="M1690.497 915.271c-8.004 34.834-41.232 58.674-77.474 54.177l-11.414-1.383c-16.972-2.1-31.795-10.055-42.665-21.567a69.943 69.943 0 0 1-13.761-20.999 69.808 69.808 0 0 1-4.496-15.07c5.559-2.347 10.475-5.633 14.823-9.561 3.73 15.144 14.403 41.776 43.629 46.643 39.33 6.547 61.391-8.054 80.315-41.973 3.434 4.125 7.09 7.386 11.043 9.733z"/><path fill="#f16b6c" d="M1666.113 881.894c-46.272.025-76.214-18.059-85.256-24.384l1.927-6.769c.025.025.049.049.074.049a82.834 82.834 0 0 0 18.529 6.127c1.112.222 2.224.445 3.335.642a91.78 91.78 0 0 0 3.706.519c8.128.964 16.107.766 23.766-.494a83.253 83.253 0 0 0 24.235-7.881c2.742 12.205 5.954 22.977 9.684 32.191z"/><path fill="#231f20" d="m1729.721 1452.005.913 45.89a.497.497 0 0 1-.995.02v-.011l.082-45.899zM1731.456 1543.786l.759 45.891a1.247 1.247 0 0 1-2.493.041v-.019l-.073-45.897a.903.903 0 0 1 1.807-.016zM1732.878 1635.569l.664 45.892a1.743 1.743 0 1 1-3.486.05v-.019l-.167-45.897a1.494 1.494 0 0 1 2.989-.026zM1734.168 1727.353l.498 45.893a2.036 2.036 0 1 1-4.073.044v-.007l-.333-45.895a1.955 1.955 0 0 1 3.908-.035zM1735.164 1819.14l.498 45.893a2.2 2.2 0 1 1-4.401.047v-.008l-.333-45.895a2.118 2.118 0 0 1 4.236-.037zM1736.159 1910.927l.191 22.952c.049 3.827 0 7.67.162 11.392a118.96 118.96 0 0 0 1.024 11.213c.17 1.217-.678 2.341-1.895 2.511s-2.34-.671-2.51-1.888c-.552-3.857-.92-7.74-1.104-11.632-.184-3.922-.144-7.733-.208-11.556l-.225-22.951a2.283 2.283 0 0 1 4.565-.045v.004zM1750.3 2000.03l15.127 43.332a2.06 2.06 0 0 1-3.885 1.365l-15.283-43.277a2.142 2.142 0 0 1 4.039-1.427l.002.007zM1780.554 2086.694l15.046 43.36a1.809 1.809 0 0 1-3.412 1.198l-15.364-43.248a1.976 1.976 0 1 1 3.725-1.323l.005.013zM1810.57 2173.441l14.969 43.387a1.309 1.309 0 0 1-2.469.867l-15.441-43.221a1.559 1.559 0 1 1 2.941-1.033zM1840.456 2260.233l14.819 43.44a.594.594 0 0 1-1.12.394l-15.591-43.169a1.002 1.002 0 0 1 1.885-.681l.007.016zM1870.038 2347.132l3.354 9.931-3.591-9.848a.126.126 0 1 1 .237-.083zM1525.836 1770.428c-3.608 14.87-7.307 29.717-11.019 44.559a.713.713 0 1 1-1.379-.364c4.093-14.742 8.2-29.48 12.398-44.195zM1503.638 1859.505l-11.342 44.474a1.641 1.641 0 1 1-3.174-.837l12.076-44.281a1.262 1.262 0 0 1 2.44.644zM1480.9 1948.439l-11.587 44.41a2.09 2.09 0 0 1-4.045-1.056l.003-.011 11.83-44.345a1.965 1.965 0 0 1 3.799 1.002zM1457.725 2037.258l-5.794 22.205-5.884 22.181a2.248 2.248 0 0 1-4.347-1.147l5.825-22.197 5.915-22.173a2.215 2.215 0 0 1 4.285 1.131zM1434.217 2125.989l-11.831 44.345a1.995 1.995 0 0 1-3.858-1.017l11.587-44.41a2.122 2.122 0 1 1 4.106 1.072l-.004.01zM1410.423 2214.645l-12.078 44.28a1.35 1.35 0 0 1-2.611-.689l11.339-44.475a1.733 1.733 0 0 1 3.358.856l-.008.028zM1386.156 2303.176l-12.357 44.207a.184.184 0 0 1-.356-.094l11.061-44.548a.854.854 0 1 1 1.652.435z"/><path fill="#312f7f" d="M1241.399 2495.425c-18.737 20.71-53.342 47.328-75.406 58.196-21.075 10.381-55.489 11.066-66.074 15.677-20.329 8.857-9.454 12.827-13.83 24.769-2.532 27.226 158.808 15.779 201.859 11.801 23.213 1.266 45.569 1.197 68.123-5.109 5.918-1.655 10.776-10.171 11.954-13.91 7.677-24.36-.528-66.072-10.206-80.792-9.678-14.72-8.08-13.784-19.408-8.226-11.328 5.558-15.332 24.344-35.407 23.402-20.076-.942-39.029-10.663-52.61-26.472-3.21.259-5.396.108-8.995.664z"/><path d="M1356.74 2503.547c.027-.094.031-.325-.01-.354-5.858-4.226-8.196-14.327-18.518-5.921-10.322 8.406-15.535 23.758-35.264 23.806-19.729.048-39.18-11.123-52.548-26.266a92.946 92.946 0 0 0-7.271.414c17.054 27.263 39.235 39.272 72.095 38.639 19.992-.385 35.862-10.713 41.516-30.318z"/><path fill="#312f7f" d="M1857.521 2490.875c-2.504 21.207-11.69 40.084-30.297 47.972-17.773 7.534-45.619 5.732-57.444 10.448-22.711 9.059-9.778 11.064-18.762 26.01 26.43 47.396 165.97 9.566 202.679-15.254 19.944-12.024 38.419-27.527 55.309-43.326 4.432-4.145 3.665-13.606 2.698-17.459-6.3-25.099-32.212-52.096-49.983-62.291-17.771-10.195-13.947-9.181-23.507 2.357-9.56 11.538-.292 29.452-16.302 39.188s-37.581 12.026-56.509 7.572c-2.858 1.615-5.06 2.781-7.882 4.783z"/><path d="M1956.289 2433.054c-.015-.09-.107-.54-.176-.537-9.861.426-13.813-6.495-18.898 6.448-5.085 12.943-.544 29.269-15.613 39.512-15.069 10.243-37.734 12.041-56.13 7.659-2.339 1.178-4.217 2.225-6.274 3.655 29.211 9.903 54.151 10.096 80.356-8.403 15.942-11.253 19.793-29.492 16.735-48.334z"/><path d="M1681.751 1384.389c-3.854 8.226-12.352 14.526-21.419 14.23-4.175-.148-8.202-1.606-12.081-3.212-16.997-7.066-32.709-17.219-46.124-29.868-2.174-2.051-4.348-4.2-6.695-6.053v-34.438a47.09 47.09 0 0 1 22.753 15.663l22.778 28.658a21.429 21.429 0 0 0 16.577 7.831c4.546 0 9.141-1.433 13.019-4.398a19.381 19.381 0 0 0 5.904-23.42l-7.09-15.589.395.099c5.213 7.436 10.129 15.218 12.822 23.89 2.694 8.671 2.991 18.38-.839 26.607z" opacity=".05"/><path fill="#6457a4" d="M1890.114 2699.954h-807.048c-21.247 0-38.472-17.224-38.472-38.472v-99.627c0-21.247 17.224-38.472 38.472-38.472h807.048c21.247 0 38.472 17.225 38.472 38.472v99.627c-.001 21.248-17.225 38.472-38.472 38.472z" opacity=".07"/><path fill="#fff" d="m1519.429 655.509.27 1.14c-.14-.37-.23-.76-.27-1.14z" opacity=".19"/><path fill="#1a3075" d="M1733.72 755.394c-.163.965-1.159 1.832-1.46 2.796-.457 1.467-.77 2.91-1.424 4.318-.181.389-.383.783-.711 1.058-1.226 1.028-4.812-.929-6.073-1.43a76.013 76.013 0 0 1-5.513-2.457c-.03-.02-.07-.03-.1-.05-4.4-2.21-7.16-6.54-8.69-11.34a6.91 6.91 0 0 1-1.88-1.5c-4.13-4.72-.84-12.73-4.3-17.96-.09-.14-.19-.28-.29-.41-.83-1.12-1.88-1.94-3.07-2.56-3.58-1.84-8.45-1.75-12.7-1.66-.62.02-1.23.02-1.84.02-4.45.02-8.92-.3-13.31-1.03-6.74-1.1-13.28-3.16-19.25-6.45a47.914 47.914 0 0 1-7.25-4.92c-8.19-5.47-15.08-12.31-14.9-18.84-.95.59-2.14 1.56-3.89 2.79-.01.01-.02.01-.03.02-4.93 3.46-10.53 5.16-16.32 5.4-.11 0-.23.01-.34.01-1.33.03-2.67-.01-4-.11-.69-.06-1.37-.13-2.05-.22-1-.13-2.01-.31-3.01-.53-11.39-2.47-22.1-8.34-33.75-8.77-2.72-2.8-5.34 2.49-8.96 3.97-1.09.44-2.17.87-3.25 1.28-.6.23-1.19.46-1.78.68-.99.37-1.97.72-2.95 1.06-.46.16-.93.32-1.4.48-.55.19-1.1.37-1.66.55-1.7.56-3.4 1.09-5.1 1.59-2.43.71-4.87 1.38-7.33 2-4.92 1.25-9.94 2.35-15.16 3.39-7.72-9.42 3.7-21.2 12.36-29.75 4.4-4.35 9.79-7.36 15.6-9.49 2.81-5.65 6.14-10.8 10.71-14.61 21.85-18.25 52.99-32.65 81.64-30.86 9.62.6 22.65 12.31 31.47 16.17 6.77 2.97 13.02 7.04 18.79 11.66 30.99 24.86 49.781 66.535 43.171 105.705z"/><path fill="#f99115" d="M1627.039 695.789c-4.27 3.54-10.25 5.21-16.32 5.4 5.79-.24 11.39-1.94 16.32-5.4z"/><path fill="#f16b6c" d="M1671.789 722.719c-.15-.01-.3-.01-.44-.02.11-.01.25-.01.44.02z"/><path fill="#f16b6c" d="M1729.679 764.299c-4.16.19-8.53-1.01-12.16-3.11-6.51-3.79-11.28-9.9-16.24-15.57-2.31-2.63-4.76-5.24-7.46-7.48-3.79 1.81-8.15 2.39-12.4 2.49-11.91.27-23.89-2.99-34.02-9.26-5.24-3.24-10.27-7.38-16.36-8.3-7.52-1.14-14.66 2.91-22.12 2.21-6.44-.6-11.24-3.11-18.29-2.94-15.13.37-30.59 3.62-45.31-1.53-2-.7-3.69-1.49-5.11-2.38l1.42-11.77c.22-1.85.5-3.68.84-5.48 1.7-.5 3.4-1.03 5.1-1.59.56-.18 1.11-.36 1.66-.55.47-.16.94-.32 1.4-.48.98-.34 1.96-.69 2.95-1.06.59-.22 1.18-.45 1.78-.68 1.08-.41 2.16-.84 3.25-1.28 3.62-1.48 6.24-6.77 8.96-3.97 11.65.43 22.36 6.3 33.75 8.77 1 .22 2.01.4 3.01.53.68.1 1.37.17 2.05.22 1.34.12 2.68.15 4 .11.11 0 .23-.01.34-.01 5.79-.24 11.39-1.94 16.32-5.4.01-.01.02-.01.03-.02 1.75-1.23 2.94-2.2 3.89-2.79-.18 6.53 6.71 13.37 14.9 18.84 9.04 6.03 19.66 10.38 24.16 10.79.37.03.81.06 1.32.09-.22.04-.3.17-.51.22 2.7.03 6.58-.08 9.12 0 7.39.22 16.5.77 20.85 2.96 1.35.67 2.24 1.51 2.48 2.54.1.13.2.27.29.41 3.46 5.23.17 13.24 4.3 17.96a6.91 6.91 0 0 0 1.88 1.5c1.53 4.8 4.29 9.13 8.69 11.34.03.02.07.03.1.05 3.66 1.8 7.48 1.81 11.4 1.06"/><path fill="none" d="M3032.313 818.214c10.189-6.011 13.858-18.603 18.69-29.401.939-2.1 2.015-4.248 3.849-5.636 1.844-1.397 4.23-1.849 6.537-2.03 11.044-.868 21.956 3.528 33.02 2.971 5.921-.298 11.683-2.01 17.232-4.096 8.83-3.319 17.529-7.799 23.643-14.981 6.115-7.182 9.186-17.529 5.77-26.321-3.916-10.076-14.721-15.422-24.725-19.519-14.948-6.122-30.416-11.592-46.522-12.818-16.106-1.226-33.087 2.186-45.708 12.267-8.376 6.69-14.385 15.892-19.344 25.396-8.763 16.795-14.767 36.379-12.335 55.48 1.137 8.927 2.286 16.339 10.815 19.638 8.782 3.398 20.799 3.934 29.078-.95z"/><path fill="#f28389" d="m3029.61 1919.987-82.819 584.336 81.163 9.559 151.669-558.098zM3462.047 1926.994l371.776 225.762 43.684-69.068-318.368-276.522z"/><path fill="#f37c20" d="m3780.738 1985.627-35.871 63.293-33.944 59.859-31.029 54.721-32.042-26.483-17.936-14.823-58.6-48.446-186.2-153.935-18.677-15.441c-31.968-27.546-53.337-65.369-60.477-106.971l-27.076-157.987c-.025.05-.074.099-.099.173-7.362 11.71-21.246 105.218-35.525 215.969-14.749 114.457-29.967 247.344-38.935 327.485-1.359 12.131-6.572 47.755-11.883 83.403-6.003 40.467-12.105 81.007-12.822 87.652-.988 8.943-6.843 48.421-6.843 48.421h-219.155l12.031-87.9 3.879-29.596 98.498-751.789 1.26-10.03 4.299-34.142 2.693-21.468 21.542-171.229 282.375-86.961 42.295 65.69a506.059 506.059 0 0 1 69.766 169.993 505.765 505.765 0 0 1 9.511 140.397l-7.733 107.12a66.753 66.753 0 0 0 8.573 37.872 66.919 66.919 0 0 0 13.341 16.552l27.299 24.606 145.462 131.083 58.896 53.066 13.094 11.809 20.033 18.037z"/><path fill="#17255b" d="M3383.709 984.299c-4.17 1.67-30.87 7.76-68.05 15.19-81.18 16.22-212.32 38.78-267.87 35.39-15.94-.97-25.65-4.08-26.18-10.09-.38-4.32.14-8.88 1.3-13.68 7.47-31.07 41.82-71.93 35.49-119.33 12.75 6.03 27.07 8.35 41.21 6.47 7.41-.94 14.77-3.04 21.79-6.4.91-.39 1.8-.84 2.69-1.26.94-.52 1.9-1.06 2.86-1.6 6.2-3.59 11.66-7.91 16.38-12.83 19.42-20.18 25.89-50.07 15.99-76.75l2.17-3.54c5.14-8.4 6.6-18.47 4.15-27.88-.37-1.47-.85-2.93-1.43-4.36l-.67-1.67-3.22-7.99-.93-2.29c-2.99-7.44-12.62-9.37-18.23-3.68l-6.47 6.57c-44.97 40.27-109.12-4.52-109.12-4.52s9.68 62.82-20.04 67.71h-.02c-1.51.25-3.09.35-4.77.27-35.53-1.28-63.32-78.31-22.01-121.2 5.83-6.05 12.21-11.6 19.12-16.53.85-.61 1.7-1.2 2.56-1.79 13.72-9.32 29.42-16.24 46.89-19.96 35.93-7.65 79.35-1.74 128.35 24.79 21.91 11.86 41.03 31.4 58.45 54 51.4 66.69 88.09 160.04 138.49 161.55 67.5 2.03 27.01 79.06 11.12 85.41z"/><path d="M3159.316 799.405c9.906 26.681 3.434 56.574-15.984 76.758a73.793 73.793 0 0 1-16.379 12.822c-.964.544-1.927 1.087-2.866 1.606-.889.42-1.779.865-2.693 1.26a71.037 71.037 0 0 1-21.79 6.398c-14.131 1.878-28.46-.445-41.208-6.473-.939-7.14-2.816-14.403-5.83-21.839l-47.038-52.177c29.72-4.891 20.035-67.716 20.035-67.716s64.158 44.79 109.121 4.521l6.472-6.572c5.608-5.682 15.243-3.755 18.232 3.681l4.818 11.957a35.997 35.997 0 0 1-2.718 32.24l-2.172 3.534z"/><path d="M3355.699 949.089c-3.58 12.64-11.5 23.64-20.56 33.15-6.04 6.35-12.56 12.07-19.48 17.25-36.02 27.01-82.69 39.07-127.88 45.72-30.86 4.54-62.25 7.11-93.24 3.58-16.01-1.83-32.78-6.06-46.75-13.91-10.32-5.79-19.09-13.55-24.88-23.77 7.47-31.07 41.82-71.93 35.49-119.33 12.75 6.03 27.07 8.35 41.21 6.47 7.41-.94 14.77-3.04 21.79-6.4.91-.39 1.8-.84 2.69-1.26.94-.52 1.9-1.06 2.86-1.6 6.2-3.59 11.66-7.91 16.38-12.83 19.42-20.18 25.89-50.07 15.99-76.75l2.17-3.54c5.14-8.4 6.6-18.47 4.15-27.88.55.48 1.08 1.02 1.57 1.61l-3.67-7.64-4.86-10.1c.55.7 1.1 1.4 1.64 2.11a106.946 106.946 0 0 1 17.49 35.12c4.18 14.7 5.21 30.37 11.51 44.3 9.38 20.72 29.43 34.95 50.7 42.99 21.27 8.05 44.1 10.79 66.5 14.72 16.2 2.85 33.74 7.22 43.61 20.38 7.89 10.5 9.16 24.97 5.57 37.61z" opacity=".21"/><path fill="#f28389" d="M3203.76 932.632v.023a66.4 66.4 0 0 1-4.773 11.658c-5.416 10.51-12.208 17.211-15.329 19.988a44.325 44.325 0 0 1-1.767 1.446c-52.873 34.697-83.806 16.293-100.054-3.741-2.685-3.281-4.934-6.609-6.838-9.776a35.29 35.29 0 0 0 7.504-6.517c8.628-10.028 10.51-23.889 9.914-36.212-.413-8.904-2.134-17.027-3.511-22.306-1.01-3.924-1.859-6.288-1.859-6.288s29.993-53.836 44.542-21.892c.987 2.203 2.065 4.268 3.19 6.265 13.195 23.384 34.354 32.747 50.302 36.419 12.3 2.868 21.502 2.364 21.502 2.364 1.009 10.991-.322 20.491-2.823 28.569z"/><path fill="#f16b6c" d="M3074.999 952.229c1.902 3.162 4.15 6.497 6.843 9.783-15.292-1.211-22.457-3.039-15.094-5.707 3.087-1.112 5.829-2.495 8.251-4.076zM3267.77 963.593s-16.725.296-40.59.494c-3.755.049-7.658.074-11.735.099-9.956.074-20.727.123-31.795.123 3.138-2.792 9.931-9.487 15.342-19.986a68.391 68.391 0 0 0 4.768-11.661v-.025c2.495-8.078 3.829-17.59 2.816-28.583l20.53 19.961 40.664 39.578z"/><defs><path id="e" d="m3438.677 1297.354-97.51 19.789a177.272 177.272 0 0 0-86.379 44.773l-34.652 32.686c-4.03 3.801-8.527 7.13-13.547 9.473a52.33 52.33 0 0 1-39.319 2c-25.608-8.91-53.351 6.031-60.005 32.316l-9.439 37.29-254.088-374.137a319.036 319.036 0 0 1 154.503-123.301l58.155-22.457 16.873-6.522 9.24-3.557a35.145 35.145 0 0 1-7.51 6.522c1.902 3.162 4.15 6.497 6.843 9.783 16.231 20.035 47.186 38.44 100.054 3.73 0 0 .667-.494 1.754-1.433 3.138-2.792 9.931-9.487 15.342-19.986a68.391 68.391 0 0 0 4.768-11.661l13.365 17.936 3.434 4.595 6.621 8.894 26.286 35.303 129.502 208.31h.025l55.684 89.654z"/></defs><use fill="#6457a4" overflow="visible" xlink:href="#e"/><clipPath id="f"><use overflow="visible" xlink:href="#e"/></clipPath><g clip-path="url(#f)"><path fill="#f6f7f7" d="M3019.854 1313.034c-4.723 6.061-11.46 10.844-19.783 13.804-8.517 3.027-18.358 4.178-30.086 3.522-19.131-1.074-35.065-6.329-47.36-15.622-14.694-11.107-27.323-32.458-20.32-53.089 5.594-16.474 22.24-27.006 50.894-32.192a6.244 6.244 0 0 1 2.224 12.288c-23.787 4.303-37.301 12.124-41.292 23.917-4.789 14.108 4.437 30.356 16.026 39.114 10.136 7.662 24.152 12.198 40.528 13.116 10.039.563 18.283-.36 25.205-2.82 11.676-4.154 18.665-12.731 19.165-23.542.563-12.174-7.094-23.76-19.508-29.517-9.767-4.529-28.224-2.356-36.574 4.304-3.808 3.035-3.319 5.328-3.158 6.082a6.238 6.238 0 0 1-4.802 7.408 6.241 6.241 0 0 1-7.408-4.802c-1.457-6.834 1.236-13.393 7.581-18.448 12.196-9.729 35.379-12.472 49.614-5.871 17.037 7.9 27.529 24.159 26.729 41.422-.367 7.855-3.059 15.002-7.675 20.926zM3103.408 1417.474c-2.418 3.104-5.869 5.553-10.13 7.069-4.361 1.55-9.4 2.14-15.406 1.804-9.796-.55-17.956-3.241-24.251-7.999-7.525-5.687-13.991-16.621-10.406-27.185 2.865-8.436 11.389-13.829 26.061-16.484a3.198 3.198 0 0 1 1.139 6.293c-12.18 2.204-19.101 6.208-21.145 12.247-2.452 7.224 2.272 15.544 8.206 20.029 5.19 3.924 12.367 6.246 20.753 6.716 5.141.288 9.362-.184 12.906-1.444 5.979-2.127 9.558-6.519 9.814-12.055.288-6.234-3.632-12.167-9.99-15.115-5.002-2.319-14.453-1.207-18.729 2.204-1.95 1.554-1.7 2.729-1.617 3.114a3.194 3.194 0 0 1-2.459 3.793 3.195 3.195 0 0 1-3.793-2.459c-.746-3.5.633-6.858 3.882-9.447 6.245-4.982 18.116-6.387 25.406-3.006 8.724 4.045 14.096 12.371 13.687 21.211-.186 4.021-1.565 7.681-3.928 10.714zM3284.05 1221.971c-3.96 5.082-9.61 9.092-16.588 11.575-7.142 2.538-15.393 3.504-25.227 2.953-16.041-.9-29.402-5.307-39.712-13.099-12.321-9.313-22.91-27.216-17.039-44.516 4.691-13.813 18.649-22.645 42.675-26.993a5.236 5.236 0 0 1 1.865 10.303c-19.945 3.609-31.277 10.166-34.624 20.054-4.015 11.83 3.72 25.454 13.438 32.798 8.499 6.425 20.251 10.228 33.983 10.997 8.418.472 15.33-.302 21.134-2.364 9.79-3.483 15.651-10.675 16.07-19.74.472-10.208-5.948-19.923-16.358-24.75-8.19-3.798-23.666-1.976-30.667 3.609-3.193 2.545-2.783 4.468-2.648 5.1a5.23 5.23 0 0 1-4.027 6.211 5.232 5.232 0 0 1-6.211-4.027c-1.222-5.73 1.036-11.23 6.357-15.469 10.227-8.158 29.666-10.458 41.601-4.923 14.285 6.624 23.083 20.257 22.412 34.732-.306 6.589-2.563 12.582-6.434 17.549zM3332.613 1491.143c-4.979 6.39-12.083 11.433-20.858 14.554-8.98 3.192-19.355 4.405-31.721 3.714-20.171-1.132-36.971-6.673-49.934-16.471-15.493-11.71-28.808-34.222-21.425-55.975 5.898-17.369 23.449-28.474 53.66-33.941a6.583 6.583 0 0 1 2.345 12.955c-25.079 4.537-39.329 12.783-43.537 25.217-5.049 14.875 4.678 32.006 16.896 41.24 10.687 8.079 25.464 12.861 42.731 13.828 10.584.593 19.277-.38 26.574-2.973 12.31-4.38 19.679-13.423 20.206-24.822.594-12.836-7.479-25.051-20.568-31.121-10.298-4.775-29.758-2.484-38.562 4.538-4.015 3.2-3.5 5.618-3.33 6.412a6.577 6.577 0 0 1-5.063 7.81 6.579 6.579 0 0 1-7.81-5.063c-1.536-7.206 1.303-14.121 7.993-19.451 12.859-10.258 37.302-13.15 52.31-6.19 17.963 8.329 29.025 25.472 28.181 43.673-.383 8.285-3.222 15.82-8.088 22.066zM3386.873 1254.807c-2.418 3.104-5.869 5.553-10.13 7.069-4.362 1.55-9.4 2.14-15.406 1.804-9.796-.55-17.956-3.241-24.252-7.999-7.524-5.687-13.991-16.621-10.406-27.185 2.865-8.436 11.389-13.829 26.062-16.484a3.196 3.196 0 1 1 1.138 6.292c-12.18 2.204-19.101 6.208-21.145 12.247-2.452 7.224 2.272 15.544 8.206 20.029 5.19 3.924 12.367 6.246 20.753 6.716 5.141.288 9.362-.184 12.906-1.444 5.979-2.127 9.558-6.519 9.813-12.055.288-6.234-3.632-12.167-9.99-15.115-5.002-2.319-14.453-1.207-18.728 2.204-1.95 1.554-1.7 2.729-1.617 3.114a3.194 3.194 0 0 1-2.459 3.793 3.195 3.195 0 0 1-3.793-2.459c-.746-3.5.633-6.858 3.882-9.447 6.245-4.982 18.117-6.387 25.406-3.006 8.724 4.045 14.097 12.371 13.687 21.211-.185 4.022-1.563 7.682-3.927 10.715zM3243.861 1005.337c-2.418 3.104-5.868 5.553-10.13 7.069-4.362 1.55-9.4 2.14-15.406 1.804-9.796-.55-17.956-3.241-24.252-7.999-7.524-5.687-13.991-16.621-10.405-27.185 2.865-8.436 11.389-13.829 26.061-16.484a3.198 3.198 0 0 1 1.139 6.293c-12.18 2.204-19.101 6.208-21.144 12.247-2.452 7.224 2.271 15.544 8.206 20.029 5.19 3.924 12.367 6.246 20.753 6.716 5.141.288 9.362-.184 12.906-1.444 5.979-2.127 9.558-6.519 9.813-12.055.288-6.234-3.632-12.167-9.99-15.115-5.002-2.319-14.453-1.207-18.728 2.204-1.95 1.554-1.7 2.729-1.617 3.114a3.194 3.194 0 0 1-2.459 3.793 3.195 3.195 0 0 1-3.793-2.459c-.746-3.5.633-6.858 3.882-9.447 6.245-4.982 18.116-6.387 25.406-3.006 8.724 4.045 14.096 12.371 13.687 21.211-.187 4.021-1.566 7.68-3.929 10.714zM3087.472 1073.414c-2.418 3.104-5.868 5.553-10.13 7.069-4.361 1.55-9.4 2.14-15.406 1.804-9.796-.55-17.956-3.241-24.251-7.999-7.525-5.687-13.991-16.621-10.406-27.185 2.865-8.436 11.389-13.829 26.061-16.484a3.198 3.198 0 0 1 1.139 6.293c-12.18 2.204-19.101 6.208-21.145 12.247-2.452 7.224 2.272 15.544 8.206 20.029 5.19 3.924 12.367 6.246 20.753 6.716 5.141.288 9.362-.184 12.906-1.444 5.979-2.127 9.558-6.519 9.813-12.055.288-6.234-3.632-12.167-9.99-15.115-5.001-2.319-14.453-1.207-18.728 2.204-1.95 1.554-1.7 2.729-1.617 3.114a3.194 3.194 0 0 1-2.459 3.793 3.195 3.195 0 0 1-3.793-2.459c-.746-3.5.633-6.858 3.882-9.447 6.245-4.982 18.116-6.387 25.406-3.006 8.724 4.045 14.096 12.371 13.687 21.211-.186 4.02-1.564 7.68-3.928 10.714z"/></g><path fill="#6457a4" d="m3098.196 1297.354-.37-.988.099-.099z"/><path fill="#fcb713" d="M3227.105 924.016c.321 12.229-2.495 22.63-6.547 31.177a69.026 69.026 0 0 1-5.114 8.993 71.606 71.606 0 0 1-2.347 3.335c-8.128 10.944-16.799 16.503-16.799 16.503-93.359 53.09-131.33-10.129-139.903-28.237l16.873-6.522c.543.964 1.112 1.952 1.729 2.965 1.902 3.162 4.15 6.497 6.843 9.783 16.231 20.035 47.186 38.44 100.054 3.73 0 0 .667-.494 1.754-1.433 3.138-2.792 9.931-9.487 15.342-19.986a68.391 68.391 0 0 0 4.768-11.661v-.025c2.495-8.078 3.829-17.59 2.816-28.583l16.824-1.779c2.398 7.782 3.535 15.045 3.707 21.74z"/><path fill="#312f7f" d="M2941.31 2456.43c-18.737 20.71-53.342 47.328-75.406 58.196-21.075 10.381-55.489 11.066-66.074 15.677-20.329 8.857-9.454 12.827-13.83 24.769-2.532 27.226 158.808 15.779 201.859 11.801 23.213 1.266 45.569 1.197 68.123-5.109 5.918-1.654 10.775-10.171 11.954-13.91 7.677-24.36-.528-66.072-10.206-80.792-9.678-14.72-8.08-13.784-19.408-8.226-11.328 5.558-15.332 24.344-35.407 23.402-20.076-.942-39.029-10.663-52.61-26.472-3.211.259-5.396.108-8.995.664z"/><path d="M3056.651 2464.552c.027-.094.031-.325-.01-.354-5.858-4.226-8.196-14.327-18.518-5.921s-15.535 23.758-35.264 23.806c-19.729.048-39.179-11.123-52.548-26.266a92.946 92.946 0 0 0-7.271.414c17.054 27.263 39.235 39.272 72.095 38.639 19.992-.384 35.862-10.713 41.516-30.318z"/><path fill="#312f7f" d="M3801.802 2146.013c5.07 27.464 5.193 71.122.424 95.251-4.555 23.047-24.916 50.801-27.683 62.01-5.313 21.529 4.446 15.302 11.275 26.031 20.089 18.549 109-116.567 131.992-153.181 15.106-17.671 28.631-35.472 37.322-57.218 2.281-5.706-1.534-14.738-3.788-17.946-14.687-20.896-52.806-39.715-70.378-40.969-17.572-1.254-15.858-1.955-18.323 10.42-2.466 12.375 10.026 26.967-2.918 42.342-12.943 15.375-32.178 24.527-52.986 25.711-1.744 2.708-3.192 4.353-4.937 7.549z"/><path d="M3878.317 2059.324c-.058-.079-.239-.222-.287-.208-6.915 2.087-16.359-2.192-15.952 11.114.407 13.306 9.436 26.772-2.51 42.473-11.947 15.701-32.635 24.366-52.785 25.787a93.695 93.695 0 0 0-4.088 6.027c32.016 3.014 55.029-7.311 74.488-33.799 11.838-16.113 13.273-34.994 1.134-51.394z"/><path fill="#f28389" d="M3159.309 799.395c9.914 26.689 3.442 56.59-15.972 76.761a7.46 7.46 0 0 1-.596.597 73.862 73.862 0 0 1-15.788 12.231c-.964.551-1.928 1.078-2.868 1.606-.895.413-1.767.872-2.685 1.262a71.515 71.515 0 0 1-21.801 6.403 71.92 71.92 0 0 1-8.284.62c-11.382.206-22.65-2.249-32.907-7.091-13.126-6.219-24.531-16.339-32.357-29.855l-20.998-36.419-4.314-7.481a23.157 23.157 0 0 0 4.773-.275h.023c17.555-2.891 21.365-26 21.525-44.427.092-9.638 9.96-16.178 18.795-12.254 22.581 9.982 59.734 19.552 88.832-6.494l5.508-5.622.964-.964c5.599-5.668 15.238-3.741 18.244 3.695l4.796 11.956c4.268 10.556 3.236 22.512-2.708 32.219l-2.182 3.532z"/><path d="m3260.284 1131.264-142.373 144.695-7.041-30.189 139.211-124.759c10.401-9.338 14.699-23.716 11.068-37.23l-17.911-66.678 25.446 41.85c14.081 23.173 10.623 52.967-8.4 72.311zM3399.594 1234.431l-279.929 155.047-21.469-92.124 23.469 63.59 258.535-151.539a64.227 64.227 0 0 0 2.767-1.705h.025l16.602 26.731z" opacity=".2"/><path d="m3069.292 1523.204 4.299-34.142 2.693-21.468c15.49-12.377 25.421-31.474 25.421-52.869v-35.377l.024-.025 42.838-12.377c0 .001 15.49 147.587-75.275 156.258z" opacity=".05"/><path d="M3278.887 1639.415c-.025.05-.074.099-.099.173-7.362 11.71-21.246 105.218-35.525 215.969-19.517 151.415-58.031 447.365-63.639 498.553l46.074-824.927 1.433-168.239 51.756 278.471zM3710.923 2108.78l-31.029 54.721-294.777-243.687zM3543.252 1771.635l-18.787-4.072c-36.289-7.866-60.874-41.743-57.101-78.683l24.898-243.792a505.765 505.765 0 0 1 9.511 140.397l-7.733 107.12a66.753 66.753 0 0 0 8.573 37.872 66.919 66.919 0 0 0 13.341 16.552l27.298 24.606z" opacity=".1"/><path fill="#6457a4" d="M3192.445 2266.446c-6.003 40.467-12.105 81.007-12.822 87.652a4084.22 4084.22 0 0 0-1.507 13.81H2958.96l6.695-53.288 3.879-29.596 222.911-18.578zM3760.703 1967.593l-112.851 169.425-17.936-14.823-58.6-48.446 117.397-171.031 58.896 53.066z"/><path fill="#231f20" d="m3256.228 1608.361-7.228 45.327a.559.559 0 1 1-1.104-.176l.002-.013 8.33-45.138zM3241.681 1699l-7.452 45.288a1.36 1.36 0 1 1-2.681-.461l8.107-45.176a1.027 1.027 0 0 1 2.026.349zM3226.732 1789.568l-7.498 45.28a1.931 1.931 0 1 1-3.807-.655l8.061-45.183a1.645 1.645 0 0 1 3.244.558zM3211.551 1880.097l-7.686 45.248a2.124 2.124 0 1 1-4.188-.712l.002-.009 7.873-45.216a2.03 2.03 0 0 1 3.999.689zM3196.178 1970.593l-7.722 45.242a2.276 2.276 0 1 1-4.488-.766l.001-.006 7.836-45.222a2.22 2.22 0 0 1 4.373.752zM3180.583 2061.051l-7.873 45.216a2.086 2.086 0 0 1-2.413 1.697 2.08 2.08 0 0 1-1.699-2.404l7.686-45.248a2.182 2.182 0 0 1 4.301.731l-.002.008zM3164.836 2151.483l-7.954 45.202a1.813 1.813 0 0 1-3.575-.615l7.605-45.262a1.991 1.991 0 0 1 3.927.659l-.003.016zM3148.819 2241.868l-8.063 45.183a1.237 1.237 0 0 1-2.44-.42l7.496-45.281a1.525 1.525 0 1 1 3.007.518zM3132.569 2332.213l-8.245 45.152a.353.353 0 0 1-.694-.12l7.314-45.312a.825.825 0 1 1 1.629.263l-.004.017zM3410.312 1303.11c6.281 13.955 11.589 28.359 15.984 43.036a.53.53 0 1 1-1.016.304l-.002-.009c-4.142-14.707-9.049-29.216-14.966-43.331zM3437.263 1390.775c2.99 15.033 5.281 30.196 7.187 45.397a1.307 1.307 0 1 1-2.595.311c-1.732-15.177-3.849-30.309-6.497-45.35a.97.97 0 0 1 1.905-.358zM3449.251 1481.867l1.952 22.875c.62 7.63 1.144 15.276 1.721 22.914a1.843 1.843 0 0 1-3.676.278l-.001-.011-.003-.045c-.486-7.623-.919-15.246-1.449-22.872l-1.683-22.877-.001-.013a1.574 1.574 0 0 1 3.14-.249zM3455.257 1573.525l1.822 45.853a2.084 2.084 0 0 1-4.161.188l-.001-.019-1.645-45.866a1.994 1.994 0 0 1 3.985-.156zM3455.59 1665.462c-1.228 15.238-2.498 30.448-1.584 45.517a2.26 2.26 0 1 1-4.512.282l-.001-.013c-.876-15.52.486-30.913 1.769-46.144a2.172 2.172 0 0 1 4.328.358zM3465.132 1754.234c6.712 13.424 16.48 25.155 27.477 35.531a2.152 2.152 0 0 1-2.952 3.13c-11.264-10.544-21.46-22.648-28.525-36.64-.562-1.102-.124-2.451.978-3.014s2.451-.125 3.013.978l.009.015zM3527.864 1818.794l9.056 7.077 8.926 7.232 17.849 14.464a1.972 1.972 0 0 1-2.483 3.065l-.027-.022-17.86-14.357-8.929-7.178-9.051-7.016-.013-.01a2.06 2.06 0 1 1 2.527-3.258l.005.003zM3598.663 1877.356l34.387 30.413a1.505 1.505 0 0 1-1.981 2.268l-.013-.011-34.711-29.98-.019-.016a1.775 1.775 0 1 1 2.337-2.674zM3667.197 1938.441l34.112 30.702a.85.85 0 0 1 .073 1.2.856.856 0 0 1-1.194.077l-34.632-30.132a1.235 1.235 0 1 1 1.641-1.847zM3735.709 1999.514l24.994 21.465-25.522-20.843a.407.407 0 1 1 .528-.622z"/><path d="M3119.64 1248.784v132.59a152.346 152.346 0 0 1-82.069 31.548l-40.491 2.99a10.316 10.316 0 0 1-8.227-3.187l-16.231-17.12c-3.385-3.557-3.755-9.017-.914-13.019l20.999-29.547a10.284 10.284 0 0 0 1.902-5.954v-2.94a10.28 10.28 0 0 1 6.868-9.709l62.478-21.962a10.584 10.584 0 0 0 4.99-3.755 10.39 10.39 0 0 0 1.877-5.954c0-2.668 1.062-5.237 2.94-7.164l44.345-45.531a9.43 9.43 0 0 1 1.533-1.286z" opacity=".05"/><path fill="#6457a4" d="M3382.992 1207.7h-.025a64.227 64.227 0 0 1-2.767 1.705l-258.535 151.539-3.014-8.202-15.762-42.69-4.694-12.698-.272-1.087 19.986-20.307 142.373-144.695c19.023-19.344 22.481-49.138 8.4-72.311l-25.446-41.85-30.14-49.582a71.606 71.606 0 0 0 2.347-3.335 69.026 69.026 0 0 0 5.114-8.993c4.052-8.548 6.868-18.948 6.547-31.177-.173-6.695-1.309-13.958-3.706-21.74l39.157-4.101c58.155-6.102 112.53 29.646 130.021 85.429l33.5 106.996c13.91 44.418-3.927 92.469-43.084 117.099z"/><path fill="#6457a4" d="M3549.094 2660.96h-807.048c-21.248 0-38.472-17.225-38.472-38.472v-99.627c0-21.248 17.224-38.472 38.472-38.472h807.048c21.248 0 38.472 17.224 38.472 38.472v99.627c0 21.247-17.224 38.472-38.472 38.472z" opacity=".07"/><path fill="#f28389" d="M3118.645 1352.742c-.688.528-1.377 1.056-2.02 1.652l-32.288 29.328 15.467-72.194 3.075-1.469 15.766 42.683z"/><path fill="#f16b6c" d="M3185.08 901.698c-31.875 14.251-71.254 11.13-92.664 7.802a98.241 98.241 0 0 0-1.102-10.625 71.681 71.681 0 0 0 8.284-.62 71.495 71.495 0 0 0 21.801-6.403c.918-.39 1.79-.849 2.685-1.262.941-.528 1.905-1.056 2.868-1.606a73.812 73.812 0 0 0 15.788-12.231c12.806 15.146 29.305 21.939 42.34 24.945zM3140.193 748.956v.206c-.826 12.461-9.478 22.971-18.932 31.118-8.491 7.274-18.221 13.539-29.19 15.811-10.717 2.226-21.801.528-32.747.62-4.475.046-9.179.482-12.874 3.006-4.636 3.167-6.678 8.904-10.097 13.379-6.334 8.261-19.345 12.782-31.301 12.415l-4.314-7.481a23.157 23.157 0 0 0 4.773-.275h.023c17.555-2.891 21.365-26 21.525-44.427.092-9.638 9.96-16.178 18.795-12.254 22.581 9.982 59.734 19.552 88.832-6.494l5.507-5.624z"/><path fill="#fff" d="M3001.809 674.409c-.79 1.25-1.6 2.65-1.4 4.1l.03.18c.12.59.52 1.11 1.02 1.44l-3.61.17-12.47.58c6.29-5.6 13.32-9.97 20.86-13.32a440.29 440.29 0 0 0-4.43 6.85z" opacity=".24"/><path fill="#fff" d="m3001.459 680.129 2.4-.11c-.58.74-1.61.64-2.4.11zM3234.099 737.339c-16.61-15.4-34.23-29.59-53.55-41.39-30.38-18.54-64.58-30.78-99.83-35.71-10.92-1.52-22.24-2.23-33.42-1.69 35.93-7.65 79.35-1.74 128.35 24.79 21.91 11.86 41.03 31.4 58.45 54z" opacity=".24"/><defs><path id="g" d="M3092.952 1492.62h-1470.84c-14.734 0-26.679-11.944-26.679-26.678v-357.299c0-14.734 11.944-26.679 26.679-26.679h1470.84c14.734 0 26.678 11.944 26.678 26.679v357.299c0 14.733-11.944 26.678-26.678 26.678z"/></defs><use fill="#f37c20" overflow="visible" xlink:href="#g"/><clipPath id="h"><use overflow="visible" xlink:href="#g"/></clipPath><g clip-path="url(#h)"><path fill="#f6f7f7" d="M1654.048 825.666h33.962v724.858h-33.962z" transform="rotate(33.488 1671.051 1188.237)"/><path fill="#f6f7f7" d="M1778.304 889.326h33.962v724.858h-33.962z" transform="rotate(33.488 1795.306 1251.901)"/><path fill="#f6f7f7" d="M1946.815 925.84h33.962v724.858h-33.962z" transform="rotate(33.488 1963.827 1288.43)"/><path fill="#f6f7f7" d="M2106.396 933.544h33.962v724.858h-33.962z" transform="rotate(33.488 2123.408 1296.134)"/><path fill="#f6f7f7" d="M2290.314 948.33h33.962v724.858h-33.962z" transform="rotate(33.488 2307.337 1310.933)"/><path fill="#f6f7f7" d="M2450.017 947.624h33.962v724.858h-33.962z" transform="rotate(33.488 2467.044 1310.232)"/><path fill="#f6f7f7" d="M2622.158 948.33h33.962v724.858h-33.962z" transform="rotate(33.488 2639.202 1310.956)"/><path fill="#f6f7f7" d="M2759.095 960.4h33.962v724.858h-33.962z" transform="rotate(33.488 2776.136 1323.024)"/><path fill="#f6f7f7" d="M2956.579 960.4h33.962v724.858h-33.962z" transform="rotate(33.488 2973.621 1323.027)"/></g><path d="m3142.473 1404.519-298.736 59.124v-341.626c0-36.514 29.601-66.115 66.115-66.115h179.61c29.277 0 53.011 23.734 53.011 53.011v295.606z" opacity=".07"/><path fill="#f37c20" d="M1873.873 1040.412h-238.089c-42.504 0-76.681 34.979-75.697 77.471l10.306 340.568c.45 14.863 13.995 25.859 28.633 23.244l102.852-18.376 183.645-370.29-11.65-52.617z" opacity=".3"/><path fill="#f6f7f7" d="M3074.554 1187.692v207.964c0 37.551-30.436 67.987-67.987 67.987H1708.482c-37.551 0-67.987-30.436-67.987-67.987v-207.964c0-37.551 30.436-68.012 67.987-68.012h1298.085c37.551 0 67.987 30.461 67.987 68.012z"/><path fill="#f6f7f7" d="M3074.554 1187.692v207.964c0 37.551-30.436 67.987-67.987 67.987H1708.482c-37.551 0-67.987-30.436-67.987-67.987v-207.964c0-37.551 30.436-68.012 67.987-68.012h1298.085c37.551 0 67.987 30.461 67.987 68.012z"/><path fill="#f37c20" d="M1736.724 1291.821c0-7.727 1.471-14.988 4.407-21.784 2.936-6.802 6.897-12.693 11.895-17.691 4.998-4.998 10.895-8.965 17.691-11.901 6.796-2.93 14.064-4.401 21.784-4.401 7.821 0 14.711 1.214 20.621 3.634 5.935 2.421 11.518 5.998 16.773 10.738 1.534 1.44 1.584 2.879.151 4.325l-9.43 9.732c-1.232 1.339-2.515 1.339-3.848 0a37.25 37.25 0 0 0-11.14-6.721c-4.124-1.597-8.324-2.395-12.649-2.395-4.954 0-9.531.956-13.756 2.86-4.225 1.905-7.865 4.508-10.901 7.802-3.037 3.294-5.432 7.136-7.186 11.511-1.748 4.376-2.622 8.984-2.622 13.825 0 4.847.874 9.424 2.622 13.756 1.754 4.325 4.175 8.11 7.261 11.354 3.093 3.244 6.752 5.822 10.977 7.727 4.225 1.905 8.802 2.854 13.756 2.854 4.627 0 8.902-.792 12.825-2.395a42.412 42.412 0 0 0 10.813-6.413c.604-.509 1.282-.767 2.012-.767.704 0 1.333.258 1.836.767l9.581 9.889c.629.522.88 1.213.78 2.087-.101.88-.402 1.572-.931 2.087-5.256 5.149-11.09 8.934-17.528 11.354a56.48 56.48 0 0 1-20.017 3.634c-7.72 0-14.988-1.446-21.784-4.325-6.796-2.886-12.693-6.828-17.691-11.819-4.998-4.998-8.959-10.87-11.895-17.616-2.935-6.745-4.407-13.981-4.407-21.708zM1840.559 1291.821c0-7.727 1.433-14.988 4.325-21.784 2.879-6.802 6.815-12.693 11.819-17.691 4.992-4.998 10.864-8.965 17.616-11.901 6.74-2.93 13.982-4.401 21.703-4.401 7.72 0 14.963 1.471 21.715 4.401 6.74 2.936 12.637 6.903 17.691 11.901 5.042 4.998 9.003 10.889 11.895 17.691 2.879 6.796 4.325 14.058 4.325 21.784 0 7.727-1.446 14.963-4.325 21.709-2.892 6.746-6.853 12.618-11.895 17.616-5.055 4.992-10.952 8.934-17.691 11.819-6.752 2.879-13.995 4.325-21.715 4.325-7.72 0-14.963-1.446-21.703-4.325-6.752-2.886-12.624-6.828-17.616-11.819-5.005-4.998-8.94-10.87-11.819-17.616-2.892-6.746-4.325-13.982-4.325-21.709zm20.08 0c0 4.841.931 9.424 2.779 13.749 1.861 4.325 4.376 8.091 7.569 11.279 3.194 3.194 6.953 5.721 11.279 7.576 4.325 1.848 8.915 2.779 13.756 2.779 4.841 0 9.43-.931 13.756-2.779 4.325-1.855 8.11-4.382 11.354-7.576 3.244-3.188 5.797-6.953 7.645-11.279 1.861-4.325 2.779-8.909 2.779-13.749 0-4.841-.918-9.424-2.779-13.75-1.848-4.325-4.401-8.116-7.645-11.36-3.244-3.244-7.029-5.815-11.354-7.72-4.325-1.905-8.915-2.86-13.756-2.86-4.841 0-9.43.956-13.756 2.86-4.325 1.905-8.085 4.476-11.279 7.72s-5.708 7.035-7.569 11.36c-1.848 4.326-2.779 8.909-2.779 13.75zM1983.171 1238.363c.101-.622.39-1.163.843-1.622.465-.465 1.106-.698 1.936-.698h2.477c1.232 0 2.1.516 2.615 1.547l34 72.928h.465l33.987-72.928c.516-1.031 1.396-1.547 2.628-1.547h2.477c.817 0 1.459.233 1.924.698.465.459.754 1 .855 1.622l18.232 103.828c.201 1.132.05 2.005-.465 2.628-.516.616-1.295.924-2.314.924h-14.07a2.522 2.522 0 0 1-1.848-.773c-.516-.516-.88-1.025-1.082-1.547l-9.116-58.556h-.465l-27.034 60.719c-.415 1.138-1.295 1.704-2.628 1.704h-2.779c-1.245 0-2.112-.566-2.628-1.704l-27.348-60.719h-.465l-8.965 58.556c-.101.522-.415 1.031-.93 1.547s-1.132.773-1.848.773h-13.907c-2.263 0-3.244-1.182-2.93-3.552l18.383-103.828zM2118.516 1238.363c.101-.622.39-1.163.843-1.622.465-.465 1.106-.698 1.937-.698h2.477c1.232 0 2.1.516 2.615 1.547l34 72.928h.465l33.987-72.928c.515-1.031 1.396-1.547 2.628-1.547h2.477c.817 0 1.458.233 1.924.698.465.459.754 1 .855 1.622l18.232 103.828c.201 1.132.05 2.005-.465 2.628-.515.616-1.295.924-2.313.924h-14.07a2.522 2.522 0 0 1-1.848-.773c-.515-.516-.88-1.025-1.081-1.547l-9.116-58.556h-.465l-27.034 60.719c-.415 1.138-1.295 1.704-2.628 1.704h-2.779c-1.245 0-2.113-.566-2.628-1.704l-27.348-60.719h-.465l-8.965 58.556c-.101.522-.415 1.031-.931 1.547a2.52 2.52 0 0 1-1.848.773h-13.907c-2.263 0-3.244-1.182-2.93-3.552l18.381-103.828zM2241.337 1240.526c0-.824.289-1.521.855-2.087.566-.566 1.257-.849 2.087-.849h14.372c.817 0 1.521.283 2.087.849.566.566.843 1.264.843 2.087v102.282c0 .824-.277 1.521-.843 2.087-.566.566-1.27.849-2.087.849h-14.372c-.83 0-1.521-.283-2.087-.849-.566-.566-.855-1.264-.855-2.087v-102.282zM2287.848 1238.822c0-.824.289-1.49.855-2.005.566-.516 1.257-.773 2.087-.773h2.314c1.031 0 1.911.365 2.628 1.081l63.045 67.214h.302v-63.812c0-.824.289-1.521.855-2.087.566-.566 1.257-.849 2.087-.849h14.208c.83 0 1.521.283 2.087.849.566.566.855 1.264.855 2.087v103.979c0 .83-.289 1.496-.855 2.012-.566.516-1.258.773-2.087.773h-2.163c-1.031 0-1.899-.365-2.628-1.081l-63.347-69.841h-.302v66.44c0 .824-.289 1.521-.855 2.087-.566.566-1.258.849-2.087.849h-14.058c-.83 0-1.521-.283-2.087-.849-.566-.566-.855-1.264-.855-2.087v-103.987zM2399.101 1291.821c0-7.727 1.433-14.988 4.325-21.784 2.879-6.802 6.84-12.693 11.895-17.691 5.042-4.998 10.914-8.965 17.616-11.901 6.689-2.93 13.906-4.401 21.627-4.401 7.003 0 13.73 1.264 20.168 3.785a60.312 60.312 0 0 1 17.528 10.587c.616.616.956 1.339 1.006 2.163s-.226 1.54-.843 2.163l-9.581 10.04c-1.245 1.239-2.577 1.239-4.023 0-6.79-5.973-14.573-8.959-23.324-8.959-4.841 0-9.38.949-13.605 2.854-4.225 1.911-7.871 4.508-10.964 7.808-3.093 3.294-5.532 7.104-7.343 11.43-1.798 4.325-2.703 8.909-2.703 13.75 0 4.847.905 9.405 2.703 13.674 1.811 4.275 4.275 8.01 7.418 11.203 3.144 3.194 6.828 5.746 11.052 7.651s8.751 2.854 13.592 2.854c4.325 0 8.085-.484 11.279-1.465 3.194-.981 5.558-1.779 7.104-2.395v-13.133h-12.36c-.817 0-1.521-.258-2.087-.773s-.843-1.182-.843-2.005v-12.209c0-1.955.981-2.936 2.93-2.936h29.674c.817 0 1.484.283 1.999.849.516.572.78 1.264.78 2.087v39.557c0 1.025-.415 1.848-1.245 2.471-3.194 1.955-6.79 3.659-10.813 5.099-3.395 1.232-7.444 2.37-12.121 3.395-4.69 1.031-9.82 1.547-15.378 1.547-7.72 0-14.938-1.44-21.627-4.325-6.702-2.879-12.574-6.796-17.616-11.744-5.055-4.941-9.015-10.788-11.895-17.534-2.892-6.749-4.325-13.985-4.325-21.712zM2582.943 1347.29c-4.841 0-9.141-.434-12.901-1.301-3.76-.868-7.004-1.943-9.732-3.219-2.729-1.276-5.017-2.603-6.878-3.98-1.848-1.383-3.345-2.527-4.476-3.452-.83-.61-1.333-1.22-1.547-1.836-.201-.61.05-1.528.78-2.754l5.557-9.575c.616-1.132 1.471-1.723 2.552-1.773 1.082-.05 1.974.182 2.704.692a89.864 89.864 0 0 0 10.273 6.57c3.659 2.006 8.01 3.012 13.052 3.012 4.024 0 7.368-1.157 10.047-3.483 2.678-2.32 4.023-5.13 4.023-8.431 0-3.923-1.66-7.324-4.954-10.216-3.294-2.886-8.185-5.671-14.674-8.355a90.9 90.9 0 0 1-10.663-5.111c-3.495-1.955-6.614-4.275-9.342-6.96a32.02 32.02 0 0 1-6.576-9.286c-1.647-3.508-2.464-7.532-2.464-12.077 0-3.401.667-6.884 2.012-10.443 1.333-3.558 3.395-6.758 6.174-9.594 2.779-2.835 6.362-5.162 10.738-6.966s9.657-2.71 15.843-2.71c3.91 0 7.595.44 11.04 1.314 3.458.874 6.513 1.88 9.191 3.011 2.678 1.138 4.917 2.27 6.727 3.401 1.798 1.132 3.118 2.005 3.936 2.628.83.516 1.32 1.289 1.471 2.314.151 1.031-.025 1.962-.541 2.785l-5.872 8.802a5.683 5.683 0 0 1-2.477 2.087c-1.031.465-1.999.39-2.93-.233a182.007 182.007 0 0 0-9.971-5.79c-3.345-1.804-7.18-2.703-11.505-2.703-4.426 0-7.808 1.056-10.122 3.169-2.313 2.112-3.47 4.659-3.47 7.645 0 3.609 1.458 6.746 4.401 9.424 2.93 2.678 7.544 5.306 13.831 7.884a168.696 168.696 0 0 1 11.354 5.25c3.86 1.962 7.331 4.3 10.424 7.029a33.794 33.794 0 0 1 7.57 9.657c1.961 3.709 2.942 8.035 2.942 12.982 0 4.017-.83 7.852-2.477 11.511-1.647 3.653-4.011 6.897-7.104 9.732-3.093 2.835-6.828 5.099-11.203 6.796-4.377 1.705-9.294 2.553-14.763 2.553zM2631.314 1291.821c0-7.727 1.433-14.988 4.325-21.784 2.879-6.802 6.815-12.693 11.82-17.691 4.992-4.998 10.864-8.965 17.616-11.901 6.74-2.93 13.982-4.401 21.703-4.401 7.72 0 14.963 1.471 21.715 4.401 6.74 2.936 12.637 6.903 17.691 11.901 5.042 4.998 9.003 10.889 11.895 17.691 2.88 6.796 4.325 14.058 4.325 21.784 0 7.727-1.446 14.963-4.325 21.709-2.892 6.746-6.853 12.618-11.895 17.616-5.055 4.992-10.952 8.934-17.691 11.819-6.752 2.879-13.995 4.325-21.715 4.325-7.72 0-14.963-1.446-21.703-4.325-6.752-2.886-12.624-6.828-17.616-11.819-5.004-4.998-8.94-10.87-11.82-17.616-2.891-6.746-4.325-13.982-4.325-21.709zm20.081 0c0 4.841.93 9.424 2.779 13.749 1.861 4.325 4.376 8.091 7.57 11.279 3.194 3.194 6.953 5.721 11.279 7.576 4.325 1.848 8.915 2.779 13.756 2.779 4.841 0 9.43-.931 13.756-2.779 4.325-1.855 8.11-4.382 11.354-7.576 3.244-3.188 5.796-6.953 7.645-11.279 1.861-4.325 2.779-8.909 2.779-13.749 0-4.841-.918-9.424-2.779-13.75-1.848-4.325-4.401-8.116-7.645-11.36-3.244-3.244-7.029-5.815-11.354-7.72-4.325-1.905-8.915-2.86-13.756-2.86-4.841 0-9.43.956-13.756 2.86-4.325 1.905-8.085 4.476-11.279 7.72-3.194 3.244-5.709 7.035-7.57 11.36-1.849 4.326-2.779 8.909-2.779 13.75zM2755.996 1291.821c0-7.727 1.434-14.988 4.325-21.784 2.879-6.802 6.815-12.693 11.819-17.691 4.992-4.998 10.864-8.965 17.616-11.901 6.74-2.93 13.982-4.401 21.702-4.401 7.72 0 14.963 1.471 21.715 4.401 6.74 2.936 12.637 6.903 17.691 11.901 5.042 4.998 9.003 10.889 11.895 17.691 2.879 6.796 4.325 14.058 4.325 21.784 0 7.727-1.446 14.963-4.325 21.709-2.892 6.746-6.853 12.618-11.895 17.616-5.054 4.992-10.952 8.934-17.691 11.819-6.752 2.879-13.995 4.325-21.715 4.325-7.72 0-14.963-1.446-21.702-4.325-6.752-2.886-12.624-6.828-17.616-11.819-5.004-4.998-8.94-10.87-11.819-17.616-2.891-6.746-4.325-13.982-4.325-21.709zm20.08 0c0 4.841.931 9.424 2.779 13.749 1.861 4.325 4.375 8.091 7.569 11.279 3.194 3.194 6.953 5.721 11.279 7.576 4.325 1.848 8.915 2.779 13.756 2.779 4.841 0 9.43-.931 13.756-2.779 4.325-1.855 8.11-4.382 11.354-7.576 3.244-3.188 5.797-6.953 7.645-11.279 1.861-4.325 2.779-8.909 2.779-13.749 0-4.841-.918-9.424-2.779-13.75-1.848-4.325-4.401-8.116-7.645-11.36-3.244-3.244-7.029-5.815-11.354-7.72-4.325-1.905-8.915-2.86-13.756-2.86-4.841 0-9.43.956-13.756 2.86-4.325 1.905-8.085 4.476-11.279 7.72-3.194 3.244-5.708 7.035-7.569 11.36-1.848 4.326-2.779 8.909-2.779 13.75zM2887.015 1238.822c0-.824.289-1.49.855-2.005.566-.516 1.257-.773 2.087-.773h2.314c1.031 0 1.911.365 2.628 1.081l63.045 67.214h.302v-63.812c0-.824.289-1.521.855-2.087.566-.566 1.257-.849 2.087-.849h14.208c.83 0 1.521.283 2.087.849.566.566.855 1.264.855 2.087v103.979c0 .83-.289 1.496-.855 2.012-.566.516-1.257.773-2.087.773h-2.163c-1.031 0-1.899-.365-2.628-1.081l-63.347-69.841h-.302v66.44c0 .824-.289 1.521-.855 2.087-.566.566-1.257.849-2.087.849h-14.058c-.83 0-1.521-.283-2.087-.849-.566-.566-.855-1.264-.855-2.087v-103.987z"/><path d="M1907.898 1492.62h-82.81c.445-1.062 1.087-2.075 1.877-3.014 5.559-6.448 9.363-13.884 10.524-22.951l1.878-14.181c1.309-10.228 10.845-18.603 21.147-18.454 13.81.173 26.261 8.4 31.894 21.048 4.2 9.487 8.4 18.948 12.525 28.485 1.36 3.162 2.323 6.127 2.965 9.067z" opacity=".05"/><path fill="#f28389" d="M1909.134 1520.363c-.272 7.98-7.461 13.934-15.342 12.699l-19.22-2.99a103.376 103.376 0 0 1-18.109-4.546c-5.88-2.075-11.562-4.645-16.997-7.757-5.929-3.385-7.486-11.389-3.014-16.577 4.916-5.707 8.276-12.278 9.314-20.307l1.655-12.55c1.161-9.042 9.586-16.453 18.702-16.33a31.344 31.344 0 0 1 28.213 18.627c3.73 8.399 7.436 16.774 11.092 25.199 3.656 8.424 4.002 15.342 3.706 24.532zM2826.914 1512.211a113.412 113.412 0 0 1-18.652 8.523 114.235 114.235 0 0 1-19.887 4.965l-21.123 3.31c-8.671 1.334-16.577-5.188-16.873-13.958-.272-8.424-.05-15.095 2.347-22.432a57.785 57.785 0 0 1 1.729-4.521c4.002-9.24 8.103-18.454 12.179-27.694 5.459-12.303 17.565-20.258 31.004-20.455 10.005-.123 19.245 8.004 20.554 17.936l1.803 13.81c1.062 8.202 4.323 14.971 9.141 20.925.321.469.717.914 1.087 1.359 4.893 5.707 3.213 14.501-3.309 18.232z"/><path d="M2847.518 1492.62h-18.38c-4.817-5.954-8.078-12.723-9.141-20.925l-1.803-13.81c-1.309-9.931-10.549-18.059-20.554-17.936-13.439.198-25.545 8.152-31.004 20.455-4.076 9.24-8.177 18.455-12.179 27.694a57.785 57.785 0 0 0-1.729 4.521h-2.396a64.81 64.81 0 0 1 3.039-8.647c4.916-11.364 9.956-22.679 14.971-34.018a42.272 42.272 0 0 1 38.07-25.125c12.278-.173 23.667 9.832 25.248 22.012l2.198 16.948c1.433 10.845 5.954 19.69 12.575 27.397.393.47.763.94 1.085 1.434z" opacity=".05"/><path fill="#f28389" d="M1670.56 1372.802a21.386 21.386 0 0 1-13.019 4.398 21.433 21.433 0 0 1-16.577-7.831l-22.778-28.658a47.104 47.104 0 0 0-22.753-15.663 42.6 42.6 0 0 0-3.953-1.087l-20.233-4.545a18.606 18.606 0 0 0 6.275-12.871l2.792-43.233 40.12 9.808a50.996 50.996 0 0 1 34.265 28.411l14.675 32.264 7.09 15.589c3.731 8.225 1.285 17.933-5.904 23.418zM3118.645 1352.742c-.688.528-1.377 1.056-2.02 1.652l-32.288 29.328-2.134 1.928a33.78 33.78 0 0 1-15.329 7.986l-60.285 13.7c-2.249.528-4.498.78-6.747.78-8.996 0-17.693-4.016-23.568-11.13-5.094-6.196-2.731-15.582 4.681-18.634l58.586-24.164c1.033-.436.895-1.974-.229-2.18l-20.998-4.199c-2.157-.459-4.131-1.446-5.714-2.869-1.583-1.446-2.823-3.282-3.465-5.416-.941-2.983 1.125-6.081 4.268-6.357l39.769-3.351a57.837 57.837 0 0 0 20.011-5.462l26.62-12.828 3.075-1.469 15.767 42.685z"/></svg>