<svg xmlns="http://www.w3.org/2000/svg" viewBox="0 0 1364 960"><path opacity="0" d="M949.819 598.405c12.369 13.889 34.456 2.351 51.607 5.596 17.167 3.249 35.611 23.464 29.612 44.622-6.61 23.315-33.327 17.28-33.327 52.071 0 34.124 90.313 15.899 136.95 16.576 114.285 1.658 124.532 137.918-8.397 132.771.003.004-892.875.927-895.961.806-19.532-.723-33.132-2.455-40.286-21.282-8.724-53.431-3.983-109.388-5.822-163.597.013-15.427.244-31.557 5.897-45.122 13.337-33.24 77.084-59.263 18.734-86.722-12.86-10.943-12.258-37.618-2.418-52.961 42.676-50.854 142.185-28.324 201.926-52.003 31.269-8.467 28.168-44.378-4.02-46.784-60.585-14.783-263.753 48.266-275.717-18.573-20.478-114.406 168.477-13.614 174.282-84.862 1.835-17.209-24.83-25.427-26.017-44.652-.599-42.732 42.599-58.306 75.679-66.451 35.042-8.163 71.492-7.57 107.292-6.856 36.549 1.015 289.736-1.717 377.776-.907 72.104 2.818 136.229-9.325 202.418 17.795 50.593 20.73 94.526 61.018 83.341 123.628-9.323 52.183-41.69 60.127-88.123 64.447-16.433 1.529-54.175 9.858-42.806 33.061 34.547 60.624 148.805-30.601 212.915 19.816 18.479 14.532 33.689 41.112 30.995 69.214-4.465 46.564-45.957 66.906-86.169 71.434-54.42 6.128-108.922 9.721-163.384 5.996-9.089-.621-18.623-1.288-26.813 3.882-8.173 5.161-17.512 20.811-10.164 29.057z"/><ellipse cx="682" cy="863.182" opacity="0" rx="585.482" ry="27.375"/><ellipse cx="528.295" cy="859.469" fill="#E4EFF5" rx="159.053" ry="12.301"/><ellipse cx="895.08" cy="857.41" fill="#E4EFF5" rx="159.053" ry="12.301"/><ellipse cx="1123.503" cy="860.522" fill="#E4EFF5" rx="41.57" ry="6.264"/><ellipse cx="233.055" cy="860.522" fill="#E4EFF5" rx="41.57" ry="6.264"/><path fill="#448ECC" d="m627.921 693.116-18.404 9.91-85.745-9.91c-.274-14.972-.408-24.098-.408-27.365 0-33.758 5.578-61.531 16.745-83.318 11.162-21.781 33.491-46.286 66.981-73.516 33.491-27.224 53.504-45.061 60.039-53.504 10.07-13.338 15.112-28.041 15.112-44.11 0-22.323-8.922-41.455-26.752-57.383-17.837-15.929-41.864-23.893-72.087-23.893-29.138 0-53.504 8.309-73.108 24.914-19.604 16.611-33.083 41.934-40.434 75.967l-18.404 9.91-86.969-22.979c2.993-48.737 23.752-90.121 62.285-124.161 38.525-34.033 89.1-51.053 151.729-51.053 65.891 0 118.303 17.224 157.244 51.665 38.934 34.448 58.404 74.537 58.404 120.281 0 25.323-7.148 49.286-21.442 71.883-14.295 22.604-44.863 53.37-91.691 92.304-24.238 20.154-39.279 36.35-45.131 48.603-5.858 12.252-8.513 34.172-7.964 65.755zM523.772 847.5l-18.404-104.857 18.404-9.91H638.54V847.5l-18.404 9.91-96.364-9.91z"/><path fill="#83b9fc" d="M609.517 703.026H505.368c-.274-14.972-.408-24.098-.408-27.365 0-33.758 5.578-61.531 16.746-83.318 11.162-21.781 33.491-46.286 66.981-73.516 33.491-27.224 53.504-45.061 60.039-53.504 10.07-13.338 15.112-28.041 15.112-44.11 0-22.323-8.922-41.455-26.752-57.384-17.837-15.929-41.864-23.893-72.087-23.893-29.138 0-53.504 8.309-73.108 24.914-19.604 16.611-33.083 41.934-40.435 75.967l-105.373-13.069c2.993-48.737 23.752-90.122 62.285-124.161 38.525-34.033 89.1-51.053 151.729-51.053 65.891 0 118.303 17.224 157.244 51.665 38.934 34.448 58.404 74.537 58.404 120.281 0 25.323-7.148 49.285-21.442 71.883-14.295 22.604-44.863 53.37-91.691 92.304-24.238 20.154-39.279 36.35-45.131 48.603-5.859 12.253-8.513 34.173-7.964 65.756zM505.368 857.41V742.643h114.768V857.41H505.368z"/><path fill="#F26D84" d="m365.76 185.541-8.951 9.623a258.933 258.933 0 0 1-2.563-2.314c-3.119-2.901-5.206-5.803-6.259-8.708-1.053-2.903-1.398-7.072-1.036-12.507.363-5.434.435-8.816.216-10.145-.367-2.077-1.292-3.806-2.777-5.187-2.062-1.918-4.597-2.738-7.601-2.46-3.005.279-5.805 1.815-8.403 4.607-2.504 2.692-3.83 5.657-3.981 8.896-.15 3.239 1.031 6.66 3.544 10.265l-10.263 8.612c-4.246-4.465-6.285-9.94-6.119-16.425.167-6.484 2.94-12.62 8.323-18.406 5.663-6.088 11.758-9.45 18.287-10.088 6.529-.637 11.906 1.01 16.132 4.941 2.34 2.176 3.939 4.896 4.799 8.159.86 3.263 1.076 8.732.648 16.404-.221 3.971-.017 6.753.612 8.347.629 1.593 2.426 3.722 5.392 6.386zm5.313 22.89-10.604-9.863 9.863-10.604 10.604 9.863-9.863 10.604z"/><path fill="#FCA768" d="m1100.305 635.901-12.863 2.693a276.114 276.114 0 0 1-.758-3.369c-.873-4.169-.902-7.744-.087-10.723.815-2.979 2.939-6.583 6.371-10.812 3.432-4.228 5.443-6.949 6.031-8.161.899-1.908 1.141-3.854.726-5.839-.577-2.757-2.174-4.889-4.788-6.395-2.615-1.506-5.788-1.868-9.521-1.087-3.599.753-6.393 2.41-8.385 4.968s-3.001 6.034-3.029 10.428l-13.352 1.111c-.891-6.097.603-11.745 4.482-16.945 3.878-5.199 9.684-8.609 17.419-10.229 8.138-1.704 15.056-.932 20.756 2.315 5.699 3.248 9.141 7.695 10.324 13.345.655 3.128.392 6.272-.789 9.432-1.181 3.161-4.161 7.752-8.937 13.771-2.472 3.116-3.911 5.505-4.317 7.17-.407 1.664-.168 4.44.717 8.327zm-8.871 21.76-2.968-14.174 14.174-2.968 2.968 14.174-14.174 2.968zM1155.914 641.291l-12.042-5.262c.725-1.745 1.17-2.807 1.335-3.185 1.705-3.903 3.754-6.833 6.146-8.788 2.391-1.955 6.211-3.66 11.459-5.117 5.248-1.456 8.463-2.507 9.645-3.153 1.838-1.034 3.164-2.479 3.976-4.337 1.128-2.581 1.063-5.244-.194-7.987-1.258-2.743-3.633-4.878-7.128-6.405-3.369-1.472-6.606-1.742-9.712-.813-3.106.93-5.944 3.177-8.513 6.741l-11.524-6.835c2.808-5.484 7.299-9.221 13.475-11.21 6.174-1.989 12.882-1.402 20.123 1.762 7.619 3.329 12.809 7.968 15.572 13.918 2.761 5.95 2.987 11.569.676 16.858-1.279 2.928-3.316 5.338-6.111 7.228-2.795 1.891-7.884 3.904-15.265 6.041-3.821 1.106-6.378 2.219-7.674 3.34-1.298 1.124-2.712 3.524-4.244 7.204zm-19.842 12.589 5.798-13.27 13.27 5.798-5.798 13.27-13.27-5.798z"/><path fill="#F26D84" d="m412.113 163.557-13.139.257a272.254 272.254 0 0 1-.119-3.451c-.083-4.259.552-7.777 1.907-10.553 1.354-2.775 4.111-5.922 8.269-9.44 4.158-3.517 6.639-5.817 7.442-6.898 1.237-1.708 1.837-3.575 1.798-5.602-.055-2.816-1.228-5.208-3.517-7.173-2.29-1.965-5.341-2.911-9.154-2.836-3.676.072-6.729 1.18-9.162 3.324-2.432 2.144-4.07 5.372-4.914 9.684l-13.326-1.389c.257-6.156 2.774-11.428 7.551-15.818 4.776-4.389 11.115-6.661 19.016-6.815 8.313-.163 14.967 1.881 19.965 6.13 4.997 4.25 7.552 9.259 7.665 15.03.063 3.195-.78 6.235-2.528 9.122-1.748 2.887-5.528 6.844-11.34 11.871-3.008 2.602-4.866 4.683-5.574 6.243-.707 1.559-.987 4.331-.84 8.314zm-12.758 19.734-.283-14.479 14.479-.283.283 14.479-14.479.283z"/><path fill="#448ECC" d="m901.633 693.116-29.816-303.868-18.404-130.588 18.404-9.91h124.161v140.499l-29.406 303.868-18.404 9.91-46.535-9.911zM876.718 847.5l-18.404-104.857 18.404-9.91h114.767V847.5l-18.404 9.91-96.363-9.91z"/><path fill="#83b9fc" d="m883.228 703.026-29.816-303.868V258.66h124.161v140.499l-29.406 303.868h-64.939zM858.314 857.41V742.643h114.767V857.41H858.314zM263.517 605.332a1.554 1.554 0 0 1 2.616-1.679 26.926 26.926 0 0 0 5.167 5.859c.657.554.738 1.534.183 2.19a1.552 1.552 0 0 1-2.19.182 29.986 29.986 0 0 1-5.765-6.535l-.011-.017zm-3.387-7.527a1.543 1.543 0 0 1-.189-.433c-.794-3.005-.986-5.977-.569-8.835a1.555 1.555 0 0 1 3.076.448c-.356 2.442-.188 4.997.498 7.592a1.555 1.555 0 0 1-2.816 1.228zm15.916 17.994a1.555 1.555 0 0 1 1.881-2.279c2.492.977 5.003 1.418 7.466 1.31a1.555 1.555 0 0 1 .136 3.106c-2.899.127-5.839-.385-8.738-1.523a1.546 1.546 0 0 1-.745-.614zm-13.456-33.855a1.553 1.553 0 0 1 .03-1.709 22.131 22.131 0 0 1 2.509-3.037 87.795 87.795 0 0 1 3.393-3.259 1.554 1.554 0 1 1 2.09 2.301 82.974 82.974 0 0 0-3.27 3.141c-.81.823-1.536 1.7-2.156 2.608a1.552 1.552 0 0 1-2.596-.045zm29.457 33.037a1.555 1.555 0 0 1 .566-2.195c.335-.183.669-.38 1.003-.591 1.741-1.102 3.397-2.554 4.925-4.316a1.555 1.555 0 0 1 2.193-.157 1.56 1.56 0 0 1 .157 2.193c-1.727 1.991-3.615 3.643-5.612 4.907-.39.247-.78.477-1.172.691a1.556 1.556 0 0 1-2.06-.532zm-17.377-44.299a1.553 1.553 0 0 1 .399-2.087 71.254 71.254 0 0 1 7.121-4.579 1.538 1.538 0 0 1 2.116.595c.42.749.153 1.695-.595 2.116a67.997 67.997 0 0 0-6.813 4.38 1.555 1.555 0 0 1-2.228-.425zm28.4 32.216a1.553 1.553 0 0 1-.029-1.616 86.209 86.209 0 0 0 3.787-7.196 1.554 1.554 0 1 1 2.821 1.308 88.99 88.99 0 0 1-3.924 7.457 1.555 1.555 0 0 1-2.655.047zm-13.974-40.282a1.551 1.551 0 0 1 .729-2.273 64.793 64.793 0 0 1 8.051-2.663 1.554 1.554 0 0 1 .779 3.009 61.864 61.864 0 0 0-7.663 2.534 1.553 1.553 0 0 1-1.896-.607zm20.818 25.241a1.55 1.55 0 0 1-.173-1.289 46.53 46.53 0 0 0 1.714-7.821 1.554 1.554 0 1 1 3.083.399 50.373 50.373 0 0 1-1.826 8.337 1.553 1.553 0 0 1-2.798.374zm2.078-16.338a1.546 1.546 0 0 1-.238-.75 51.151 51.151 0 0 0-1.071-7.951 1.556 1.556 0 0 1 1.196-1.845 1.558 1.558 0 0 1 1.845 1.196c.61 2.87.993 5.709 1.135 8.438a1.555 1.555 0 0 1-2.867.912zm-6.908-13.048a1.554 1.554 0 0 1 1.125-2.373 63.81 63.81 0 0 1 2.887-.289 1.538 1.538 0 0 1-.594-.78 95.16 95.16 0 0 0-2.989-7.577 1.554 1.554 0 0 1 .792-2.05 1.55 1.55 0 0 1 2.05.792 98.2 98.2 0 0 1 3.088 7.828c.21.611.015 1.263-.439 1.667 1.22-.06 2.445-.085 3.669-.078a1.554 1.554 0 1 1-.018 3.108 63.3 63.3 0 0 0-8.067.463 1.55 1.55 0 0 1-1.504-.711zm-3.054-18.277a1.53 1.53 0 0 1-.068-.119 195.198 195.198 0 0 0-3.937-7.213 1.553 1.553 0 0 1 .576-2.12c.744-.427 1.732-.168 2.12.577a194.722 194.722 0 0 1 4.001 7.33 1.554 1.554 0 0 1-2.692 1.545zm-26.333-42.149-.016-.026a141.033 141.033 0 0 1-4.13-7.292 1.554 1.554 0 0 1 .649-2.1 1.564 1.564 0 0 1 2.1.649 137.803 137.803 0 0 0 4.039 7.129 1.555 1.555 0 0 1-2.642 1.64zm4.511 6.95a1.554 1.554 0 0 1 2.596-1.71 732.658 732.658 0 0 1 4.66 6.878c.467.704.285 1.68-.429 2.156a1.555 1.555 0 0 1-2.156-.429 671.869 671.869 0 0 0-4.671-6.895zm13.619 20.802a367.899 367.899 0 0 0-4.41-7l-.007-.011a1.555 1.555 0 0 1 2.62-1.674 376.024 376.024 0 0 1 4.436 7.041 1.556 1.556 0 0 1-.511 2.138 1.557 1.557 0 0 1-2.128-.494zm-25.87-42.4a1.693 1.693 0 0 1-.102-.188 150.746 150.746 0 0 1-3.259-7.716 1.555 1.555 0 0 1 .884-2.013 1.565 1.565 0 0 1 2.013.884 145.787 145.787 0 0 0 3.191 7.556 1.555 1.555 0 0 1-2.727 1.477zm-6.023-15.44a1.566 1.566 0 0 1-.164-.348 156.963 156.963 0 0 1-2.396-8.023 1.553 1.553 0 1 1 3.001-.809 153.064 153.064 0 0 0 2.348 7.864 1.553 1.553 0 0 1-2.789 1.316zm59.672 90.599a1.543 1.543 0 0 1-.227-1.029 1.551 1.551 0 0 1 1.739-1.342c2.756.355 5.553.88 8.314 1.562a1.555 1.555 0 0 1-.746 3.018 71.306 71.306 0 0 0-7.965-1.498 1.549 1.549 0 0 1-1.115-.711zm-63.995-106.603a1.532 1.532 0 0 1-.206-.505 160.169 160.169 0 0 1-1.539-8.231 1.553 1.553 0 0 1 1.289-1.78 1.55 1.55 0 0 1 1.78 1.289c.432 2.697.94 5.413 1.509 8.071a1.554 1.554 0 0 1-2.833 1.156zm-2.616-16.371a1.567 1.567 0 0 1-.232-.667 155.427 155.427 0 0 1-.661-8.348 1.555 1.555 0 0 1 3.104-.162c.14 2.708.358 5.46.648 8.182a1.553 1.553 0 0 1-2.859.995zm82.676 126.924a1.554 1.554 0 0 1 1.845-2.292 84.635 84.635 0 0 1 7.775 3.286 1.553 1.553 0 1 1-1.351 2.799 81.252 81.252 0 0 0-7.488-3.166 1.531 1.531 0 0 1-.781-.627zm-83.527-143.48a1.54 1.54 0 0 1-.24-.838c.014-2.838.114-5.659.298-8.384a1.554 1.554 0 1 1 3.102.208c-.18 2.662-.277 5.417-.291 8.19a1.555 1.555 0 0 1-2.869.824zm98.441 150.663a1.553 1.553 0 0 1 2.118-2.16 91.076 91.076 0 0 1 6.999 4.703 1.554 1.554 0 1 1-1.852 2.496 88.215 88.215 0 0 0-6.758-4.542 1.536 1.536 0 0 1-.507-.497zm13.3 9.855a1.555 1.555 0 0 1 2.35-1.989 90.445 90.445 0 0 1 6.014 5.909 1.554 1.554 0 1 1-2.28 2.111 86.856 86.856 0 0 0-5.807-5.702c-.109-.1-.201-.21-.277-.329zm22.634 34.108a1.557 1.557 0 0 1-.178-.393 59.372 59.372 0 0 0-2.815-7.563 1.556 1.556 0 0 1 .78-2.056 1.557 1.557 0 0 1 2.056.78 62.669 62.669 0 0 1 2.961 7.96 1.554 1.554 0 0 1-2.804 1.272zM255.276 402.489a1.544 1.544 0 0 1-.225-1.043 97.9 97.9 0 0 1 1.497-8.292 1.553 1.553 0 1 1 3.03.69 95.229 95.229 0 0 0-1.449 8.027 1.554 1.554 0 0 1-2.853.618zm121.848 189.208a1.555 1.555 0 0 1 2.554-1.769 80.49 80.49 0 0 1 4.744 6.994c.443.735.205 1.69-.53 2.134-.735.443-1.666.216-2.134-.53a76.266 76.266 0 0 0-4.559-6.721 1.719 1.719 0 0 1-.075-.108zM259.023 386.36a1.552 1.552 0 0 1-.153-1.35c1.042-2.947 2.23-5.574 3.533-7.808a1.554 1.554 0 1 1 2.686 1.564c-1.205 2.067-2.311 4.516-3.288 7.279a1.552 1.552 0 0 1-2.778.315zM274.973 369.799l14.124-19.281-14.054-.514z"/><path fill="#83b9fc" d="m291.3 354.151 9.125-31.082-22.316 31.449zM300.409 323.023l-44.583 28.234 13.007.257z"/><path fill="#83b9fc" d="m300.425 323.069-22.273 31.574-3.179 15.156-6.289-18.379z"/><path fill="#F9CBCB" d="m538.154 229.738-3.191 12.384 39.767 38.7c.106.493.23.992.341 1.467 2.756 11.916 6.985 28.116 9.27 36.583 3.092 11.458 6.115 20.495 7.123 24.863 4.313 2.363 8.108 2.447 12.364 1.882-1.075-31.985-2.727-64.097-3.811-71.271-.158-.973-.487-2.029-.995-3.15-5.14-11.56-27.244-30.015-31.475-33.495l-.354-.285-.259-.203-.095-.083-28.685-7.392z"/><path fill="#F9CBCB" d="M507.211 257.231c5.845 14.971 34.09 29.655 41.058 35.704.287.249.512.288.512.288-2.112 18.281 5.422 39.459 11.368 58.775l-3.917 9.467 15.953-6.254c-1.472-11.088-1.719-25.518-.747-37.483 1.048-13.151 1.563-25.079.533-32.153-.193-1.275-.451-2.394-.802-3.328-4.338-11.478-27.406-34.626-27.406-34.626l-4.939-16.105-2.58-.944-21.788-7.978s-13.655 18.159-7.245 34.637z"/><path fill="#0D3663" d="M579.254 276.498c-3.026 1.062-6.132 2.15-9.158 3.345-9.45 3.69-18.183 8.308-21.528 15.475-8.64-13.684-57.973-24.195-43.52-64.436.053-.106.093-.173.093-.173l23.187-.664v-.106l27.242-4.595c17.176 16.061 43.389 37.706 43.45 45.85.001 0-9.812 1.837-19.766 5.304z"/><path fill="#09283F" d="M579.254 276.498c-3.026 1.062-6.132 2.15-9.158 3.345l-.013-.013s-13.631-14.52-15.728-18.953c.677.212 22.404 7.366 24.686 14.918.067.239.147.477.213.703z"/><path fill="#0D3663" d="m590.856 341.57-2.582 4.794a28.773 28.773 0 0 0-3.362 11.498l-.837 11.17 3.306.83 5.997-14.152 3.699 11.73c.853 2.708 2.936 4.87 5.631 5.765 7.771 2.579 22.718 5.764 24.366.792 1.718-5.182-13.158-8.394-16.348-15.106-3.089-6.501-6.683-14.914-6.683-14.914-3.552.646-7.963-.184-13.187-2.407zM559.889 351.238l-3.431 4.227a28.777 28.777 0 0 0-5.448 10.669l-2.907 10.818 3.093 1.432 8.532-12.785 1.445 12.215c.334 2.819 1.977 5.332 4.457 6.713 7.153 3.984 21.244 9.902 23.791 5.324 2.654-4.77-11.362-10.7-13.243-17.89-1.823-6.962-4.144-18.752-4.144-18.752-4.301.752-8.923 1.038-12.145-1.971zM480.455 162.036c1.947-12.704 12.525-17.466 19.781-23.447 9.945-8.198 8.629-13.243 17.883-30.209 3.629-6.652 9.737-10.515 18.58-6.862 8.293 3.426 10.181 14.47 4.093 21.583-6.088 7.113 12.102 19.347 10.993 28.821-1.611 13.769-19.924 11.771-26.853 23.075-4.584 4.122-1.818 18.365-6.711 20.905-4.893 2.54-20.654-4.477-27.689-9.314-6.453-4.435-11.65-14.294-10.077-24.552z"/><path fill="#F9CBCB" d="M536.471 140.378c13.81 9.015 22.934 21.565 33.06 34.293 6.041-10.213 12.769-20.879 15.326-32.308.743-3.318-2.286-7.276-1.07-9.388 2.815-4.887 4.206 2.389 5.066 2.543 2.047.365 2.482-19.137 6.676-9.96 4.193 9.178-8.306 63.971-21.499 66.519-13.562 2.619-23.937-8.44-34.337-15.241-1.171-12.386-2.323-24.199-3.222-36.458z"/><path fill="#0D3663" d="M585.902 148.527a79.781 79.781 0 0 1-3.947-1.176c-.317-.104-.417-.255-.322-.582 2.973-10.23 5.871-20.524 8.774-30.774.093-.328.258-.404.581-.318 1.305.35 2.669.754 3.954 1.172.318.103.418.258.327.587-2.853 10.267-5.756 20.561-8.782 30.778-.097.328-.263.4-.585.313z"/><path fill="#F9CBCB" d="M505.969 230.604c17.209-1.417 31.178-6.171 48.452-7.203-9.866-13.481-10.364-22.813-5.401-38.632 2.855-9.1 4.981-13.31 3.057-22.78-1.765-8.684-9.333-15.278-15.463-21.607-2.402-1.428-2.761-6.351-3.343-10.936-3.401-.726-3.857-.268-7.257-1.008-.134 5.88-.773 10.113-3.454 11.198-14.668 9.284-10.289 26.709-9.181 41.386 1.333 17.68-1.452 33.143-7.41 49.582z"/><path fill="#FCA768" d="M504.427 231.431c3.411-.02 8.078.301 11.264.502 15.023.945 26.661-2.463 40.705-7.122-5.676-15.882-9.951-22.759-5.505-40.792 4.847-19.663 5.679-31.088-14.42-43.641 5.407 15.579-9.666 3.607-13.933-.704-8.284 1.672-13.816 6.242-19.468 12.218 2.006 5.052 4.464 6.27 6.378 12.284 1.137 3.572 3.69 11.695 3.933 16.517.915 18.077-2.172 34.058-8.954 50.738z"/><path fill="#E6E6E6" d="M504.379 231.456c3.839-.019 7.691.23 11.531.505 2.347-22.197 8.557-43.236 1.956-65.3-2.852-1.093-5.742-2.321-8.575-3.31 1.348 5.142 3.78 12.099 4.046 17.101.992 18.623-3.036 33.814-8.958 51.004z"/><path fill="#F9CBCB" d="M503.07 151.069c16.967-13.98 18.887 14.97 12.427 24.483-2.634 5.977-9.157 16.984-11.043 20.575-.058.109-.095.175-.131.241.006-.004-.015.046-.099.222.598.047 1.32.301 1.895.455a5.36 5.36 0 0 1 1.28.342c8.469 2.279 16.35 4.715 24.31 6.787 4.502 1.145 29.486 2.675 18.174 17.455-2.904 3.702-13.718-4.32-17.291-6.127-10.886-.665-22.602-.195-33.764-2.581-.65.027-1.316-.022-1.996-.243a6.927 6.927 0 0 1-1.144-.493c-.119-.032-.24-.052-.359-.084l.063-.108-.001-.001-.064.111c-3.502-1.341-8.574-3.188-8.632-7.654 1.753-17.17 7.077-45.718 16.375-53.38z"/><path fill="#F2BDBD" d="M534.234 136.011c-3.768.213-6.591-1.4-8.396-3.987.091-1.108.148-2.308.171-3.587 3.404.742 3.861.286 7.265 1.005.286 2.263.514 4.604.96 6.569z"/><path fill="#F9CBCB" d="M534.449 134.169c3.544-.102 5.616-8.236 5.872-11.417.293-3.64 1.957-7.151-.855-9.854-4.541 1.184-7.594-.818-10.943-3.744.079 4.722-.533 8.464-4.491 11.413-.918-1.549-2.539-3.038-3.706-.773-.961 1.864.52 3.707 1.891 4.992 3.337 4.694 5.46 9.578 12.232 9.383zM864.452 665.862c-5.938 52.057-13.373 99.893-14.874 144.305-.295 8.718-2.23 17.367-2.83 25.527 0 0-9.572-1.076-10.646-1.028-.719-8.32-1.943-17.057-2.493-25.542-2.542-39.679-3.11-81.224-2.176-124.136l33.019-19.126z"/><path fill="#09283F" d="M864.755 656.996c17.644 25.954-16.316 80.882-13.435 153.89l-19.232-1.145c-2.542-39.679-1.589-81.842-.655-124.754l33.322-27.991zM847.052 833.937l2.87 9.114-1.631 14.217-2.811.16-2.668-12.412-4.472 8.293c-1.204 2.233-3.024 4.066-5.537 4.414-6.628.915-19.592 1.246-20.166-3.103-.59-4.47 11.978-4.767 15.608-9.716 3.515-4.794 7.737-11.062 7.737-11.062l11.07.095z"/><path fill="#F9CBCB" d="M850.508 630.352c61.566 63.319-34.651 82.635-33.44 99.513 1.211 16.878 20.095 42.305 21.885 46.293.703 4.491 1.207 13.251-3.751 11.336-2.777-3.361-5.149-4.996-9.773-7.01-.014-.006 4.426 1.272-1.48-.555-5.905-1.826-31.145-32.935-31.249-42.907-.291-27.591 27.854-45.163 38.957-63.676 11.102-18.513 9.8-27.752 18.851-42.994z"/><path fill="#0D3663" d="M850.272 630.266c21.463 12.362 23.269 34.249 20.833 46.755-5.733 29.43-51.204 43.765-50.204 56.831.213 2.778 10.177 27.616 15.724 34.497-2.975 4.263-11.154 13.273-11.796 13.338-9.304-7.177-34.653-32.262-35.238-43.7-1.441-28.167 48.028-82.387 60.681-107.721zM838.929 775.785c2.966.342 3.921-.174 7.357.455 3.438.628 9.345 2.469 13.242 3.37.011.978-.147 1.878-.198 2.824-4.204.3-8.435.551-12.617.883 2.332 1.597 5.262 4.078 7.469 5.517 2.208 1.44 3.487 4.19 3.583 6.048.251 4.902-.145 18.784-5.732 19.04-5.588.256-4.21-12.939-7.515-16.176-3.304-3.238-6.497-6.627-9.669-9.929 1.347-4.026 2.723-8.011 4.08-12.032z"/><path fill="#09283F" d="m771.698 556.11 4.385-2.668 19.853 32.63-4.384 2.667z"/><path fill="#F9CBCB" d="m843.732 565.53-.748 4.647-.326 32.09s1.177 2.123.157 5.406c-2.307 7.46-12.609 16.889-18.26 16.792-17.56-.3-38.35-30.997-38.35-30.997-4.589-2.24-10.408-12.385-9.17-19.094 2.646-14.26 6.077 5.123 12.843 6.28 1.494.271 3.82-6.063 4.779-3.793.991 2.263-.443 10.278-.443 10.278s28.064 15.889 28.652 15.823c.171-.03.923-3.019 2.228-7.304 2.686-8.937 7.839-23.597 15.406-28.615a10.35 10.35 0 0 1 3.232-1.513z"/><path fill="#D94559" d="m842.984 570.177 6.075 31.398s-5.517 12.062-6.535 15.345l-21.105-17.576c4.927-8.713 15.27-33.578 22.836-38.594l-1.271 9.427z"/><path fill="#0D3663" d="M828.915 543.993s-7.734-6.417-4.143-16.659c3.213-9.162 18.41-12.533 24.268-8.911 11.001 6.801 10.992 21.991 1.055 29.927l-21.18-4.357z"/><path fill="#F9CBCB" d="M874.581 573.605c4.719 16.635 3.319 26.515 3.505 41.043.581 11.216-7.34 29.121-12.825 42.366-10.064-1.851-23.19-2.301-33.258-4.141 0 0 25.637-29.504 19.264-43.888-11.647-27.186-7.012-48.235-7.012-48.235-.835-1.617-3.878-7.581-4.759-9.305l8.823-5.199c2.074 2.465 6.653 7.868 8.764 10.369 1.792 2.576 15.971 16.375 17.498 16.99z"/><path fill="#F26D84" d="M872.274 651.354c-.77 1.995-1.064 6.751-1.759 8.839-19.945.002-30.594 1.24-39.311-1.688-7.436-2.498 10.042-24.79 5.79-48.569-6.671-37.297 7.26-49.187 7.26-49.187.923 9.301 5.831 5.914 12.83-4.134 29.413 7.198 29.257 50.919 15.19 94.739z"/><path fill="#E6E6E6" d="M851.957 550.554c-2.725 3.888-6.514 6.422-8.954 7.758l-3.508-6.867 8.823-5.199 3.639 4.308z"/><path fill="#F9CBCB" d="M850.76 537.505s3.477-4.55.93-7.096c-2.903-2.903-6.778 4.219-6.778 4.219-5.393 1.787-9.779.56-15.785-2.781-1.39-.772-3.057.429-2.757 1.991 1.247 6.488 4.239 18.802 9.333 21.138 2.824 1.296 5.695.768 8.268-.513 5.629-2.803 6.818-16.368 6.789-16.958z"/><path fill="#0D3663" d="M846.199 517.338s2.195-9.841 10.029-5.933c7.962 3.972 3.827 12.549-1.571 13.132-5.399.582-8.458-7.199-8.458-7.199zM828.915 543.993s-.245-8.77-.848-12.541c0 0 1.697 6.135 11.042 7.616 7.139 1.131 7.627 8.41 7.627 8.41 1.133-6.019-.111-8.529-1.824-12.851l-3.26-5.378s-4.979-1.268-5.032-1.574c-.053-.307-9.632-.367-9.632-.367l-2.131 5.23 4.058 11.455z"/><path fill="#F9CBCB" d="M862.038 644.952c-4.464 6.525-27.109 27.057-33.023 33.252a2.916 2.916 0 0 0-.791 2.492c.303 1.925-.558 3.164-4.647 8.045-4.316 5.097 1.378 18.983-7.184 10.76-6.415-6.162-2.682-15.354 2.159-24.277l22.93-37.953s7.24-19.559 7.927-41.688c.14-4.529 12.256-18.752 22.373-3.125 5.353 8.268-7.442 49.13-9.744 52.494z"/><path fill="#D94559" d="m873.418 612.295-26.69-4.154s-4.514-46.253 16.425-40.265c14.455 4.133 14.461 26.282 10.265 44.419z"/><path fill="#FCA768" d="M502.938 505.278h-67.91c-6.967 0-12.615 5.648-12.615 12.615v33.503c0 6.967 5.648 12.615 12.615 12.615v9.942l12.257-9.942h55.653c6.967 0 12.615-5.648 12.615-12.615v-33.503c0-6.967-5.648-12.615-12.615-12.615z"/><path fill="#FFF" d="M431.255 533.166a5.098 5.098 0 1 1 10.196 0 5.098 5.098 0 0 1-10.196 0zM447.57 533.166a5.098 5.098 0 1 1 10.196 0 5.098 5.098 0 0 1-10.196 0zM463.884 533.166a5.098 5.098 0 1 1 10.197 0 5.098 5.098 0 0 1-10.197 0zM480.199 532.962a5.098 5.098 0 1 1 10.196 0 5.098 5.098 0 0 1-10.196 0zM496.514 532.962a5.098 5.098 0 1 1 10.196 0 5.098 5.098 0 0 1-10.196 0z"/><path fill="#F26D84" d="M966.763 392.589h-67.91c-6.967 0-12.615 5.648-12.615 12.615v33.503c0 6.967 5.648 12.615 12.615 12.615v9.942l12.257-9.942h55.653c6.967 0 12.615-5.648 12.615-12.615v-33.503c0-6.967-5.648-12.615-12.615-12.615z"/><path fill="#FFF" d="M895.08 420.477a5.098 5.098 0 1 1 10.196 0 5.098 5.098 0 0 1-10.196 0zM911.394 420.477a5.098 5.098 0 1 1 10.196 0 5.098 5.098 0 0 1-10.196 0zM927.709 420.477a5.098 5.098 0 1 1 10.196 0 5.098 5.098 0 0 1-10.196 0zM944.024 420.273a5.097 5.097 0 1 1 10.196 0 5.098 5.098 0 0 1-10.196 0zM960.339 420.273a5.098 5.098 0 1 1 10.196 0 5.098 5.098 0 0 1-10.196 0z"/><path fill="#83b9fc" d="M724.79 69.442h-67.91c-6.967 0-12.615 5.648-12.615 12.615v33.503c0 6.967 5.648 12.615 12.615 12.615v9.942l12.257-9.942h55.653c6.967 0 12.615-5.648 12.615-12.615V82.057c0-6.967-5.648-12.615-12.615-12.615z"/><path fill="#FFF" d="M653.107 97.33a5.098 5.098 0 1 1 10.196 0 5.098 5.098 0 0 1-10.196 0zM669.422 97.33a5.098 5.098 0 1 1 10.196 0 5.098 5.098 0 0 1-10.196 0zM685.737 97.33a5.098 5.098 0 1 1 10.196 0 5.098 5.098 0 0 1-10.196 0z"/><circle cx="707.15" cy="97.126" r="5.098" fill="#FFF"/><path fill="#FFF" d="M718.366 97.126a5.098 5.098 0 1 1 10.196 0 5.098 5.098 0 0 1-10.196 0z"/><path fill="#1F5794" d="M223.049 774.591c-7.875 2.726-14.838 4.91-22.044 3.532-5.599-1.07-10.174-8.372-10.174-8.372 7.724-1.818 9.806-5.911 9.806-5.911-3.154 1.771-9.088 1.383-9.088 1.383-4.853-1.941-5.095-13.587-5.095-13.587 4.61-.485 6.839-3.941 6.839-3.941-5.758.23-8.109-3.999-8.109-3.999-1.786-15.777 4.314-20.76 4.314-20.76 7.116-.795 18.426.626 20.661 5.072 0 0 2.032 7.468-1.451 11.254 0 0 5.085-2.168 5.994-5.5 0 0 7.269 3.029 7.118 8.026 0 0 .786 7.962-5.424 11.11 0 0 7.09-2.326 9.512-7.778 0 0 5.079 7.483 3.839 16.153-.962 6.726-6.698 13.318-6.698 13.318z"/><path fill="#0D3663" d="M196.04 736.553a56.342 56.342 0 0 0 7.629 17.717c3.583 5.469 8.248 9.803 12.828 14.402 2.385 2.395 4.63 4.919 6.393 7.815 1.751 2.879 3.047 6.008 3.964 9.247 1.588 5.611 1.902 11.466 2.164 17.263.282 6.229.523 12.635-.315 18.832-.123.907 1.265 1.299 1.389.383.738-5.454.65-11.027.472-16.515-.185-5.7-.378-11.537-1.537-17.135-1.343-6.489-4.076-12.553-8.41-17.594-4.423-5.143-9.813-9.327-13.872-14.802a55.226 55.226 0 0 1-9.314-19.997c-.218-.9-1.608-.518-1.391.384z"/><path fill="#1F5794" d="M248.763 771.977c7.875 2.726 14.838 4.91 22.045 3.532 5.599-1.07 10.174-8.372 10.174-8.372-7.723-1.817-9.806-5.911-9.806-5.911 3.154 1.771 9.089 1.383 9.089 1.383 4.853-1.941 5.095-13.587 5.095-13.587-4.61-.486-6.839-3.941-6.839-3.941 5.759.23 8.109-3.999 8.109-3.999 1.786-15.777-4.314-20.76-4.314-20.76-7.116-.795-18.426.626-20.661 5.072 0 0-2.033 7.468 1.451 11.254 0 0-5.085-2.168-5.994-5.5 0 0-7.27 3.029-7.118 8.026 0 0-.786 7.962 5.423 11.11 0 0-7.089-2.326-9.512-7.778 0 0-5.079 7.482-3.84 16.153.962 6.726 6.698 13.318 6.698 13.318z"/><path fill="#0D3663" d="M270.462 741.13a55.184 55.184 0 0 1-7.483 17.373c-3.515 5.367-8.11 9.599-12.603 14.111-4.528 4.547-8.061 9.609-10.118 15.729-1.876 5.582-2.439 11.418-2.58 17.273-.171 7.121.07 14.245.096 21.367.004.927 1.444.929 1.441 0-.023-6.291-.203-12.581-.138-18.873.062-6.009.371-12.01 2.076-17.81 1.874-6.377 5.307-11.669 9.951-16.373 4.368-4.425 8.909-8.54 12.451-13.699 3.887-5.662 6.695-12.037 8.297-18.713.215-.902-1.174-1.287-1.39-.385z"/><path fill="#3173B8" d="M254.211 796.221c6.442 5.286 12.217 9.748 19.454 10.954 5.623.936 12.445-4.328 12.445-4.328-6.615-4.382-7.149-8.943-7.149-8.943 2.345 2.755 8.046 4.447 8.046 4.447 5.225-.139 9.489-10.979 9.489-10.979-4.156-2.053-5.05-6.067-5.05-6.067 5.322 2.212 8.993-.941 8.993-.941 7.144-14.18 3.148-20.968 3.148-20.968-6.399-3.212-17.501-5.799-21.138-2.403 0 0-4.495 6.301-2.54 11.059 0 0-4.019-3.796-3.716-7.236 0 0-7.869.322-9.459 5.062 0 0-3.496 7.196 1.237 12.301 0 0-5.844-4.639-6.227-10.593 0 0-7.357 5.258-9.2 13.821-1.429 6.643 1.667 14.814 1.667 14.814z"/><path fill="#0D3663" d="M295.704 764.202a55.173 55.173 0 0 1-13.041 13.702c-5.157 3.815-10.933 6.193-16.712 8.868-5.823 2.696-10.892 6.219-14.942 11.247-3.694 4.586-6.245 9.865-8.406 15.308-2.628 6.621-4.871 13.387-7.315 20.076-.318.871 1.033 1.372 1.351.499 2.159-5.909 4.17-11.872 6.411-17.751 2.141-5.615 4.511-11.137 8.12-15.987 3.967-5.332 9.022-9.106 15.009-11.909 5.631-2.636 11.316-4.923 16.427-8.535 5.609-3.964 10.452-8.971 14.268-14.677.515-.77-.654-1.612-1.17-.841z"/><path fill="#3173B8" d="M219.596 797.298c-7.308 4.006-13.807 7.324-21.143 7.171-5.699-.118-11.431-6.552-11.431-6.552 7.311-3.084 8.678-7.469 8.678-7.469-2.813 2.274-8.729 2.884-8.729 2.884-5.109-1.102-7.297-12.543-7.297-12.543 4.464-1.25 6.083-5.029 6.083-5.029-5.639 1.191-8.664-2.586-8.664-2.586-4.401-15.256.78-21.189.78-21.189 6.882-1.974 18.271-2.466 21.218 1.543 0 0 3.253 7.023.453 11.339 0 0 4.651-2.988 4.989-6.425 0 0 7.673 1.77 8.36 6.722 0 0 2.107 7.718-3.488 11.861 0 0 6.6-3.48 8.077-9.26 0 0 6.259 6.527 6.488 15.283.178 6.792-4.374 14.25-4.374 14.25z"/><path fill="#0D3663" d="M186.602 764.317a56.374 56.374 0 0 0 10.485 16.19c4.447 4.792 9.772 8.285 15.057 12.053 2.752 1.962 5.388 4.075 7.61 6.636 2.208 2.545 4.01 5.414 5.455 8.453 2.505 5.266 3.794 10.987 5.022 16.657 1.32 6.094 2.63 12.369 2.84 18.62.031.914 1.465 1.069 1.434.145-.186-5.501-1.205-10.98-2.299-16.361-1.136-5.589-2.303-11.311-4.383-16.636-2.41-6.172-6.119-11.694-11.236-15.938-5.221-4.33-11.235-7.553-16.154-12.272a55.21 55.21 0 0 1-12.528-18.156c-.361-.853-1.667-.244-1.303.609z"/><path fill="#4E93DB" d="M237.608 786.862c8.318.507 15.612.737 22.182-2.528 5.104-2.537 7.547-10.801 7.547-10.801-7.928.327-11.035-3.055-11.035-3.055 3.514.857 9.126-1.113 9.126-1.113 4.152-3.175 1.252-14.457 1.252-14.457-4.571.773-7.647-1.956-7.647-1.956 5.608-1.328 6.734-6.033 6.734-6.033-2.524-15.676-9.74-18.834-9.74-18.834-7.067 1.148-17.578 5.56-18.535 10.443 0 0 .051 7.74 4.425 10.449 0 0-5.481-.72-7.252-3.684 0 0-6.187 4.873-4.696 9.645 0 0 1.385 7.88 8.212 9.241 0 0-7.454-.333-11.254-4.932 0 0-2.879 8.573.647 16.59 2.737 6.219 10.034 11.025 10.034 11.025z"/><path fill="#0D3663" d="M255.343 742.113a55.17 55.17 0 0 1-4.438 18.388c-2.557 5.883-6.369 10.832-10.035 16.039-3.693 5.247-6.32 10.834-7.313 17.213-.905 5.819-.473 11.666.379 17.46 1.036 7.047 2.479 14.028 3.709 21.043.16.913 1.581.671 1.42-.244-1.087-6.196-2.328-12.366-3.328-18.577-.955-5.933-1.665-11.9-.966-17.905.768-6.602 3.257-12.398 7.038-17.82 3.558-5.1 7.336-9.924 9.955-15.608 2.874-6.238 4.563-12.996 5.013-19.846.061-.925-1.373-1.069-1.434-.143z"/><path fill="#D94559" d="m254.745 828.941-.522 4.133-.692 5.483-.077.598-.854 6.728-.09.701-.832 6.589-.099.796-.832 6.553h-30.601l-.994-7.115-.598-4.282-.373-2.662-.607-4.358-.355-2.545-.621-4.435-.288-2.051-.576-4.133z"/><path fill="#D94559" d="M253.98 828.943H216.5c-2.515 0-4.554-1.663-4.554-3.714s2.039-3.714 4.554-3.714h37.48c2.515 0 4.554 1.663 4.554 3.714 0 2.052-2.039 3.714-4.554 3.714z"/><path fill="#E6E7E8" d="m215.735 828.942.782 5.609c17.84-1.434 32.569 10.183 34.23 25.971l3.997-31.58h-39.009z"/><path fill="#1F5794" d="M1113.496 774.591c-7.875 2.726-14.838 4.91-22.044 3.532-5.599-1.07-10.174-8.372-10.174-8.372 7.724-1.818 9.806-5.911 9.806-5.911-3.154 1.771-9.088 1.383-9.088 1.383-4.853-1.941-5.095-13.587-5.095-13.587 4.61-.485 6.839-3.941 6.839-3.941-5.758.23-8.109-3.999-8.109-3.999-1.786-15.777 4.314-20.76 4.314-20.76 7.115-.795 18.426.626 20.661 5.072 0 0 2.032 7.468-1.451 11.254 0 0 5.086-2.168 5.994-5.5 0 0 7.269 3.029 7.118 8.026 0 0 .786 7.962-5.423 11.11 0 0 7.089-2.326 9.512-7.778 0 0 5.079 7.483 3.839 16.153-.963 6.726-6.699 13.318-6.699 13.318z"/><path fill="#0D3663" d="M1086.487 736.553a56.342 56.342 0 0 0 7.629 17.717c3.583 5.469 8.248 9.803 12.828 14.402 2.385 2.395 4.63 4.919 6.393 7.815 1.751 2.879 3.047 6.008 3.964 9.247 1.588 5.611 1.902 11.466 2.164 17.263.282 6.229.523 12.635-.315 18.832-.123.907 1.265 1.299 1.389.383.738-5.454.65-11.027.472-16.515-.185-5.7-.378-11.537-1.537-17.135-1.343-6.489-4.076-12.553-8.41-17.594-4.422-5.143-9.813-9.327-13.872-14.802a55.226 55.226 0 0 1-9.314-19.997c-.218-.9-1.608-.518-1.391.384z"/><path fill="#1F5794" d="M1139.21 771.977c7.875 2.726 14.838 4.91 22.045 3.532 5.599-1.07 10.174-8.372 10.174-8.372-7.724-1.817-9.806-5.911-9.806-5.911 3.154 1.771 9.089 1.383 9.089 1.383 4.853-1.941 5.095-13.587 5.095-13.587-4.61-.486-6.839-3.941-6.839-3.941 5.759.23 8.109-3.999 8.109-3.999 1.786-15.777-4.314-20.76-4.314-20.76-7.115-.795-18.426.626-20.661 5.072 0 0-2.033 7.468 1.451 11.254 0 0-5.085-2.168-5.994-5.5 0 0-7.27 3.029-7.118 8.026 0 0-.786 7.962 5.423 11.11 0 0-7.089-2.326-9.512-7.778 0 0-5.079 7.482-3.839 16.153.961 6.726 6.697 13.318 6.697 13.318z"/><path fill="#0D3663" d="M1160.909 741.13a55.184 55.184 0 0 1-7.483 17.373c-3.515 5.367-8.11 9.599-12.603 14.111-4.528 4.547-8.061 9.609-10.119 15.729-1.876 5.582-2.439 11.418-2.58 17.273-.171 7.121.07 14.245.096 21.367.004.927 1.444.929 1.441 0-.023-6.291-.203-12.581-.139-18.873.062-6.009.371-12.01 2.076-17.81 1.874-6.377 5.307-11.669 9.951-16.373 4.368-4.425 8.909-8.54 12.451-13.699 3.887-5.662 6.695-12.037 8.297-18.713.217-.902-1.172-1.287-1.388-.385z"/><path fill="#3173B8" d="M1144.658 796.221c6.442 5.286 12.217 9.748 19.454 10.954 5.623.936 12.445-4.328 12.445-4.328-6.615-4.382-7.15-8.943-7.15-8.943 2.345 2.755 8.046 4.447 8.046 4.447 5.225-.139 9.489-10.979 9.489-10.979-4.156-2.053-5.05-6.067-5.05-6.067 5.322 2.212 8.992-.941 8.992-.941 7.144-14.18 3.148-20.968 3.148-20.968-6.399-3.212-17.501-5.799-21.138-2.403 0 0-4.495 6.301-2.54 11.059 0 0-4.019-3.796-3.716-7.236 0 0-7.869.322-9.459 5.062 0 0-3.496 7.196 1.237 12.301 0 0-5.844-4.639-6.227-10.593 0 0-7.357 5.258-9.2 13.821-1.427 6.643 1.669 14.814 1.669 14.814z"/><path fill="#0D3663" d="M1186.151 764.202a55.173 55.173 0 0 1-13.041 13.702c-5.157 3.815-10.934 6.193-16.712 8.868-5.823 2.696-10.892 6.219-14.943 11.247-3.694 4.586-6.245 9.865-8.406 15.308-2.628 6.621-4.871 13.387-7.315 20.076-.318.871 1.033 1.372 1.351.499 2.159-5.909 4.17-11.872 6.411-17.751 2.141-5.615 4.511-11.137 8.12-15.987 3.967-5.332 9.022-9.106 15.009-11.909 5.631-2.636 11.316-4.923 16.427-8.535 5.609-3.964 10.452-8.971 14.268-14.677.516-.77-.653-1.612-1.169-.841z"/><path fill="#3173B8" d="M1110.043 797.298c-7.308 4.006-13.807 7.324-21.143 7.171-5.699-.118-11.432-6.552-11.432-6.552 7.311-3.084 8.678-7.469 8.678-7.469-2.813 2.274-8.729 2.884-8.729 2.884-5.109-1.102-7.297-12.543-7.297-12.543 4.464-1.25 6.083-5.029 6.083-5.029-5.639 1.191-8.664-2.586-8.664-2.586-4.401-15.256.78-21.189.78-21.189 6.882-1.974 18.271-2.466 21.218 1.543 0 0 3.253 7.023.453 11.339 0 0 4.651-2.988 4.989-6.425 0 0 7.673 1.77 8.36 6.722 0 0 2.107 7.718-3.488 11.861 0 0 6.6-3.48 8.077-9.26 0 0 6.259 6.527 6.488 15.283.179 6.792-4.373 14.25-4.373 14.25z"/><path fill="#0D3663" d="M1077.049 764.317a56.374 56.374 0 0 0 10.485 16.19c4.447 4.792 9.772 8.285 15.057 12.053 2.752 1.962 5.388 4.075 7.61 6.636 2.208 2.545 4.01 5.414 5.455 8.453 2.505 5.266 3.794 10.987 5.022 16.657 1.32 6.094 2.63 12.369 2.84 18.62.031.914 1.465 1.069 1.434.145-.186-5.501-1.205-10.98-2.299-16.361-1.136-5.589-2.303-11.311-4.383-16.636-2.41-6.172-6.119-11.694-11.235-15.938-5.221-4.33-11.235-7.553-16.154-12.272a55.21 55.21 0 0 1-12.528-18.156c-.362-.853-1.668-.244-1.304.609z"/><path fill="#4E93DB" d="M1128.055 786.862c8.318.507 15.612.737 22.182-2.528 5.104-2.537 7.547-10.801 7.547-10.801-7.928.327-11.035-3.055-11.035-3.055 3.515.857 9.126-1.113 9.126-1.113 4.152-3.175 1.252-14.457 1.252-14.457-4.571.773-7.647-1.956-7.647-1.956 5.608-1.328 6.734-6.033 6.734-6.033-2.524-15.676-9.74-18.834-9.74-18.834-7.067 1.148-17.579 5.56-18.535 10.443 0 0 .052 7.74 4.425 10.449 0 0-5.481-.72-7.252-3.684 0 0-6.187 4.873-4.696 9.645 0 0 1.385 7.88 8.212 9.241 0 0-7.454-.333-11.254-4.932 0 0-2.879 8.573.647 16.59 2.737 6.219 10.034 11.025 10.034 11.025z"/><path fill="#0D3663" d="M1145.791 742.113a55.17 55.17 0 0 1-4.438 18.388c-2.557 5.883-6.369 10.832-10.035 16.039-3.693 5.247-6.32 10.834-7.313 17.213-.905 5.819-.473 11.666.379 17.46 1.036 7.047 2.479 14.028 3.709 21.043.16.913 1.581.671 1.42-.244-1.087-6.196-2.328-12.366-3.328-18.577-.955-5.933-1.665-11.9-.966-17.905.768-6.602 3.257-12.398 7.038-17.82 3.558-5.1 7.336-9.924 9.955-15.608 2.874-6.238 4.563-12.996 5.013-19.846.06-.925-1.374-1.069-1.434-.143z"/><path fill="#D94559" d="m1145.192 828.941-.521 4.133-.693 5.483-.076.598-.855 6.728-.09.701-.832 6.589-.099.796-.832 6.553h-30.601l-.994-7.115-.598-4.282-.373-2.662-.607-4.358-.355-2.545-.621-4.435-.288-2.051-.576-4.133z"/><path fill="#D94559" d="M1144.427 828.943h-37.48c-2.515 0-4.554-1.663-4.554-3.714s2.039-3.714 4.554-3.714h37.48c2.516 0 4.554 1.663 4.554 3.714 0 2.052-2.039 3.714-4.554 3.714z"/><path fill="#E6E7E8" d="m1106.182 828.942.782 5.609c17.84-1.434 32.569 10.183 34.23 25.971l3.997-31.58h-39.009z"/><path fill="#1F5794" d="M913.177 191.66c-5.778 2-10.887 3.603-16.175 2.592-4.108-.785-7.465-6.143-7.465-6.143 5.667-1.334 7.195-4.337 7.195-4.337-2.314 1.3-6.669 1.015-6.669 1.015-3.561-1.424-3.739-9.97-3.739-9.97 3.383-.356 5.018-2.891 5.018-2.891-4.225.169-5.95-2.934-5.95-2.934-1.311-11.577 3.166-15.233 3.166-15.233 5.221-.583 13.52.459 15.16 3.721 0 0 1.491 5.48-1.065 8.258 0 0 3.732-1.591 4.398-4.035 0 0 5.334 2.222 5.223 5.889 0 0 .576 5.842-3.979 8.152 0 0 5.202-1.707 6.98-5.707 0 0 3.727 5.49 2.817 11.852-.707 4.934-4.915 9.771-4.915 9.771z"/><path fill="#0D3663" d="M893.359 163.75a41.362 41.362 0 0 0 5.598 13c2.629 4.013 6.052 7.193 9.412 10.568 1.75 1.757 3.398 3.609 4.691 5.735 1.285 2.113 2.236 4.409 2.909 6.785 1.165 4.117 1.396 8.413 1.588 12.666.207 4.57.384 9.271-.231 13.818-.09.665.928.953 1.019.281.541-4.002.477-8.091.346-12.118-.136-4.182-.277-8.465-1.128-12.573-.986-4.761-2.991-9.211-6.171-12.909-3.245-3.773-7.2-6.843-10.179-10.861a40.512 40.512 0 0 1-6.834-14.672c-.16-.662-1.179-.382-1.02.28z"/><path fill="#1F5794" d="M932.044 189.742c5.778 2 10.887 3.603 16.175 2.592 4.108-.785 7.465-6.143 7.465-6.143-5.667-1.333-7.195-4.337-7.195-4.337 2.314 1.299 6.669 1.015 6.669 1.015 3.561-1.424 3.739-9.97 3.739-9.97-3.383-.356-5.018-2.891-5.018-2.891 4.225.169 5.95-2.934 5.95-2.934 1.311-11.577-3.165-15.233-3.165-15.233-5.221-.584-13.52.459-15.16 3.721 0 0-1.491 5.48 1.064 8.258 0 0-3.731-1.591-4.398-4.035 0 0-5.334 2.223-5.223 5.889 0 0-.576 5.842 3.979 8.152 0 0-5.202-1.707-6.98-5.707 0 0-3.727 5.49-2.817 11.852.707 4.934 4.915 9.771 4.915 9.771z"/><path fill="#0D3663" d="M947.966 167.108a40.499 40.499 0 0 1-5.491 12.747c-2.579 3.938-5.95 7.043-9.247 10.354-3.322 3.337-5.915 7.051-7.424 11.541-1.377 4.096-1.79 8.378-1.893 12.674-.125 5.225.052 10.452.071 15.678.003.68 1.06.682 1.057 0-.017-4.616-.149-9.232-.102-13.848.046-4.409.272-8.812 1.523-13.069 1.375-4.679 3.894-8.562 7.302-12.013 3.205-3.247 6.537-6.266 9.136-10.052a41.338 41.338 0 0 0 6.088-13.73c.158-.661-.861-.944-1.02-.282z"/><path fill="#3173B8" d="M936.042 207.532c4.727 3.879 8.964 7.153 14.274 8.037 4.126.687 9.132-3.175 9.132-3.175-4.854-3.215-5.246-6.562-5.246-6.562 1.721 2.021 5.904 3.263 5.904 3.263 3.834-.102 6.962-8.056 6.962-8.056-3.049-1.507-3.705-4.452-3.705-4.452 3.905 1.623 6.598-.69 6.598-.69 5.242-10.405 2.31-15.385 2.31-15.385-4.695-2.357-12.842-4.255-15.51-1.764 0 0-3.298 4.624-1.864 8.115 0 0-2.949-2.785-2.727-5.31 0 0-5.774.236-6.94 3.715 0 0-2.565 5.28.908 9.026 0 0-4.288-3.404-4.569-7.772 0 0-5.398 3.859-6.75 10.141-1.049 4.873 1.223 10.869 1.223 10.869z"/><path fill="#0D3663" d="M966.487 184.038a40.488 40.488 0 0 1-9.569 10.054c-3.784 2.799-8.023 4.544-12.262 6.507-4.273 1.978-7.992 4.563-10.964 8.252-2.711 3.365-4.582 7.238-6.168 11.232-1.928 4.858-3.574 9.823-5.367 14.731-.233.639.758 1.007.992.366 1.584-4.336 3.06-8.711 4.704-13.025 1.571-4.12 3.31-8.172 5.958-11.731 2.911-3.913 6.62-6.682 11.013-8.738 4.132-1.935 8.303-3.613 12.053-6.263a41.32 41.32 0 0 0 10.469-10.77c.378-.564-.48-1.181-.859-.615z"/><path fill="#3173B8" d="M910.643 208.322c-5.362 2.939-10.131 5.374-15.513 5.262-4.182-.087-8.388-4.807-8.388-4.807 5.364-2.263 6.368-5.48 6.368-5.48-2.064 1.669-6.405 2.116-6.405 2.116-3.749-.809-5.354-9.204-5.354-9.204 3.275-.917 4.464-3.69 4.464-3.69-4.137.874-6.357-1.897-6.357-1.897-3.229-11.194.572-15.548.572-15.548 5.05-1.449 13.406-1.809 15.569 1.132 0 0 2.387 5.153.332 8.32 0 0 3.413-2.193 3.661-4.714 0 0 5.63 1.298 6.134 4.933 0 0 1.546 5.663-2.559 8.703 0 0 4.843-2.553 5.926-6.795 0 0 4.593 4.789 4.761 11.214.129 4.982-3.211 10.455-3.211 10.455z"/><path fill="#0D3663" d="M886.434 184.122a41.367 41.367 0 0 0 7.694 11.88c3.263 3.516 7.17 6.079 11.048 8.844 2.019 1.44 3.954 2.99 5.584 4.869 1.62 1.868 2.942 3.973 4.003 6.203 1.838 3.864 2.784 8.061 3.685 12.222.968 4.471 1.93 9.076 2.084 13.662.023.671 1.075.784 1.052.107-.136-4.036-.884-8.057-1.687-12.005-.834-4.101-1.69-8.299-3.216-12.207-1.768-4.529-4.49-8.581-8.244-11.695-3.831-3.177-8.244-5.542-11.853-9.005a40.524 40.524 0 0 1-9.193-13.322c-.266-.626-1.224-.18-.957.447z"/><path fill="#4E93DB" d="M923.86 200.664c6.103.372 11.455.541 16.276-1.855 3.745-1.862 5.537-7.925 5.537-7.925-5.817.24-8.097-2.242-8.097-2.242 2.579.629 6.696-.817 6.696-.817 3.046-2.33.919-10.608.919-10.608-3.354.567-5.611-1.435-5.611-1.435 4.115-.974 4.941-4.427 4.941-4.427-1.852-11.502-7.146-13.819-7.146-13.819-5.185.842-12.898 4.08-13.6 7.662 0 0 .038 5.679 3.247 7.667 0 0-4.021-.528-5.321-2.703 0 0-4.539 3.575-3.446 7.077 0 0 1.017 5.782 6.026 6.781 0 0-5.469-.244-8.258-3.619 0 0-2.112 6.29.475 12.173 2.007 4.564 7.362 8.09 7.362 8.09z"/><path fill="#0D3663" d="M936.873 167.829a40.491 40.491 0 0 1-3.256 13.492c-1.876 4.317-4.673 7.948-7.363 11.769-2.71 3.85-4.638 7.949-5.366 12.63-.664 4.27-.347 8.56.278 12.811.76 5.171 1.819 10.293 2.721 15.44.118.67 1.16.492 1.042-.179-.797-4.547-1.708-9.074-2.442-13.631-.701-4.353-1.222-8.731-.709-13.138.563-4.844 2.39-9.097 5.164-13.075 2.61-3.742 5.383-7.282 7.304-11.452a41.326 41.326 0 0 0 3.678-14.562c.046-.679-1.007-.784-1.051-.105z"/><path fill="#EF8E4D" d="m936.434 231.54-.383 3.032-.508 4.023-.056.439-.627 4.937-.066.515-.61 4.834-.073.584-.611 4.808h-22.453l-.729-5.22-.439-3.142-.274-1.953-.446-3.198-.26-1.868-.456-3.254-.211-1.505-.422-3.032z"/><path fill="#EF8E4D" d="M935.872 231.542h-27.501c-1.845 0-3.342-1.22-3.342-2.725 0-1.505 1.496-2.725 3.342-2.725h27.501c1.846 0 3.342 1.22 3.342 2.725 0 1.505-1.496 2.725-3.342 2.725z"/><path fill="#E6E7E8" d="m907.81 231.54.574 4.116c13.09-1.052 23.897 7.472 25.116 19.056l2.932-23.172H907.81z"/><path fill="#83b9fc" d="m1054.938 417.198-18.281 11.515 11.644 5.103z"/><path fill="#83b9fc" d="m1036.012 424.927-18.002 23.098 29.214-19.023zM1018.008 448.069l46.865-8.92-10.849-4.539z"/><path fill="#83b9fc" d="m1018.01 448.025 29.219-19.143 7.709-11.684-.821 17.541zM719.235 203.264a1.5 1.5 0 0 1-.033-2.999c1.625-.037 3.285-.107 4.931-.211a1.5 1.5 0 1 1 .188 2.994c-1.686.106-3.386.178-5.051.216h-.035zM1077.02 411.224a1.5 1.5 0 0 1-1.09-2.529 106.218 106.218 0 0 0 6.463-7.52 1.5 1.5 0 1 1 2.365 1.845 109.063 109.063 0 0 1-6.646 7.733 1.498 1.498 0 0 1-1.092.471zm12.342-15.848a1.5 1.5 0 0 1-1.267-2.301 98.148 98.148 0 0 0 4.862-8.628 1.5 1.5 0 1 1 2.685 1.339 101.544 101.544 0 0 1-5.011 8.893 1.5 1.5 0 0 1-1.269.697zm8.967-17.973a1.501 1.501 0 0 1-1.402-2.032 104.067 104.067 0 0 0 3.063-9.426 1.5 1.5 0 0 1 2.893.791 106.936 106.936 0 0 1-3.151 9.698 1.5 1.5 0 0 1-1.403.969zm5.317-19.374a1.5 1.5 0 0 1-1.479-1.765 122.328 122.328 0 0 0 1.345-9.845 1.512 1.512 0 0 1 1.637-1.35 1.5 1.5 0 0 1 1.35 1.637 125.641 125.641 0 0 1-1.378 10.087 1.502 1.502 0 0 1-1.475 1.236zm1.95-20.01h-.035a1.5 1.5 0 0 1-1.465-1.534c.025-1.125.038-2.252.038-3.379 0-2.155-.047-4.371-.139-6.586a1.499 1.499 0 0 1 1.436-1.561c.834-.048 1.527.608 1.561 1.436.094 2.256.142 4.514.142 6.711 0 1.15-.013 2.3-.039 3.448a1.5 1.5 0 0 1-1.499 1.465zm-.815-20.101a1.5 1.5 0 0 1-1.491-1.353 204.619 204.619 0 0 0-1.229-9.916 1.5 1.5 0 1 1 2.968-.44c.505 3.403.924 6.788 1.247 10.062a1.5 1.5 0 0 1-1.495 1.647zm-2.929-19.91a1.502 1.502 0 0 1-1.472-1.217 279.441 279.441 0 0 0-2.07-9.793 1.5 1.5 0 1 1 2.924-.672 283.236 283.236 0 0 1 2.093 9.899 1.5 1.5 0 0 1-1.475 1.783zm-4.491-19.615a1.5 1.5 0 0 1-1.45-1.12 396.048 396.048 0 0 0-2.672-9.658 1.499 1.499 0 1 1 2.88-.836 393.236 393.236 0 0 1 2.693 9.732 1.5 1.5 0 0 1-1.451 1.882zm-5.588-19.333a1.5 1.5 0 0 1-1.431-1.053 656.038 656.038 0 0 0-3.07-9.562 1.5 1.5 0 1 1 2.85-.937 653.287 653.287 0 0 1 3.083 9.605 1.499 1.499 0 0 1-1.432 1.947zm-6.272-19.128a1.5 1.5 0 0 1-1.42-1.019c-.911-2.683-1.813-5.317-2.696-7.898l-.556-1.624a1.499 1.499 0 1 1 2.838-.972l.556 1.624c.885 2.583 1.788 5.221 2.699 7.906a1.5 1.5 0 0 1-1.421 1.983zm-6.491-19.058a1.5 1.5 0 0 1-1.422-1.024 526.563 526.563 0 0 1-2.841-8.692 87.985 87.985 0 0 1-.286-.921 1.5 1.5 0 0 1 2.871-.871c.09.295.182.591.276.888a530.915 530.915 0 0 0 2.826 8.644 1.5 1.5 0 0 1-1.424 1.976zM734.235 202.03a1.5 1.5 0 0 1-.206-2.986 142.162 142.162 0 0 0 9.787-1.734 1.5 1.5 0 1 1 .626 2.934 144.4 144.4 0 0 1-9.996 1.771c-.071.01-.141.015-.211.015zm339.339-.512c-.72 0-1.355-.52-1.478-1.253-.583-3.489-.89-6.937-.912-10.25a1.501 1.501 0 0 1 1.49-1.51h.01a1.5 1.5 0 0 1 1.5 1.49c.021 3.154.314 6.442.871 9.774a1.5 1.5 0 0 1-1.481 1.749zm-319.7-3.648a1.5 1.5 0 0 1-.403-2.945 181.561 181.561 0 0 0 9.525-2.961 1.499 1.499 0 1 1 .968 2.84 184.47 184.47 0 0 1-9.684 3.01 1.546 1.546 0 0 1-.406.056zm19.045-6.465a1.499 1.499 0 0 1-.552-2.895 246.437 246.437 0 0 0 9.222-3.87 1.499 1.499 0 1 1 1.215 2.743c-3.16 1.4-6.301 2.718-9.334 3.917a1.53 1.53 0 0 1-.551.105zm18.408-8.13a1.5 1.5 0 0 1-.655-2.851 366.526 366.526 0 0 0 8.959-4.495 1.5 1.5 0 1 1 1.381 2.663 370.783 370.783 0 0 1-9.033 4.532c-.21.103-.433.151-.652.151zm282.225-1.773a1.5 1.5 0 0 1-1.476-1.776 47.014 47.014 0 0 1 2.998-9.925 1.5 1.5 0 0 1 2.756 1.184 44.036 44.036 0 0 0-2.804 9.291 1.503 1.503 0 0 1-1.474 1.226zm45.914-1.846a1.5 1.5 0 0 1-.073-2.998c3.604-.178 6.542-1.039 8.733-2.559a1.5 1.5 0 0 1 1.71 2.464c-2.658 1.845-6.123 2.885-10.296 3.09a.897.897 0 0 1-.074.003zm-9.991-.87c-.096 0-.192-.009-.29-.028-3.056-.599-6.383-1.497-9.89-2.669a1.5 1.5 0 0 1 .951-2.845c3.385 1.131 6.586 1.996 9.516 2.57.813.16 1.343.948 1.184 1.761a1.503 1.503 0 0 1-1.471 1.211zm-300.282-4.749a1.5 1.5 0 0 1-.72-2.817 633.14 633.14 0 0 0 8.764-4.88 1.5 1.5 0 1 1 1.478 2.61 623.152 623.152 0 0 1-8.805 4.903 1.5 1.5 0 0 1-.717.184zm281.187-1.469a1.5 1.5 0 0 1-.589-.121 178.619 178.619 0 0 1-9.204-4.265 1.499 1.499 0 1 1 1.334-2.686 175.452 175.452 0 0 0 9.048 4.192 1.5 1.5 0 0 1-.589 2.88zm43.595-4.122a1.5 1.5 0 0 1-1.489-1.703c.084-.619.127-1.262.126-1.91 0-2.33-.533-4.79-1.542-7.116a1.5 1.5 0 1 1 2.752-1.194c1.171 2.7 1.791 5.574 1.791 8.31 0 .783-.051 1.563-.154 2.316a1.5 1.5 0 0 1-1.484 1.297zm-307.272-4.311a1.502 1.502 0 0 1-.755-2.798 1755.13 1755.13 0 0 0 8.683-5.079 1.498 1.498 0 0 1 2.053.533c.42.714.182 1.633-.533 2.053a1858.406 1858.406 0 0 1-8.697 5.087 1.49 1.49 0 0 1-.751.204zm245.643-.469c-.245 0-.493-.06-.722-.187a303.332 303.332 0 0 1-8.77-5.032 1.5 1.5 0 1 1 1.536-2.577 299.63 299.63 0 0 0 8.682 4.982 1.5 1.5 0 0 1-.726 2.814zm9.137-.453a1.5 1.5 0 0 1-1.195-2.404 41.915 41.915 0 0 1 7.256-7.46 1.5 1.5 0 0 1 1.873 2.343 38.853 38.853 0 0 0-6.736 6.925 1.496 1.496 0 0 1-1.198.596zm-237.409-9.273a1.5 1.5 0 0 1-.762-2.793c2.903-1.708 5.804-3.411 8.704-5.099a1.5 1.5 0 1 1 1.509 2.593 2148.74 2148.74 0 0 0-8.691 5.092 1.5 1.5 0 0 1-.76.207zm210.976-.55c-.274 0-.552-.075-.801-.233a446.56 446.56 0 0 1-8.465-5.499 1.502 1.502 0 0 1-.418-2.08 1.498 1.498 0 0 1 2.08-.417 445.481 445.481 0 0 0 8.408 5.462 1.5 1.5 0 0 1-.804 2.767zm71.153-2.475a1.49 1.49 0 0 1-.789-.225 9.32 9.32 0 0 0-.935-.509c-2.479-1.164-5.172-1.959-8.004-2.363a1.5 1.5 0 0 1 .424-2.97c3.127.446 6.106 1.326 8.856 2.617.417.196.834.423 1.239.674a1.5 1.5 0 0 1-.791 2.776zm-29.156-.12a1.5 1.5 0 0 1-.613-2.87 39.32 39.32 0 0 1 9.997-2.975 1.499 1.499 0 1 1 .462 2.964 36.33 36.33 0 0 0-9.234 2.749c-.2.09-.408.132-.612.132zm-235.551-6.973a1.501 1.501 0 0 1-.743-2.804 629.81 629.81 0 0 1 8.809-4.921 1.5 1.5 0 1 1 1.441 2.631 624.416 624.416 0 0 0-8.768 4.899 1.508 1.508 0 0 1-.739.195zm176.798-1.569c-.295 0-.593-.087-.854-.268a619.536 619.536 0 0 1-8.237-5.82 1.499 1.499 0 0 1-.342-2.093 1.497 1.497 0 0 1 2.093-.342 604.358 604.358 0 0 0 8.196 5.791 1.499 1.499 0 0 1-.856 2.732zm-159.133-8.086a1.5 1.5 0 0 1-.693-2.832 361.52 361.52 0 0 1 9.03-4.541 1.5 1.5 0 0 1 1.308 2.7 352.16 352.16 0 0 0-8.954 4.503c-.221.115-.458.17-.691.17zm142.638-3.436a1.49 1.49 0 0 1-.813-.241 146.015 146.015 0 0 0-8.537-5.124 1.5 1.5 0 1 1 1.453-2.624 149.479 149.479 0 0 1 8.713 5.229 1.5 1.5 0 0 1-.816 2.76zm-124.518-5.32a1.5 1.5 0 0 1-.607-2.873 233.61 233.61 0 0 1 9.346-3.896 1.5 1.5 0 1 1 1.092 2.794 231.225 231.225 0 0 0-9.226 3.847 1.509 1.509 0 0 1-.605.128zm106.919-4.395c-.209 0-.421-.044-.623-.137a119.447 119.447 0 0 0-9.193-3.76 1.5 1.5 0 1 1 1.016-2.823 122.42 122.42 0 0 1 9.426 3.854 1.5 1.5 0 0 1 .739 1.988 1.5 1.5 0 0 1-1.365.878zm-88.176-2.903a1.5 1.5 0 0 1-.473-2.923c3.27-1.087 6.54-2.068 9.718-2.915a1.5 1.5 0 1 1 .773 2.898 164.49 164.49 0 0 0-9.544 2.864 1.54 1.54 0 0 1-.474.076zm69.264-3.889a1.52 1.52 0 0 1-.381-.049 106.08 106.08 0 0 0-9.7-2.061 1.5 1.5 0 0 1 .485-2.961c3.329.545 6.685 1.258 9.975 2.119a1.5 1.5 0 0 1-.379 2.952zm-49.839-1.253a1.502 1.502 0 0 1-.282-2.974c3.377-.65 6.761-1.166 10.055-1.534a1.5 1.5 0 1 1 .333 2.981c-3.217.359-6.521.863-9.821 1.499a1.457 1.457 0 0 1-.285.028zm30.011-1.99-.103-.003a108.007 108.007 0 0 0-9.914-.21 1.487 1.487 0 0 1-1.537-1.462 1.5 1.5 0 0 1 1.462-1.537c3.393-.084 6.831-.012 10.191.216a1.5 1.5 0 0 1-.099 2.996zM1065.824 421.618a1.501 1.501 0 0 1-.951-2.662 121.307 121.307 0 0 0 3.763-3.201 1.5 1.5 0 0 1 1.99 2.244 124.656 124.656 0 0 1-3.854 3.28 1.49 1.49 0 0 1-.948.339z"/><path fill="#2C3773" d="M432.367 815.653s-29.787 4.406-29.279 4.111c.509-.295 54.517 27.404 54.517 27.404l53.216-23.844-26.385-7.671h-52.069z"/><path fill="#FFD8D9" d="M443.808 856.297c-.151.002-.302.003-.446.006l-.275.001c-7.579.087-12.527-.101-12.527-.101s-.363.081-1.027.218c-6.479 1.344-41.414 8-38.437-5.164 2.609-11.558 23.569-10.122 31.974-9.061.033 0 .058.005.083.011 2.097.268 3.39.504 3.39.504s4.171-1.793 10.752-4.346c.271-.107.55-.219.827-.325 21.681-8.414 67.281-24.364 79.084-14.779l-.001.006c.13.099.258.211.378.322.008-.005.019.004.023.017.126.118.244.241.362.364.104.1.205.213.297.336.038.035.075.081.111.128a7.998 7.998 0 0 1 .377.518c.124.189.24.384.35.584.104.192.194.387.276.587.192.433.338.895.445 1.382.106.494.195.977.253 1.454.109.854.153 1.681.114 2.492-.95 21.257-51.677 24.518-76.383 24.846z"/><path fill="#222B59" d="m444.201 858.775-.839-2.473-.364-1.078c-.005-.007-.004-.013-.004-.013l-5.699-16.846-.818-2.416c21.702-8.424 68.715-22.703 80.721-12.709l.005.007c.134.107.262.219.38.342.008-.005.019.004.023.017.126.118.244.241.362.364.104.1.205.213.297.336.038.035.075.081.111.128a7.998 7.998 0 0 1 .377.518c.124.189.24.384.35.584.104.192.194.387.276.587.192.433.338.895.445 1.382.106.494.195.977.253 1.454.109.854.153 1.681.114 2.492-.874 21.522-51.272 26.998-75.99 27.324zM426.53 842.769s-39.519-7.722-41.241 8.984c-1.85 17.947 45.259 4.51 45.259 4.51s-18.169 3.975-17.306-6.214c.834-9.859 13.288-7.28 13.288-7.28z"/><path fill="#FFD8D9" d="M485.251 774.95c-7.755 10.891-.819 40.703-.819 40.703h-52.066c1.439-2.04 5.492-27.735-3.639-41.9-14.735-22.85 1.141-40.616 1.141-40.616l21.653-3.936 1.382-6.893.949-4.748.223-1.104h9.739l.353 2.071.763 4.513 1.128 6.658 19.905 4.321c0-.001 17.048 15.98-.712 40.931z"/><path fill="#FF9557" d="M485.247 774.958c-7.758 10.89-.811 40.696-.811 40.696h-52.069c1.224-1.736 4.342-20.64-.398-34.945-.826-2.505-1.893-4.854-3.246-6.96-14.732-22.846 1.139-40.61 1.139-40.61l21.665-3.943c.831 4.845 12.644 4.56 14.533.498l19.9 4.327c-.001-.001 17.052 15.969-.713 40.937z"/><path fill="#C4626E" d="M432.367 815.653c1.224-1.736 4.342-20.64-.398-34.945 10.267-2.983 8.534 25.515 25.636 34.945h-25.238z"/><path fill="#FFD8D9" d="M513.566 797.61c-.541 3.373-2.917 7.032-6.434 10.647-8.996 9.238-27.318 8.825-39.887 12.184l-1.312-6.696s22.437-6.328 27.263-14.2c.512-.84.868-1.622 1.011-2.32 1.636-7.843-7.445-17.65-7.445-17.65l-.966-45.535s30.503 46.417 27.77 63.57z"/><path fill="#FF9557" d="M513.865 797.607c-.583 3.174-2.486 7.16-5.653 10.637a1.019 1.019 0 0 1-1.302.161l-3.856-2.505-10.11-6.552a7.29 7.29 0 0 0 .917-2.381c1.636-7.842-12.912-19.973-12.912-19.973l3.496-43.238c4.686-.211 12.385 10.483 18.777 23.594l.018.049c6.918 14.185 12.286 31.176 10.625 40.208z"/><path fill="#FFD8D9" d="m450.666 813.857.228 4.453c.402-.14.369-.724-.048-.81-11.201-2.314-29.61.888-38.574-6.725-5.523-4.697-8.539-10.48-9.251-14.935-2.733-17.153 27.019-62.668 27.019-62.668l-1.099 45.476s-9.081 9.808-7.445 17.651c.284 1.395 1.395 3.117 3.003 4.996 6.719 7.887 26.167 12.562 26.167 12.562z"/><path fill="#FF9557" d="M421.493 796.299c.285 1.395 2.189 2.616 3.794 4.494l-9.391 7.811-3.775 3.137c-5.523-4.699-8.766-10.712-9.981-15.058-1.878-6.689.794-18.12 5.3-29.47a.959.959 0 0 1 .031-.093c6.8-17.128 17.741-34.039 23.457-34.176l3.298 46.146c0 .001-14.369 9.368-12.733 17.209z"/><path fill="#FFD8D9" d="M524.319 849.786c3.136 13.383-32.494 6.896-39.105 5.58-.676-.134-1.048-.213-1.048-.213s-5.163.241-13.038.209l-.461-.001c-11.433-.059-28.345-.684-43.498-3.388-18.591-3.312-34.546-9.735-34.518-22.049.001-.027.003-.047-.001-.066.004-.502.034-1.009.095-1.53.004-.014.002-.02.001-.027.065-.535.154-1.075.267-1.628.106-.497.25-.969.442-1.411.082-.205.172-.405.276-.601.109-.204.226-.403.351-.598 0 0 .007-.001.005-.008.115-.179.244-.354.374-.522a.924.924 0 0 1 .112-.131c.092-.127.195-.243.299-.346.119-.126.239-.252.366-.373.003-.014.014-.023.022-.018 1.438-1.341 3.452-2.247 5.924-2.797 16.996-3.781 55.573 9.445 75.128 16.849.283.106.568.217.845.324 6.724 2.546 10.987 4.337 10.987 4.337s1.315-.253 3.449-.542c.025-.005.052-.005.084-.012 8.552-1.149 29.881-2.787 32.642 8.962z"/><path fill="#2C3773" d="m477.971 834.575-.813 2.467-6.029 18.32-.833 2.525c-10.376-.049-25.198-.954-39.109-3.533l-.008-.005c-20.256-3.752-38.599-11.051-38.527-24.424.001-.027.003-.047-.001-.066.004-.502.04-1.017.095-1.53.004-.014.002-.02.001-.027.065-.535.154-1.075.267-1.628.106-.497.25-.969.442-1.411.082-.205.172-.405.276-.601.109-.204.226-.403.351-.598 0 0 .007-.001.005-.008.115-.179.244-.354.374-.522a.924.924 0 0 1 .112-.131c.092-.127.195-.243.299-.346.119-.126.239-.252.366-.373.003-.014.014-.023.022-.018 1.486-1.432 3.607-2.427 6.215-3.054 17.479-4.266 56.978 7.578 76.495 14.963zM488.156 841.439s40.186-8.195 42.079 8.805c2.035 18.264-46.057 4.973-46.057 4.973s17.569 3.327 16.604-7.043c-.933-10.035-12.626-6.735-12.626-6.735z"/><path fill="#FFF" d="M494.803 775.477v42.736c0 2.3-1.866 4.166-4.166 4.166h-65.48a4.167 4.167 0 0 1-4.166-4.166v-42.736c0-2.3 1.866-4.166 4.166-4.166h65.48c2.3 0 4.166 1.866 4.166 4.166z"/><path fill="#D7E0FA" d="M451.376 796.845a6.52 6.52 0 1 1 13.042 0 6.52 6.52 0 0 1-13.042 0z"/><path fill="#D7E0FA" d="M494.803 775.477v42.736c0 2.3-1.866 4.166-4.166 4.166h-65.48a4.167 4.167 0 0 1-4.166-4.166c66.225 3.04 73.812-6.673 69.646-46.902 2.3 0 4.166 1.866 4.166 4.166z"/><path fill="#EB8041" d="M513.865 797.607c-.583 3.174-2.486 7.16-5.653 10.637a1.019 1.019 0 0 1-1.302.161l-3.856-2.505c2.027-3.515 5.017-6.303 6.421-11.745 3.759-14.564-5.72-35.498-6.235-36.757 6.918 14.186 12.286 31.177 10.625 40.209z"/><path fill="#222B59" d="M445.527 704.622s-7.802-8.36-1.473-19.467c0 0 1.912 3.463 4.18 2.507 0 0 .119-8.12 16.601-9.793 0 0-1.195 3.224-.597 4.061 5.434-2.389 10.707 3.542 16.004 1.313 0 0 1.463 9.41-4.628 14.903 0 0 .925 3.25-1.224 6.475-2.15 3.225-28.863.001-28.863.001z"/><path fill="#FFD8D9" d="M447.983 702.097s-3.56-3.481-3.895-.103c-.398 3.998 4.362 6.972 4.362 6.972s1.161 12.363 11.591 12.363c10.347 0 12.078-12.41 12.078-12.41s5.442-1.484 4.287-6.183c-.547-2.231-3.385.049-3.385.049v-5.872s-2.901 1.474-8.5-.927c-4.054-1.74-5.499-4.155-8.963-4.019-3.946.157-7.729 4.49-7.575 10.13z"/></svg>