<svg xmlns="http://www.w3.org/2000/svg" data-name="Layer 1" viewBox="0 0 1801.68 1200"><path fill="#b4cce6" fill-rule="evenodd" d="M900.84 1064.87c153.94 0 298.12.92 421.93 2.52-.38-6.27-.76-22.76 5.29-25.91 7.5-3.91 11.33 1.91 11.49 8.22.14 5.53.35 15.54.39 17.92h.3c2.4-4.32 19.6-34.69 31.17-39.88 12.45-5.59 15.8 4.71 13.41 12.29-1.85 5.86-17.56 21.19-24.61 27.87 226.11 3.3 375.31 9 375.31 15.39 0 10.18-373.7 18.43-834.68 18.43s-834.68-8.25-834.68-18.43c0-6.75 164.12-12.64 409-15.86-6.52-6.16-28.39-27.2-30.43-33.65-2.39-7.58 1-17.88 13.41-12.29s31.46 40.39 31.46 40.39.24-12.13.4-18.44 4-12.13 11.49-8.22c6.49 3.39 5.34 25.84 4.91 31.82 117.44-1.38 251.75-2.17 394.44-2.17Z"/><path opacity="0" fill-rule="evenodd" d="M1011.35 289.17s-254.39-79.83-446 16-259.68 206.45-239.46 316.08S450.42 854.35 658 865s394.88 23.42 519.41-123.46-6.39-404.47-166-452.36ZM1353 701.08c37.26 50.56 15.44 119.21-43.1 168.17s-96.85 20.75-120.8-10.64-11.18-102.18 43.64-148 120.26-9.53 120.26-9.53Zm4.26-407.66c49 33 83 187.33-19.69 199s-155.4-77.17-170.83-120.27 6.38-95.26 74-113.89 116.53 35.16 116.53 35.16ZM1553 561.69h54.82v24.08H1553v-24.08Zm29.8 27.94h54.82v24.08h-54.82v-24.08Zm30.34-27.94H1668v24.08h-54.81Z"/><path fill="none" stroke="#b4cce6" stroke-linecap="round" stroke-linejoin="round" stroke-width="4.53" d="M359.65 165h58.94a3.86 3.86 0 0 1 3.86 3.85v38.59a3.87 3.87 0 0 1-3.86 3.86H370l-20.36 13.17 6.12-17v-38.62a3.87 3.87 0 0 1 3.89-3.85Z"/><path fill="#b4cce6" fill-rule="evenodd" d="M389.39 184.59a3.93 3.93 0 1 1-3.93 3.92 3.91 3.91 0 0 1 3.93-3.92Zm-16.33 0a3.93 3.93 0 1 1-3.93 3.92 3.92 3.92 0 0 1 3.93-3.92Zm32.66 0a3.93 3.93 0 1 1-3.93 3.92 3.91 3.91 0 0 1 3.93-3.92Z"/><path fill="#ffa58d" fill-rule="evenodd" d="M443.65 277.1s-11.26-22.84-6.23-29.5 15.58-3.4 15.58-3.4 10.45-28.77 16.39-31.36 3.64 6.61 1 14-5.11 12.25-4.28 13.11c2.25-1.33 12-26.61 17.19-26.41s1.8 7.05-.73 13.71c-2.33 6.13-4.3 12.93-6.34 19.26s5.4-2.73 8.3.8-.58 8.31-.58 8.31 7.33-1 8.84 3.81-9.07 9.78-9.07 9.78a38.26 38.26 0 0 1-7.2 13.84 62.14 62.14 0 0 0-6.18 8.49c-5 12.94-42.51 83.77-42.81 84.34-11.57 15.49-23.32 28-31.93 30.84-23.15 7.75-52.08-8.65-72.82-29.43l-8.34-15.71s23.22-23.22 32.51-37.55q3.87 4.59 8.28 9.41c13.48 14.73 20.56 22.32 24.11 26.09 1.93-2.77 5.15-7.42 9-13s8.29-10.5 21.54-24.07c12-12.25 29.41-38.4 32.7-43.39Z"/><path fill="none" stroke="#cd665f" stroke-linecap="round" stroke-linejoin="round" stroke-width="2.26" d="M441.64 255.94s8.73 1.47 12.53 1.4 6.56-5.46 4.32-8.69a13 13 0 0 0-5.5-4.45M483.74 269.26s-6.38 3.75-11.12 1 6.25-10.72 5.4-11.2-6.81 4.67-12.15 2.91.8-6.36 3.28-9.68"/><path fill="none" stroke="#cd665f" stroke-linecap="round" stroke-linejoin="round" stroke-width="2.26" d="M459 280.56s-5.6-3.59-3.48-12.69 12.38-14.09 12.38-14.09"/><path fill="#ffa58d" fill-rule="evenodd" d="m167.77 1003.98-.56 28.93 33.77-.56 1.59-24.43-34.8-3.94zM504.57 921.16l14.79 28.78 30.42-14.67L536.37 907l-31.8 14.16z"/><path fill="#282737" fill-rule="evenodd" d="M325.27 495.14H167.58l-1.18 28c-.69 9.7-1.8 25.25-2.24 30.43-.65 7.71-.37 176.24-.29 186s-2.81 67.46-8 114.75 6.47 151.77 6.47 151.77l46 4.87 44.52-390s8-16.76 21.2-15.23c12.78 1.49 18.81 9.3 19.18 9.78l105.12 144.98s33.89 61.55 49 85.52 55.95 83.8 55.95 83.8l36.58-20.94S453.46 724 441 703.08c-51.26-86-96.72-116.92-115.7-207.94Zm-72.43 125.93Z"/><path fill="none" stroke="#5f5e7c" stroke-linecap="round" stroke-linejoin="round" stroke-width="2.26" d="M270.91 597l-3.51-51.41M254.47 546.15l2.53 26.42s.06 5.39 6.35 5.71 13.29-3.63 13.29-3.63M494 916.11l38.71-22.58M297.11 603.48L407.32 753.9s44.88 83.17 59.12 105.61 35.17 52.16 35.17 52.16M425.11 714.46l16.98-9.42"/><path fill="#3f96d1" fill-rule="evenodd" d="m532.71 998 105.51-48.74s-2.41-10-10.84-12.23-56.15-2.2-65.54-4.45-12.5-4.94-17.32-.91-8.15 10-16 11.44-11.8 1.1-13.3 5.09 4.77 17.18 7.94 26.89 9.55 22.91 9.55 22.91Z"/><path fill="#1e4864" fill-rule="evenodd" stroke="#5f5e7c" stroke-miterlimit="22.93" stroke-width=".23" d="m532.71 998 105.51-48.74a21.19 21.19 0 0 0-2.64-5.88L530 992.16c1.56 3.48 2.71 5.84 2.71 5.84Z"/><path fill="none" stroke="#1e4864" stroke-linecap="round" stroke-linejoin="round" stroke-width="2.26" d="M544.59 987.79s-3.54-14.89-11.25-22.06-16.05-6.65-16.05-6.65"/><path fill="none" stroke="#fff" stroke-linecap="round" stroke-linejoin="round" stroke-width="3.02" d="m599.25 941.66 4.65-6.49M590.86 941.32l4.65-6.49M582.61 941l4.65-6.49M574.21 940.62l4.65-6.49M565.29 940.08l4.65-6.49M558.27 939.3l4.65-6.49"/><path fill="#3f96d1" fill-rule="evenodd" d="M158 1082.14h71.09a21.52 21.52 0 0 0 .07-6.45 38.72 38.72 0 0 0-11.29-24.53c-10.91-10.52-10.38-9.72-14.9-21.69s-21.69-10.38-28.21-8.38-10.48 11.85-10.48 11.85c-4.06 15.32-5.72 38.46-6.28 49.2Z"/><path fill="#1e4864" fill-rule="evenodd" d="M158 1082.14h71.09a21.52 21.52 0 0 0 .07-6.45h-70.79c-.17 2.45-.3 4.63-.37 6.45Z"/><path fill="none" stroke="#fff" stroke-linecap="round" stroke-linejoin="round" stroke-width="3.02" d="M209.52 1053.75c-4.25-1.77-16.76-1.38-20.62.53M205.66 1046.1c-4.25-1.77-16.76-1.38-20.62.53M202.22 1038.58c-4.26-1.77-16.76-1.38-20.63.53M199.77 1031.41c-4.25-1.77-16.76-1.37-20.62.54"/><path fill="none" stroke="#5f5e7c" stroke-linecap="round" stroke-linejoin="round" stroke-width="2.26" d="M201.54 769.68s10.55 2.73 18.07 3.76 14.11 1.56 14.11 1.56M209.95 995.82l-49.16-5.21M176.65 594s-3.24 144.16-4.85 156.35-9.26 93.46-10.43 116.65-.22 53.6 1.38 74.8 3.12 49.38 3.12 49.38M218.27 548.28s-10.92 24.21-26.59 32.72-27.86 6.52-27.86 6.52"/><path fill="none" stroke="#fff" stroke-linecap="round" stroke-linejoin="round" stroke-width="4.53" d="M230.27 546.22c2.18 96.23-88.57 117.58-61.44-1.38"/><path fill="#5182b4" fill-rule="evenodd" d="M347 324.09c-9.81 15.12-23.18 27.47-35.59 40.31 6.64 56.15 19.52 112.15 27.34 168.35 0 0-18.48 19.43-53.79 26.26-42.69 12-103.21 13.85-128.67-2.47l-.52-15.17s-.91-65.57-4.55-114.33c0 0-2.79-22.35-4.47-51.1l-22.21-1.7-10.54-.81a331.48 331.48 0 0 1 5.67-38.08c13.37-60.44 28.39-75.83 84.56-85 45.74-7.47 86.43 6.46 114.81 36.93 4.51 4.6 31.62 30 31.62 30Z"/><path fill="#1e4864" fill-rule="evenodd" d="M347 324.09c-9.42 14.52-22.12 26.48-34.1 38.78l-3.14-8c13.61-17.07 22.09-28.26 32.05-45.81l8.84 8.29ZM147.09 381.94q-.19-3-.37-6l-22.21-1.7-10.51-.81s.45-5.4 1.44-13.11l55.56 4.57-2 12.75ZM196 251.8c2.65-.51 5.38-1 8.23-1.45 27-4.41 52.24-1.36 74.22 8.14-3.83 26.46-16.83 45.86-33.62 67.92-22.04-21.08-38.13-46.36-48.83-74.61Z"/><path fill="none" stroke="#1e4864" stroke-linecap="round" stroke-linejoin="round" stroke-width="2.26" d="M304.84 294.17a149.63 149.63 0 0 1 2.4 21.16c.53 12.1.53 18.09.53 18.09"/><path fill="none" stroke="#5f5e7c" stroke-linecap="round" stroke-linejoin="round" stroke-width="2.26" d="m368.4 373.09 8.94-11.5"/><path fill="#3b5f83" fill-rule="evenodd" d="M282.37 155.08s2.94-2.53 9.4-1.06A75 75 0 0 1 302 157s5.39 4.08 7.41 10 1.72 9 1.72 9l-37.49-.69Z"/><path fill="#cd665f" fill-rule="evenodd" d="M279 218.64s7.67-2 9.26-14.71-6.64-13.22-6.64-13.22Z"/><path fill="#ffa58d" fill-rule="evenodd" d="M214.44 157.89s10.73-16.72 38.44-12.77 32.3 21.47 31.25 32.69-2.28 31.87-2.83 40.08-4.94 20.15-9.4 23.31-10.48 3.72-10.48 3.72l-1.2 11.23c-.82 7.75-6.34 17.91-25 13.49-10.35-2.44-15.64-8.28-18.3-13a33.52 33.52 0 0 1-2.59-6.92l7.34-36.22s-14.76-2.83-18-13.09 4.33-14.92 4.33-14.92-2.61-13.18 6.44-27.6Z"/><path fill="#ea8a79" fill-rule="evenodd" d="M246.42 202.09c3.78.52 6.72 1.84 6.57 2.95s-3.34 1.6-7.12 1.08-6.72-1.83-6.57-3 3.34-1.55 7.12-1.03Z"/><path fill="none" stroke="#282737" stroke-linecap="round" stroke-linejoin="round" stroke-width="4.53" d="M248.38 182a19 19 0 0 1 6.49-2.12 24.57 24.57 0 0 1 6.2 0M269.58 180.45c3.95.28 7.61.82 10.38 3.92"/><path fill="none" stroke="#cd665f" stroke-linecap="round" stroke-linejoin="round" stroke-width="1.51" d="M209.39 191.44a26.74 26.74 0 0 1 6.93 6.14c3.38 4.17 3.71 7.08 3.71 7.08"/><path fill="none" stroke="#cd665f" stroke-linecap="round" stroke-linejoin="round" stroke-width="1.51" d="M209.27 199.36s2.82-1.33 4.23-1.8a16.3 16.3 0 0 1 2.3-.61M228.48 210.63c-1.66 1.34-4.66 3.16-6.85 2.87"/><path fill="#282737" fill-rule="evenodd" d="M219.23 191.33a16.57 16.57 0 0 0 1.19 1.18c.36.33.77.69 1.24 1.06a15.89 15.89 0 0 1 4 7.5c6.29-1.13 5.39-8.86 5.39-8.86a43 43 0 0 1-.83-4.86 5.38 5.38 0 0 1 .55-3c2.89.05 6.58-1.2 10.32-6 4.39-5.61 7.18-11.59 10.49-15.82 4.54 4.55 12.86 11.84 20.8 13.21a62 62 0 0 0 11.81.94c0 .37 0 .74-.08 1.09-.24 2.55-.49 5.6-.74 8.87 2.21-2.26 4.76-6.9 5.19-16.43.8-17.38-11.94-32.85-40-38.9a73.47 73.47 0 0 0-11.33-.87c-21.29 1.53-33.58 21.5-34.68 36.58-.78 10.75 1.07 17.55 2.62 21.21a11 11 0 0 1 2.82-2.78s5.24-2.84 11.26 5.84ZM208 185.49Z"/><path fill="#ea8a79" fill-rule="evenodd" d="m282.09 205.63-.26 4.06c-3.55-.56-6.25-1.82-6.1-2.89s2.92-1.53 6.36-1.17Z"/><path fill-rule="evenodd" d="m261.42 244.92-.74 7c-3.35.26-11 .28-17.52-4-8.58-5.65-10.5-14.53-9.51-14.44s5.51 4.82 11.77 8.22 16 3.22 16 3.22Z"/><path fill="none" stroke="#cd665f" stroke-linecap="round" stroke-linejoin="round" stroke-width="1.51" d="M252.23 219.76c.68 1.88 4.17 5.29 8 5.51"/><path fill="none" stroke="#282737" stroke-linecap="round" stroke-linejoin="round" stroke-width="2.11" d="M269.55 196.9c.2-1.28 1.06-4.66 4.4-5 4.12-.4 5.52 2.2 5.52 2.2M257.41 196.9c-.2-1.28-1.06-4.66-4.4-5-4.12-.4-5.52 2.2-5.52 2.2"/><path fill="none" stroke="#cd665f" stroke-linecap="round" stroke-linejoin="round" stroke-width="1.51" d="M265.06 187.8s2.73 11.25 4.46 12.73 5.66 2.51 5.55 3.3-6.8 5.56-6.8 5.56"/><path fill="#fff" fill-rule="evenodd" d="M255.57 212.26c.11 3.31 3.67 7.67 6.65 8l2.1-4.69Z"/><path fill="#3f96d1" fill-rule="evenodd" d="m202.77 178.94 64.59-2.94s6.86-13.39 18.75-17.21S302 157 302 157s-2.16-2.24-7.27-4.15a45.43 45.43 0 0 0-9.7-2.42s-6.55-26.22-35.05-26.43c-11.2-.08-22.57 2.15-31.77 7.34-25.52 15.51-15.44 47.6-15.44 47.6Z"/><path fill="#5182b4" fill-rule="evenodd" d="m202.77 178.94 20.8-.94s-7.26-13.23 0-33.19c7.13-19.53 26.59-20.74 27.45-20.78h-1.12c-11.2-.08-22.57 2.15-31.77 7.34-25.44 15.48-15.36 47.57-15.36 47.57Z"/><path fill="#5182b4" fill-rule="evenodd" d="m224.3 178 43.06-2s6.86-13.39 18.75-17.21S302 157 302 157s-2.16-2.24-7.27-4.15a45.43 45.43 0 0 0-9.7-2.42s-22.78-4.33-41.48 4.29A33.88 33.88 0 0 0 224.3 178Z"/><rect width="121.61" height="86.48" x="273.27" y="347.83" fill="#fff" rx="6.45"/><path fill="#282737" fill-rule="evenodd" d="M279.06 434.28a6.49 6.49 0 0 1-5.79-6.42v-73.58a6.49 6.49 0 0 1 5.79-6.42Z"/><path fill="#ffa58d" fill-rule="evenodd" d="M279.09 426.85c5.15-4.84 13.25-12.19 20.21-15.82s10.52-4.65 14-6.43 4.5-4.39-.84-4.81-11.46 1.29-12.9 1.29-1.92-1.68 3.22-4.94 10.83-3.78 15.67-5.14 7-5.76-3.71-6.36-20.73 7.26-20.89 4.62 6.74-7.88 14.46-9.92 11.27-.76 12.41-3-.45-4.84-10.75-5-21.41 7.57-22.17 7.57.91-5.07 6.73-9.84 13.1-7 15.07-9.76-2.65-5.45-13.55-.69-22.82 19.68-22.82 19.68v-6.66s-2.38.68-7.76 9.84c-3.63 6.19-4.27 13-4.79 17-30.46.9-62.2-5.17-92.45-9.35-.06-1.7.24-5.85.77-11.49l-44.53-3.4c-1.82 25.38-.2 51.91 18 61.4 22.66 11.8 133.29-8.25 136.46-8.83Z"/><path fill="none" stroke="#1e4864" stroke-linecap="round" stroke-linejoin="round" stroke-width="2.26" d="M177.29 306.33l-4.79 49.17M203.44 444.56s9.26 34.16 47.9 57.79 66.1 22.65 66.1 22.65M272.09 457.65l29.06 31.93"/><path fill="none" stroke="#92a6d4" stroke-linecap="round" stroke-linejoin="round" stroke-width="4.53" d="M385.26 502h58.94a3.88 3.88 0 0 1 3.86 3.86v38.58a3.88 3.88 0 0 1-3.86 3.86h-58.94a3.88 3.88 0 0 1-3.86-3.86v-38.63a3.88 3.88 0 0 1 3.86-3.81Z"/><path fill="none" stroke="#92a6d4" stroke-linecap="round" stroke-linejoin="round" stroke-width="4.53" d="m382.3 503.33 15.52 13.81 16.91 15.2 16.91-15.2 15.53-13.81"/><path fill="none" stroke="#92a6d4" stroke-linecap="round" stroke-linejoin="round" stroke-width="4.53" d="m382.3 547 15.52-13.81 8.65-7.77m16.23-.27 8.94 8L447.17 547"/><rect width="65.74" height="42.57" x="1555.66" y="184.8" fill="none" stroke="#b4cce6" stroke-linecap="round" stroke-linejoin="round" stroke-width="4.53" rx="6.44"/><path fill="none" stroke="#b4cce6" stroke-linecap="round" stroke-linejoin="round" stroke-width="4.53" d="m1568.62 216.11 13.08-11.37 8.53 7.99 14.64-14.26"/><path fill="none" stroke="#b4cce6" stroke-linecap="round" stroke-linejoin="round" stroke-width="4.53" d="m1593 198.66 11.87-.19-1.1 13.16"/><path fill="#fff" fill-rule="evenodd" d="M528.06 125.18h748.31a28.54 28.54 0 0 1 28.46 28.46v473.77a53.58 53.58 0 0 1-53.42 53.42H547.46A53.58 53.58 0 0 1 494 627.41V159.2a34.12 34.12 0 0 1 34.06-34.02Z"/><path fill="#3f96d1" fill-rule="evenodd" d="M528.06 125.18h748.31a28.54 28.54 0 0 1 28.46 28.46v42.45H494V159.2a34.12 34.12 0 0 1 34.06-34.02Z"/><path fill="#265487" fill-rule="evenodd" d="M569.08 146.64a11.54 11.54 0 1 1-11.53 11.54 11.54 11.54 0 0 1 11.53-11.54Zm77.91 0a11.54 11.54 0 1 1-11.53 11.54A11.54 11.54 0 0 1 647 146.64Zm-38 0a11.54 11.54 0 1 1-11.54 11.54A11.54 11.54 0 0 1 609 146.64Z"/><rect width="361.46" height="128.05" x="889.86" y="236.18" fill="#282737" rx="16.36"/><rect width="27.85" height="25.72" x="889.86" y="539.61" fill="none" stroke="#bdc9d7" stroke-miterlimit="22.93" stroke-width="4.53" rx="3.28"/><path fill="none" stroke="#bdc9d7" stroke-linecap="round" stroke-linejoin="round" stroke-width="4.53" d="M944.53 543.37h296.96M944.53 560.77h209.79"/><rect width="27.85" height="25.72" x="889.86" y="591.5" fill="none" stroke="#bdc9d7" stroke-miterlimit="22.93" stroke-width="4.53" rx="3.28"/><path fill="none" stroke="#bdc9d7" stroke-linecap="round" stroke-linejoin="round" stroke-width="4.53" d="M944.53 595.25h229.58M944.53 612.66h278.6"/><path fill="#a0a1fe" fill-rule="evenodd" d="M1241 254.26a8.8 8.8 0 0 1 .08 1.16V345a8.88 8.88 0 0 1-8.86 8.85h-323.3a8.87 8.87 0 0 1-8.85-8.85v-11.3l41.1-14.17 18.21.64 17.24-7 18.2-1 25.86 12.83 7.35-2.56 9.26 8.94 24.9-23.31 16.93 4.79 14.69-9.58 9.58 4.79 29-5.11s12.78 2.24 15.65 0 40.96-19.51 40.96-19.51l18.52 8.94 11.82-21.72 10.85 1Z"/><rect width="361.46" height="128.05" x="889.86" y="379.24" fill="#282737" rx="16.36"/><path fill="#70e0bf" fill-rule="evenodd" d="M1231.75 496.91h-12.14v-96.78h12.14v96.78Zm-22 0h-12.13v-85.44h12.13v85.44Zm-22 0h-12.13v-63.25h12.13v63.25Zm-22 0h-12.14v-70.59h12.14v70.59Zm-22 0h-12.14v-52.55h12.14v52.55Zm-22 0h-12.13V452.5h12.13v44.41Zm-22 0h-12.13V456h12.13v40.9Zm-22 0h-12.14v-34.35h12.14v34.35Zm-22 0h-12.14V456h12.14v40.9Zm-22 0h-12.13V452.5h12.13v44.41Zm-22 0h-12.46v-33.55h12.13v33.55Zm-22 0h-12.5v-21.74h12.14v21.74Zm-22 0h-12.53V490h12.13v6.89Zm-22 0h-12.56v-20.45h12.13v20.45Zm-22 0h-12.59v-14.39h12.13Z"/><path fill="none" stroke="#fff" stroke-linecap="round" stroke-linejoin="round" stroke-width="1.51" d="m900.07 333.7 41.1-14.17 18.21.64 17.24-7 18.2-1 25.86 12.83 7.35-2.56 9.26 8.94 24.9-23.31 16.93 4.79 14.69-9.58 9.58 4.79 29-5.11s12.78 2.24 15.65 0 40.96-19.51 40.96-19.51l18.52 8.94 11.82-21.72 10.85 1 10.81-17.41"/><path fill="#282737" d="M571.24 236.18h260.12A19.61 19.61 0 0 1 851 255.79v350.65A19.61 19.61 0 0 1 831.36 626H571.24a19.6 19.6 0 0 1-19.6-19.6V255.79a19.6 19.6 0 0 1 19.6-19.61Z"/><path fill="#fff" fill-rule="evenodd" d="M701.3 536.52h-59.95C623 422.11 596.59 230.85 701.3 150.46c104.7 80.39 78.27 271.65 59.94 386.06Z"/><path fill="#fec866" fill-rule="evenodd" d="M701.3 536.52h-59.95c-4.58-28.6-9.66-62-13.08-97.27h146.06c-3.42 35.27-8.5 68.67-13.09 97.27ZM638.05 250c11.48-40 31.22-74.94 63.25-99.53 32 24.59 51.77 59.57 63.24 99.53Z"/><path fill="#d3924b" fill-rule="evenodd" d="M630.48 460c-9.92 3.75-31.14 13.95-32.3 33-1.5 24.88 12.26 97.64 19.8 100.66s-3.4-63 3.77-76.16a22.78 22.78 0 0 1 14.92-11.12c-2.18-14.75-4.32-30.3-6.19-46.38ZM772.21 460c9.92 3.75 31.14 13.95 32.3 33 1.5 24.88-12.26 97.64-19.8 100.66s3.4-63-3.77-76.16A22.78 22.78 0 0 0 766 506.36c2.2-14.73 4.34-30.28 6.21-46.36Z"/><circle cx="701.3" cy="330.11" r="50.71" fill="#bdc9d7"/><circle cx="701.3" cy="330.11" r="36.76" fill="#282737"/><path fill="#d3924b" fill-rule="evenodd" d="M703 591.94s-3.39.57-5-9.51-11.13-93.43-9.24-107.36S703 459.61 703 459.61s12.35 1.51 14.23 15.46-7.63 97.27-9.23 107.36-5 9.51-5 9.51Z"/><path fill="none" stroke="#92a6d4" stroke-linecap="round" stroke-linejoin="round" stroke-width="4.53" d="m596.25 751.5-19.4 11.2-19.4 11.2v-44.8l19.4 11.2 19.4 11.2z"/><circle cx="1614.59" cy="444.67" r="25.58" fill="none" stroke="#b4cce6" stroke-miterlimit="22.93" stroke-width="4.53" transform="rotate(-45 1614.595 444.663)"/><path fill="none" stroke="#b4cce6" stroke-linecap="round" stroke-linejoin="round" stroke-width="4.53" d="m1600.98 448.89 6.78 6.74 20.96-21.61"/><path fill="none" stroke="#92a6d4" stroke-linecap="round" stroke-linejoin="round" stroke-width="4.53" d="M1234.23 733.48h43.04l14.42 14.76v60.73h-57.46v-75.49z"/><path fill="none" stroke="#92a6d4" stroke-linecap="round" stroke-linejoin="round" stroke-width="4.53" d="M1291.69 748.24h-14.42v-14.76l14.42 14.76zM1245.2 761.36h29.54M1245.2 771.22h33.93M1245.2 781.08h23.42M1245.2 790.95h27.88"/><circle cx="745.63" cy="766.24" r="25.58" fill="none" stroke="#92a6d4" stroke-miterlimit="22.93" stroke-width="4.53" transform="rotate(-67.84 745.695 766.253)"/><path fill="#92a6d4" fill-rule="evenodd" d="M743.38 778.81a18.31 18.31 0 0 1-4.61-.88 26.19 26.19 0 0 1-2.62-1.06l1.67-4.47a20.33 20.33 0 0 0 3.25 1.2 14.33 14.33 0 0 0 4 .55 5.77 5.77 0 0 0 3.24-.65 2.07 2.07 0 0 0 .88-1.8 2.22 2.22 0 0 0-.35-1.26 3.46 3.46 0 0 0-1-1 10.37 10.37 0 0 0-1.67-.83c-.68-.27-1.45-.57-2.33-.88s-1.69-.65-2.51-1a9.64 9.64 0 0 1-2.22-1.38 6.13 6.13 0 0 1-1.59-2 6.25 6.25 0 0 1-.6-2.85 8.12 8.12 0 0 1 .37-2.47 6.35 6.35 0 0 1 3.16-3.81 10 10 0 0 1 3-1V749h4.89v4a21.58 21.58 0 0 1 3.48.59 16 16 0 0 1 2.32.77l-1.21 4.67a17.34 17.34 0 0 0-3-.94 16.39 16.39 0 0 0-3.56-.38 4.45 4.45 0 0 0-2.68.62 2 2 0 0 0-.82 1.63 2.15 2.15 0 0 0 .26 1.07 2.21 2.21 0 0 0 .79.79 8.32 8.32 0 0 0 1.34.68c.54.23 1.18.46 1.93.72a30 30 0 0 1 3.16 1.37 11.62 11.62 0 0 1 2.53 1.69 6.66 6.66 0 0 1 2.27 5.23 7.6 7.6 0 0 1-.35 2.3 6 6 0 0 1-1.2 2.19 7 7 0 0 1-2.12 1.67 10 10 0 0 1-3.21 1v4.74h-4.89Z"/><path fill="#6e454c" fill-rule="evenodd" d="M969.84 988.4c.1 1.59.16 3.2.16 4.82 0 44-37.34 79.59-83.39 79.59s-83.39-35.64-83.39-79.59c0-1.62.06-3.23.16-4.82Z"/><path fill="#282737" fill-rule="evenodd" d="M886.61 992.59c45.93 0 83.39-2 83.39-4.46s-37.46-4.46-83.39-4.46-83.39 2-83.39 4.46 37.46 4.46 83.39 4.46Z"/><path fill="#467b6c" fill-rule="evenodd" d="M890.9 734.35a28.58 28.58 0 0 0-27.62 3.11c2.52 4.89 9.88 19.41 11.86 26.16 2.39 8.19 1 19.16-7.52 14.51-6.39-3.5-13.16-19.45-16.14-27.18-.94 1.61-1.86 3.34-2.75 5.22a149.66 149.66 0 0 0-12.66 43.55c4.22 4 12.82 12 18.51 17.12 7.78 7 16.16 18.76 11.71 22.88s-11 .54-17.23-7.38c-4.88-6.18-11.43-15.88-14.06-19.85-.6 17.4 2.66 32.54 10.4 40.54 15.83 16.37 34.73 28.61 60.54 13.84 21.52-12.32 28-34.07 25.62-57-1.25 2.77-3 7.54-6.2 14.62-6.29 13.73-15 22.35-18.36 14.5s8-18.63 14.9-26.87 5.22-23.31 5.21-23.33a164.44 164.44 0 0 0-7.23-20.16c-2.84 3-8.61 8.64-13.54 11.42-6.86 3.86-11.65 2.8-10.58-5 .8-6 9.85-18.56 14.19-24.34-5.51-7.79-11.87-13.64-19.05-16.31Zm-37.52 53L866 802.54s4.53 6.25-.53 7.11-16.69-14.83-16.69-14.83-4.26-3.73-1.53-7.52 6.18.07 6.18.07Zm61.67 9.71c4.19 2.2 1.2 10.51-4.26 12.17s-7.78-3.39-4-9.11 8.26-3.04 8.26-3.04ZM781.46 837.87a28.57 28.57 0 0 0-20.33 19c4.93 2.42 19.5 9.71 25.1 13.95 6.8 5.15 12.22 14.79 2.6 16.13-7.22 1-22.15-7.78-29.15-12.22.2 1.86.5 3.8.9 5.84A149.77 149.77 0 0 0 776.36 923c5.75.67 17.45 2 25.06 2.73 10.41 1 24.16 5.44 23 11.41s-8.5 7-18.24 4.33c-7.6-2.06-18.64-6-23.12-7.57 9.89 14.33 21.52 24.55 32.51 26.37 22.46 3.71 44.93 2.29 56.86-24.95 10-22.71 2.25-44.08-13.37-61.05.65 3 2.12 7.82 3.73 15.44 3.13 14.78 1.24 26.91-6.11 22.59s-4.68-19.72-4-30.47S843 860 843 860a166.2 166.2 0 0 0-17.82-11.88c-.51 4.07-1.76 12.07-4.07 17.24-3.21 7.18-7.69 9.18-11.51 2.24-2.89-5.25-3.14-20.77-3.09-28-9.07-3-17.67-3.88-25-1.75Zm1.44 64.93 19.1 4.7s7.36 2.32 3.81 6-22.25-2-22.25-2-5.64-.46-5.7-5.13 5-3.63 5-3.63Zm55.32-28.93c4.68-.74 7.22 7.73 3.83 12.31s-8.27 1.91-8.63-4.94 4.8-7.37 4.8-7.37ZM987 847.45a28.58 28.58 0 0 1 20.34 18.95c-4.94 2.42-19.5 9.71-25.11 14-6.8 5.15-12.21 14.79-2.6 16.13 7.22 1 22.16-7.78 29.15-12.22-.2 1.86-.49 3.8-.9 5.84a149.75 149.75 0 0 1-15.77 42.51c-5.75.67-17.46 2-25.07 2.73-10.41 1-24.16 5.44-23 11.41s8.5 7 18.23 4.33c7.61-2.06 18.64-6 23.12-7.57-9.88 14.33-21.52 24.55-32.5 26.37-22.47 3.71-44.94 2.29-56.87-25-9.95-22.71-2.24-44.08 13.37-61-.64 3-2.11 7.82-3.73 15.44-3.12 14.78-1.24 26.91 6.11 22.59s4.69-19.72 4-30.47 9.7-21.82 9.71-21.84a166.2 166.2 0 0 1 17.82-11.88c.52 4.07 1.76 12.07 4.07 17.24 3.21 7.18 7.69 9.18 11.51 2.24 2.9-5.25 3.15-20.78 3.1-28 9.06-3 17.66-3.88 25-1.75Zm-1.44 64.93-19.13 4.69s-7.36 2.33-3.82 6 22.25-2 22.25-2 5.64-.46 5.71-5.13-5-3.63-5-3.63Zm-55.32-28.93c-4.67-.74-7.22 7.73-3.83 12.31s8.27 1.91 8.64-4.94-4.78-7.37-4.78-7.37Z"/><path fill="none" stroke="#282737" stroke-linecap="round" stroke-linejoin="round" stroke-width="1.51" d="M884.38 795.48s1.33 58.81-1.06 91.54 3.19 101.38 3.19 101.38M813.34 892.87s27.4 24.48 42 49.76 21.55 43.91 21.55 43.91M892.63 988.4s2.4-13 25.28-45 36.46-40.71 36.46-40.71"/><path fill="#8283ce" fill-rule="evenodd" d="m1523.55 140-.4-4.05s1.13-15.51 18.23-15.71 34.39 7.79 27.47 80.7 2.93 80.36 7.19 85-2.66 4.53-7 2 7.38 8.23 2.26 15.83-32.33 9.58-33.66-30.33 13.3-108.83 2.79-120.14-16.88-13.3-16.88-13.3Z"/><path fill="#ffa58d" fill-rule="evenodd" d="m1360.25 700.84-2.39 146.22-9 184.93s34.46-.8 34.46 0 13.84-105.37 18.63-127.32 26.74-78.24 27.4-109.5-5.58-44.71-5.58-44.71l16.36-49.62Z"/><path fill="#5f5e7c" fill-rule="evenodd" d="m1360.25 700.84-2.39 146.22-7.57 154.71c9.1.92 22.55 2.17 36.65 3.11 4.45-32.81 11.74-85.48 15-100.21 4.79-22 26.74-78.24 27.4-109.5s-5.58-44.71-5.58-44.71l16.36-49.62Z"/><path fill="#ffa58d" fill-rule="evenodd" d="m1477.2 703 27.94 88.34 77 237.62 27.67-4.39s-32.33-227.24-35.52-244.14a249.47 249.47 0 0 0-7.32-29.27l-5.32-64Z"/><path fill="#5f5e7c" fill-rule="evenodd" stroke="#52a48c" stroke-miterlimit="22.93" stroke-width=".23" d="m1477.2 703 27.94 88.34 68.68 211.84c9.72-1.18 21.72-2.74 32.35-4.4-8.56-60-29.32-205-31.84-218.35a249.47 249.47 0 0 0-7.32-29.27l-5.32-64Z"/><path fill="none" stroke="#7c7caa" stroke-linecap="round" stroke-linejoin="round" stroke-width="2.26" d="M1510.66 762.84c11.56 1.85 27.15-1.91 35.79-9.85M1362.25 760.51c4.09 2.48 18.94.62 22.68-1.6"/><path fill="#ffa58d" fill-rule="evenodd" d="M1445.39 283.62a16.92 16.92 0 0 0-6.94-2.79c.57 8.79 1.78 27.65 1.78 29.84a23.7 23.7 0 0 1-.43 3c.43-.46.84-.89 1.22-1.27 0 0 20-17.37 4.37-28.8Zm-48.61 23.24c-4.59 4.34-9.42 9-14.21 13.65-1.16-18.07-2.3-36.07-2.31-36.2-.19-11.28-.28-20.22-.28-20.22s1-5.41 7.07-10.4 6.14-9.26 8-18.21 8.32-15.19 8.84-18.31-8.74-4.58-14.46 4.47-26.33-5.93-26.33-5.93l-12.9 33.92s6 7.49 6.24 15.82c.1 4-4 22.28-6.79 42.17s-10.6 49.78-2.25 64.32 7.31 14.73 28.39 6.43c13.79-5.44 31.36-23.56 41.85-35.44-8.78-7.49-18.16-29.42-20.86-36.07Z"/><path fill="#70e0bf" fill-rule="evenodd" d="M1475.43 260s-20.35 11.57-33.26 12.64c-20.17 1.66-31.93 19-46.17 32.28a205.46 205.46 0 0 0 12 25.17c-5.43 6.93-11.28 14.34-12 24.5-1.06 16 11.45 26.88 11.45 26.88s2.92 31.66.53 55.35a83 83 0 0 1-2.68 12.62c-9.09 33.08-37.71 102.14-47.61 150.49-11.44 55.88-17.3 100.59-17.3 100.59s57.48 26.6 125.86 24.21 128-21.82 128-21.82-46.84-174-57.08-198.77-16.9-39.25-16.9-39.25-8.51-6.12-6.52-30.34 16.1-52.55 26.48-70.51c5-8.73 11.91-20.35 17.43-31.48 11.57-4.41 17.48-5 17.48-5s.9-33.66-19.4-42.5a61.84 61.84 0 0 0-12.31-5.67c-13.7-4.92-27.46-12.44-30.09-18.66s-29.26-4.59-37.91-.73Z"/><path fill="#3f96d1" fill-rule="evenodd" d="M1400.73 464.41c-11.8 36.11-34.46 93.6-43 135.52-11.44 55.88-17.3 100.59-17.3 100.59s57.48 26.6 125.86 24.21 128-21.82 128-21.82-46.84-174-57.08-198.77-16.9-39.25-16.9-39.25-2-1.45-3.85-5.71c-5.05 1.2-10.48 2.47-16.33 3.81-37.66 8.59-72.67 6.32-99.4 1.42Z"/><path fill="#5f5e7c" fill-rule="evenodd" d="M1478.6 454.16c22.49-1.53 35.15-6.18 35.15-6.18a12.87 12.87 0 0 1 6.09 7.78c1.8 5.79.43 9.13.43 9.13s-27.17 12.49-72.4 10.36-48.36-7.14-48.36-7.14a16.23 16.23 0 0 1 .43-11.22c2.46-6.12 5.36-7.45 5.36-7.45 18.49 6.63 54.07 6.03 73.3 4.72Z"/><path fill="none" stroke="#52a48c" stroke-linecap="round" stroke-linejoin="round" stroke-width="2.26" d="M1525 364c-4.13 8.33-8.69 18.32-13.25 30-7.67 19.62-12.89 41.57-15.5 53.91"/><path fill="#282737" fill-rule="evenodd" d="m1516.37 143.16 6.78-7.19c10.08 1.43 18.52 10.39 21.36 19.89l-7.66 6.92Z"/><path fill="#ffa58d" fill-rule="evenodd" d="M1471.19 151.76c-25.54 13.57-21.15 29-20.75 46.44s-1 34.72 3.46 41a23 23 0 0 0 9.78 8.25s1 10.81 0 18.43a105.6 105.6 0 0 1-13.51 5.12c-2.84 8.28-4.13 22.93 19.3 28 27.1 5.83 53-8.55 62-24.59-8.94-4.3-16.26-9.3-18.11-13.67a67.53 67.53 0 0 1-3.12-21c0-14.23 1-16.89 1-16.89s17 .13 22.49-13.57-5.13-15.14-5.13-15.14c12.12-41.91-28.79-57.58-57.41-42.38Z"/><path fill="#a0a1fe" fill-rule="evenodd" d="M1509.35 199c-.16 1.91-.45 3.78-.7 5.54-1.06 7.45 2.66 6.78 2.66 6.78s3.66-16.71 17.26-17.2c0 0 10.58 1.43 5.13 15.14s-22.49 13.57-22.49 13.57-.63 1.69-.89 9.59c34.23-.9 40.77-46.05 32.32-65.93-8.64-20.34-31.64-35.37-66.52-28.49a41.91 41.91 0 0 0-8.65 2.67 56.58 56.58 0 0 0-12.28 8.63 39 39 0 0 0-2.82 3.37c-1.57 2.39-2.26 4.91-1.18 7.35a16.88 16.88 0 0 0-2.69 8.18 13.82 13.82 0 0 0 2 7.85 27.43 27.43 0 0 1 5.74-12.78c13.09 3.44 45.72-2.37 45.72-2.37s1.92 11.33 7 20.11.33 18 .33 18Z"/><path fill="#282737" fill-rule="evenodd" d="M1463.68 247.49s.53 5.86.4 12c20.57-3.25 28.17-16 27.6-16.56s-3.26 1.87-11.64 4a41.92 41.92 0 0 1-16.36.56Z"/><path fill="none" stroke="#282737" stroke-linecap="round" stroke-linejoin="round" stroke-width="2.11" d="M1475.29 202.08c.2-1.27 1-4.66 4.39-5 4.13-.4 5.52 2.2 5.52 2.2M1463.15 202.08c-.21-1.27-1.06-4.66-4.4-5-4.13-.4-5.52 2.2-5.52 2.2"/><path fill="none" stroke="#cd665f" stroke-linecap="round" stroke-linejoin="round" stroke-width="1.51" d="M1469.74 200.93s-2.73 5.45-4.59 6.85S1462 210 1462 210l3.52 3.06M1514.51 212.63a19.77 19.77 0 016.19-7.91c4.66-3.66 6.65-4.39 6.65-4.39M1525.29 210.97l-4.9-6.01"/><path fill="#ea8a79" fill-rule="evenodd" d="M1488 213.27c3.8 0 6.91-.91 6.91-2s-3.11-2-6.91-2-6.9.92-6.9 2 3.07 2 6.9 2Z"/><path fill="#282737" fill-rule="evenodd" d="M1475.85 185.18s-1.07-3.92 3.46-4.26 8.68 2.7 10.81 4.89 2.23 3.26 1.43 3.26-5.89-3.62-9.61-3.56-6.12.2-6.09-.33Zm-10.6 0s1.07-3.92-3.46-4.26-8.68 2.7-10.81 4.89-2.23 3.26-1.43 3.26 5.89-3.62 9.62-3.56 6.12.2 6.08-.33Z"/><path fill="none" stroke="#fec866" stroke-linecap="round" stroke-linejoin="round" stroke-width="1.51" d="M1520.94 215.73a7.55 7.55 0 1 1-6.57 11.28"/><path fill="#cd665f" fill-rule="evenodd" d="M1450.28 194c-2 1.08-5.11 3.86-5 10.54.08 6.26 3.12 9.39 5.27 10.83 0-5.42 0-11.26-.08-17.12-.07-1.48-.13-2.9-.19-4.25Z"/><path fill="none" stroke="#fec866" stroke-linecap="round" stroke-linejoin="round" stroke-width="1.51" d="M1451.28 210.44a7.55 7.55 0 0 0-2.92 14.51"/><path fill="#ea8a79" fill-rule="evenodd" d="M1450.52 208.12v4h.76c3.82 0 6.91-.91 6.91-2s-3.09-2-6.91-2Z"/><path fill="#a0a1fe" fill-rule="evenodd" d="M1390 1082.14h-116.24s-2-10.06 4.71-15.64 50-25.55 57.63-31.54 9.28-9.72 15.35-8.08 11.57 5.63 19.32 3.67 11.17-4 14.21-1 2.87 17.61 4.07 27.74.95 24.85.95 24.85Z"/><path fill="#6359cc" fill-rule="evenodd" d="M1390 1082.14h-116.24a21.14 21.14 0 0 1-.07-6.45H1390v6.45Z"/><path fill="none" stroke="#6359cc" stroke-linecap="round" stroke-linejoin="round" stroke-width="2.26" d="M1374.92 1077.85s-3-15 .95-24.75 11.79-12.77 11.79-12.77"/><path fill="none" stroke="#fff" stroke-linecap="round" stroke-linejoin="round" stroke-width="3.02" d="m1305.94 1058.89-6.94-3.94M1313.42 1055.07l-6.95-3.94M1320.78 1051.31l-6.95-3.94M1328.24 1047.44l-6.94-3.94M1336.11 1043.21l-6.95-3.94M1342.15 1039.56l-6.94-3.94"/><path fill="#a0a1fe" fill-rule="evenodd" d="M1624.51 1082.14h-71.09a21.52 21.52 0 0 1-.07-6.45 38.72 38.72 0 0 1 11.29-24.53c10.91-10.52 10.38-9.72 14.91-21.69s21.68-10.38 28.2-8.38 10.48 11.85 10.48 11.85c4.03 15.32 5.69 38.46 6.28 49.2Z"/><path fill="#6359cc" fill-rule="evenodd" d="M1624.51 1082.14h-71.09a21.52 21.52 0 0 1-.07-6.45h70.76c.17 2.45.3 4.63.4 6.45Z"/><path fill="none" stroke="#fff" stroke-linecap="round" stroke-linejoin="round" stroke-width="3.02" d="M1573 1053.75c4.25-1.77 16.76-1.38 20.62.53M1576.82 1046.1c4.25-1.77 16.76-1.38 20.62.53M1580.26 1038.58c4.26-1.77 16.76-1.38 20.63.53M1582.71 1031.41c4.25-1.77 16.76-1.37 20.62.54"/><path fill="none" stroke="#52a48c" stroke-linecap="round" stroke-linejoin="round" stroke-width="2.26" d="M1492.69 380.24s-15.77 10.18-38.72 1.2-33.92-4.59-33.92-4.59"/><path fill="#ffa58d" fill-rule="evenodd" d="M1531.69 345.93c1.87 10.72 3.76 21.3 4.62 29.74 1.21 11.89 1.58 19.66 1.67 24.32l-.57.52-100.09 29.07s-14.47-6.62-22.51-7.16-10.59 1.13-10.59 1.13-6 2.36-6.87 5.9c-3.24.78-3.59.18-9.93 3.76s-11.67 12.72-9 13.75 6.49-5.95 13.34-7.78 11-.86 11-.86-13.6 8.32-17.55 15.23-1.7 10.22 1.17 8.39 4.83-5.16 11.42-9.91 8.86-4.77 8.86-4.77-11 9.21-13.12 14.63 0 9.53 2.71 7.43 4-4.44 9-8.44a33.43 33.43 0 0 1 10.19-5.55s-4.84 7.61-7.75 10.06-.9 6.72 4.18 4.25 12.53-9.26 15.8-11.24 14-3.62 14-3.62c3.42-.25 66.07-12 72.29-13 23.21-3.91 62.71-10.55 62.91-38.81.51-12.95-3.41-53.41-5.6-74.66a109 109 0 0 0-16.44 5.37c-8.05 3.25-17.17 8.55-23.14 12.25Z"/><path fill="none" stroke="#ce685f" stroke-linecap="round" stroke-linejoin="round" stroke-width="2.26" d="M1548.36 408.64a53.18 53.18 0 00-5.8-6.15A16.39 16.39 0 001538 400M1549.71 400.44l-8.24 1.27"/><path fill="none" stroke="#5f5e7c" stroke-linecap="round" stroke-linejoin="round" stroke-width="2.26" d="M1343.07 682c76.51 34.58 167.32 23.64 245.4-.38"/><path fill="#fff" fill-rule="evenodd" d="m1463.75 219.25 12.53-4.39s1 8.54-5 9.26a6.82 6.82 0 0 1-7.53-4.87Z"/><path fill="#5182b4" fill-rule="evenodd" d="M1365.56 198v15.3s2.6 4.58 2.6 5.2-4.16 37.15-4.06 37.67 11.76 2.08 11.76 2.08l23.73-56.6Z"/><path fill="#ffa58d" fill-rule="evenodd" d="M1354.22 219.51s-1.25-4.26 3-8 10.2-3.9 14.83-1.92 7.39 8.11 6.61 10-3.87 1.33-6.26-1.53-3.83-2.7-5.39-2.3-4.79 3.78-4.79 3.78 2.7.36 8.43 3.22 8.53 7.18 7.9 9.83-10.38-.49-10.38-.49 4.87 3 3.36 6.89-6.66.26-6.66.26 5.57 8.74-2.65 7.7a38 38 0 0 1-10-2.53l-2 5.13s-5-6.21-4.1-11.57a8.86 8.86 0 0 1 2.17-4.76s-.68-4.53.67-5.88a4 4 0 0 1 2.55-1.35s-1.61-5.59 2.71-6.48Z"/><path fill="#fec866" fill-rule="evenodd" d="m1333.2 199.12-3 4.61s31.59-1.91 47.09-1.39c12 .41 21.18 1.38 24.67 1.8.51.08 1 .15 1.53.19 10 .76 20.55-7.85 24.65-20.91 4.42-14-.2-28.13-10.34-32.28s-37.64-20-61.26-41.95-23.34 89.93-23.34 89.93Z"/><path fill="#d3924b" fill-rule="evenodd" d="M1397.44 203.64c2 .2 3.51.37 4.55.5.51.08 1 .15 1.53.19 10 .76 20.55-7.85 24.65-20.91 4.42-14-.2-28.13-10.34-32.28s-2-1.08-5.43-3c6.11 7.66 8.06 20 4.18 32.36-3.47 11.12-10.85 19.5-19.14 23.14Z"/><ellipse cx="1325.66" cy="151.98" fill="#d3924b" rx="54.78" ry="41.2" transform="rotate(-72.55 1325.694 151.967)"/><ellipse cx="1325.66" cy="151.98" fill="#b36a37" rx="48.42" ry="36.42" transform="rotate(-72.55 1325.682 151.969)"/><path fill="#b8b8d1" fill-rule="evenodd" d="M1363.06 149.9a64.58 64.58 0 0 1-8.41 26c-12.66-7.82-31.87-14.47-31.87-14.47l3-15.06 2.34-8.35s10 3.88 18.73 6.9c4.52 1.6 11.01 3.51 16.21 4.98Z"/><path fill="#fff" fill-rule="evenodd" d="M1329.27 138.31c4.77 1.5 7 7.86 5 14.2s-7.48 10.27-12.25 8.77-7-7.86-5-14.2 7.48-10.27 12.25-8.77Z"/><path fill="none" stroke="#ce685f" stroke-linecap="round" stroke-linejoin="round" stroke-width="2.26" d="m1386.17 346.25-2.56-21.24"/><path fill="none" stroke="#52a48c" stroke-linecap="round" stroke-linejoin="round" stroke-width="2.26" d="m1523.81 325.28 1.91 18.68M1450.44 328.08l16.09-29.77"/><path fill="none" stroke="#5f5e7c" stroke-linecap="round" stroke-linejoin="round" stroke-width="2.26" d="M1507.92 490.61s14 36.4 27.14 89.4 24.62 109.65 24.62 109.65"/><path fill="#52a48c" fill-rule="evenodd" d="M1470.31 311.31a2.2 2.2 0 1 0-2.39-2.19 2.31 2.31 0 0 0 2.39 2.19ZM1463.21 324.44a2.2 2.2 0 1 0-2.4-2.19 2.3 2.3 0 0 0 2.4 2.19Z"/><path fill="none" stroke="#52a48c" stroke-linecap="round" stroke-linejoin="round" stroke-width="2.26" d="M1419.78 303.57s-3.11 11.65-4.63 15.57a22.61 22.61 0 0 1-3 5.66"/><path fill="none" stroke="#fff" stroke-linecap="round" stroke-linejoin="round" stroke-width="1.51" d="M1515.33 265.73c-3.6 16.45-12.32 29.09-26.69 41.06-29.68 24.74-43.93-7.18-25.3-39.91"/></svg>