<svg xmlns="http://www.w3.org/2000/svg" width="700" height="700" enable-background="new 0 0 700 700"><path fill="#f5f7ff" d="m420.117 301.75 4.094 9.125c.268.599.94.947 1.603.821l8.904-1.468a40.241 40.241 0 0 0 9.984 9.392l-.976 9.015a1.46 1.46 0 0 0 .929 1.53l9.354 3.561a1.461 1.461 0 0 0 1.708-.531l5.245-7.412c4.512.681 9.118.594 13.705-.37l5.688 7.05a1.436 1.436 0 0 0 1.727.415l9.1-4.082c.624-.28.96-.908.864-1.576l-1.51-8.925a38.55 38.55 0 0 0 9.417-10.002l9.03 1.008a1.416 1.416 0 0 0 1.5-.907l3.56-9.354a1.46 1.46 0 0 0-.524-1.712l-7.39-5.263a40.09 40.09 0 0 0-.369-13.705l7.05-5.688a1.436 1.436 0 0 0 .415-1.726l-4.094-9.126a1.436 1.436 0 0 0-1.564-.839l-8.925 1.51a40.038 40.038 0 0 0-10.002-9.416l.985-9.012a1.416 1.416 0 0 0-.917-1.504l-9.354-3.56a1.474 1.474 0 0 0-1.69.484l-5.252 7.414c-4.503-.677-9.129-.55-13.731.382l-5.66-7.056a1.467 1.467 0 0 0-1.754-.409l-9.1 4.082a1.434 1.434 0 0 0-.836 1.571l1.48 8.93a39.4 39.4 0 0 0-9.39 9.99l-9.023-1.01c-.665-.038-1.285.341-1.518.954l-3.56 9.354c-.24.616-.03 1.311.513 1.685l7.379 5.26a40.19 40.19 0 0 0 .388 13.728l-7.03 5.648a1.467 1.467 0 0 0-.453 1.743zm29.782-7.863c-4.158-9.27-.013-20.144 9.256-24.302s20.148-.023 24.306 9.247c4.146 9.243.004 20.124-9.265 24.282-9.27 4.158-20.15.016-24.297-9.227z"/><linearGradient id="a" x1="-771.69" x2="-723.369" y1="-593.095" y2="-593.095" gradientTransform="rotate(-13.443 3590.61 -5304.648)" gradientUnits="userSpaceOnUse"><stop offset="0" stop-color="#e7ecff"/><stop offset="1" stop-color="#c2d5ff"/></linearGradient><path fill="url(#a)" d="M444.634 296.233c5.46 12.172 19.761 17.61 31.927 12.153 12.172-5.46 17.614-19.754 12.154-31.927s-19.755-17.614-31.928-12.153c-12.165 5.457-17.613 19.754-12.153 31.927zm5.265-2.346c-4.158-9.27-.013-20.144 9.256-24.302s20.148-.023 24.306 9.247c4.146 9.243.004 20.124-9.265 24.282-9.27 4.158-20.15.016-24.297-9.227z"/><path fill="#f5f7ff" d="m479.8 227.737 3.225 7.189c.211.471.74.745 1.263.646l7.014-1.156a31.699 31.699 0 0 0 7.864 7.398l-.769 7.102a1.15 1.15 0 0 0 .732 1.205l7.368 2.805a1.15 1.15 0 0 0 1.346-.419l4.131-5.838a30.3 30.3 0 0 0 10.796-.291l4.48 5.553c.323.416.889.538 1.36.327l7.169-3.216c.492-.22.757-.715.68-1.242l-1.188-7.03a30.366 30.366 0 0 0 7.417-7.879l7.113.795c.51.067.998-.232 1.182-.715l2.805-7.368a1.15 1.15 0 0 0-.414-1.348l-5.82-4.146a31.58 31.58 0 0 0-.291-10.796l5.553-4.48c.416-.323.538-.889.327-1.36l-3.225-7.19a1.131 1.131 0 0 0-1.232-.66l-7.03 1.19a31.54 31.54 0 0 0-7.88-7.418l.777-7.098a1.116 1.116 0 0 0-.723-1.185l-7.368-2.805a1.161 1.161 0 0 0-1.331.382l-4.137 5.84c-3.547-.534-7.191-.433-10.816.3l-4.458-5.557a1.156 1.156 0 0 0-1.383-.322l-7.168 3.215a1.13 1.13 0 0 0-.658 1.238l1.166 7.034a31.035 31.035 0 0 0-7.397 7.87l-7.107-.797a1.197 1.197 0 0 0-1.197.752l-2.804 7.368a1.116 1.116 0 0 0 .404 1.328l5.813 4.143a31.657 31.657 0 0 0 .305 10.814l-5.537 4.448a1.155 1.155 0 0 0-.357 1.374zm23.46-6.194c-3.275-7.301-.01-15.867 7.291-19.143s15.87-.017 19.146 7.284c3.266 7.281.003 15.853-7.298 19.128s-15.873.012-19.14-7.269z"/><linearGradient id="b" x1="-701.68" x2="-663.617" y1="-650.322" y2="-650.322" gradientTransform="rotate(-13.443 3590.61 -5304.648)" gradientUnits="userSpaceOnUse"><stop offset="0" stop-color="#e7ecff"/><stop offset="1" stop-color="#c2d5ff"/></linearGradient><path fill="url(#b)" d="M499.112 223.392c4.301 9.588 15.567 13.872 25.15 9.573 9.588-4.3 13.875-15.56 9.574-25.15-4.302-9.588-15.562-13.874-25.15-9.573-9.583 4.299-13.875 15.561-9.574 25.15zm4.148-1.849c-3.275-7.301-.01-15.867 7.291-19.143s15.87-.017 19.146 7.284c3.266 7.281.003 15.853-7.298 19.128s-15.873.012-19.14-7.269z"/><path fill="#dbe5ff" d="M270.15 326.572a.5.5 0 0 1-.006-1 133.29 133.29 0 0 0 4.37-.129c1.542-.072 3.082-.175 4.58-.306a.5.5 0 0 1 .087.996 112.7 112.7 0 0 1-4.62.308c-1.478.069-2.96.113-4.405.131h-.006zm-8.995-.205h-.03c-3.028-.18-6.054-.474-8.994-.875a.5.5 0 0 1-.428-.562.489.489 0 0 1 .563-.428c2.915.396 5.916.687 8.918.866a.5.5 0 0 1-.03 1zm26.901-1.417a.5.5 0 0 1-.088-.992 81.115 81.115 0 0 0 8.7-2.062.5.5 0 1 1 .287.96 82.379 82.379 0 0 1-8.81 2.086.557.557 0 0 1-.089.008zm-44.716-1.027a.51.51 0 0 1-.108-.012 102.1 102.1 0 0 1-8.735-2.331.5.5 0 1 1 .3-.953c2.803.884 5.713 1.66 8.65 2.308a.5.5 0 0 1-.107.988zm61.903-4.182a.499.499 0 0 1-.208-.955 53.4 53.4 0 0 0 7.781-4.33.5.5 0 1 1 .56.828 54.41 54.41 0 0 1-7.927 4.412.504.504 0 0 1-.206.045zm-79.038-1.246a.494.494 0 0 1-.196-.04 89.02 89.02 0 0 1-8.14-3.945.5.5 0 0 1 .483-.877 87.85 87.85 0 0 0 8.048 3.902.5.5 0 0 1-.195.96zm-15.725-8.686c-.1 0-.2-.03-.288-.092a78.926 78.926 0 0 1-7.079-5.646.5.5 0 1 1 .667-.744 78.097 78.097 0 0 0 6.99 5.573.5.5 0 0 1-.29.909zm109.544-.155a.501.501 0 0 1-.355-.853c.459-.461.908-.935 1.348-1.421a.5.5 0 0 1 .742.67c-.45.498-.91.983-1.38 1.457a.502.502 0 0 1-.355.147zm-122.916-11.838a.502.502 0 0 1-.375-.169 74.98 74.98 0 0 1-5.573-7.135.5.5 0 0 1 .824-.567 73.9 73.9 0 0 0 5.5 7.04.5.5 0 0 1-.376.831zm-10.147-14.81a.5.5 0 0 1-.445-.272 66.07 66.07 0 0 1-3.574-8.325.5.5 0 0 1 .945-.33 64.988 64.988 0 0 0 3.519 8.2.5.5 0 0 1-.445.728zm-5.885-16.944a.5.5 0 0 1-.49-.406 60.636 60.636 0 0 1-.49-2.97 54.851 54.851 0 0 1-.497-6.046.5.5 0 0 1 .486-.514c.292-.036.506.21.514.486.053 1.996.218 3.994.488 5.937.134.966.296 1.948.48 2.92a.5.5 0 0 1-.49.593zm-.5-17.914a.5.5 0 0 1-.496-.565 58.365 58.365 0 0 1 1.891-8.87.5.5 0 1 1 .959.283 57.384 57.384 0 0 0-1.859 8.718.5.5 0 0 1-.495.434zm5.098-17.188a.498.498 0 0 1-.45-.716 54.548 54.548 0 0 1 4.58-7.83.5.5 0 1 1 .818.576 53.532 53.532 0 0 0-4.496 7.686.5.5 0 0 1-.452.284zm10.348-14.614a.5.5 0 0 1-.35-.856 46.688 46.688 0 0 1 7.061-5.713.5.5 0 1 1 .55.836 45.688 45.688 0 0 0-6.91 5.59.5.5 0 0 1-.35.143zm14.929-9.857a.499.499 0 0 1-.195-.96c2.667-1.128 5.475-2.078 8.584-2.903a.5.5 0 0 1 .257.967c-3.064.813-5.828 1.748-8.451 2.857a.508.508 0 0 1-.195.04zm17.32-4.735a.5.5 0 0 1-.081-.993c2.675-.442 5.519-.822 8.948-1.196a.493.493 0 0 1 .551.443.5.5 0 0 1-.443.551c-3.41.373-6.236.75-8.893 1.188a.473.473 0 0 1-.082.007zm17.878-2.065a.5.5 0 0 1-.045-.998 752.54 752.54 0 0 0 4.434-.418c1.495-.145 3-.306 4.506-.486a.492.492 0 0 1 .557.437.5.5 0 0 1-.437.555c-1.516.182-3.027.343-4.528.49a754.618 754.618 0 0 1-4.487.42zm75.65-1.264c-2.392 0-4.864-.07-7.556-.215l-1.01-.057a.5.5 0 1 1 .06-.998l1.003.057c2.675.143 5.128.213 7.503.213l.454-.001h.004a.5.5 0 0 1 .003 1h-.461zm9.445-.432a.5.5 0 0 1-.048-.998c3.1-.302 6.066-.777 8.816-1.412a.5.5 0 0 1 .225.975c-2.793.644-5.802 1.126-8.944 1.433l-.05.002zm-67.24-.548a.5.5 0 0 1-.091-.991c3.151-.589 6-1.262 8.708-2.056a.5.5 0 0 1 .28.96c-2.74.804-5.62 1.484-8.805 2.078a.496.496 0 0 1-.092.01zm40.302-.145a.574.574 0 0 1-.07-.005c-3.242-.458-6.144-1.063-8.872-1.848a.5.5 0 0 1 .276-.96c2.683.772 5.54 1.366 8.735 1.818a.5.5 0 0 1-.07.995zm44.382-3.457a.5.5 0 0 1-.193-.961 45.449 45.449 0 0 0 4.514-2.186 36.131 36.131 0 0 0 3.276-2.062.499.499 0 1 1 .577.816 37.092 37.092 0 0 1-3.367 2.12 46.275 46.275 0 0 1-4.614 2.234.499.499 0 0 1-.193.039zm-67.49-1.575a.5.5 0 0 1-.208-.956c.853-.39 1.688-.798 2.5-1.226a34.686 34.686 0 0 1-4.07-3.148.5.5 0 1 1 .67-.742 33.991 33.991 0 0 0 4.401 3.349 43.901 43.901 0 0 0 4.21-2.652.5.5 0 0 1 .581.814 45.105 45.105 0 0 1-3.822 2.44 39.42 39.42 0 0 0 1.917 1.076.5.5 0 1 1-.464.884 38.888 38.888 0 0 1-2.458-1.402 51.531 51.531 0 0 1-3.05 1.518.506.506 0 0 1-.207.045zm82.036-8.75a.5.5 0 0 1-.377-.828c1.988-2.284 3.649-4.755 4.935-7.344a.5.5 0 1 1 .896.445c-1.324 2.665-3.032 5.207-5.077 7.556a.5.5 0 0 1-.377.171zm-67.571-1.726a.5.5 0 0 1-.377-.828c2.045-2.354 3.637-4.853 4.733-7.428a.5.5 0 1 1 .92.39c-1.137 2.674-2.785 5.261-4.899 7.694a.5.5 0 0 1-.377.172zm-21.568-1.67a.5.5 0 0 1-.435-.252 23.67 23.67 0 0 1-2.947-8.646.5.5 0 1 1 .99-.136 22.981 22.981 0 0 0 2.825 8.286.5.5 0 0 1-.433.748zm96.907-12.58a.5.5 0 0 1-.495-.577c.201-1.286.303-2.583.303-3.855 0-1.658-.173-3.31-.515-4.91a.5.5 0 0 1 .978-.209c.356 1.668.537 3.39.537 5.12 0 1.323-.106 2.671-.314 4.008a.5.5 0 0 1-.494.423zm-68.79-2.07a.5.5 0 0 1-.5-.48c-.109-3.005-.954-5.873-2.443-8.297a.5.5 0 1 1 .851-.523c1.58 2.57 2.476 5.606 2.591 8.782a.5.5 0 0 1-.481.519h-.019zm-30.425-2.734a.5.5 0 0 1-.481-.638c.64-2.24 1.644-4.278 2.98-6.055.489-.65 1.04-1.273 1.639-1.85a.5.5 0 1 1 .694.719 14.658 14.658 0 0 0-1.533 1.732c-1.263 1.68-2.211 3.607-2.819 5.73a.5.5 0 0 1-.48.362zm21.16-11.506a.482.482 0 0 1-.175-.032c-2.595-.975-5.614-1.116-8.566-.405a.5.5 0 0 1-.233-.973c3.145-.755 6.37-.603 9.15.443a.499.499 0 0 1-.176.967z"/><linearGradient id="c" x1="-2074.534" x2="-2063" y1="-342.213" y2="-342.213" gradientTransform="rotate(-17.245 768.625 -8150.22)" gradientUnits="userSpaceOnUse"><stop offset="0" stop-color="#e7ecff"/><stop offset="1" stop-color="#c2d5ff"/></linearGradient><path fill="url(#c)" d="M379.729 148.237a.222.222 0 0 1-.08.278l-9.643 6.356a.14.14 0 0 1-.056.027.216.216 0 0 1-.208-.046.218.218 0 0 1-.053-.26l6.51-13.177a.223.223 0 0 1 .201-.122c.083.001.163.05.196.127l3.133 6.817z"/><linearGradient id="d" x1="-2073.1" x2="-2022.273" y1="-345.715" y2="-345.715" gradientTransform="rotate(-17.245 768.625 -8150.22)" gradientUnits="userSpaceOnUse"><stop offset="0" stop-color="#e7ecff"/><stop offset="1" stop-color="#c2d5ff"/></linearGradient><path fill="url(#d)" d="M413.64 120.117a.22.22 0 0 1-.015.249l-29.554 37.606a.229.229 0 0 1-.199.085.215.215 0 0 1-.172-.126l-9.742-21.199-10.17-5.984a.22.22 0 0 1-.107-.225.222.222 0 0 1 .174-.178l49.55-10.33a.22.22 0 0 1 .235.102z"/><path fill="#c2d5ff" d="M402.037 125.38a.217.217 0 0 1-.077.286l-25.394 15.998-6.48 13.123a.225.225 0 0 1-.136.111.219.219 0 0 1-.278-.259l4.246-18.11a.23.23 0 0 1 .131-.156l27.712-11.096a.215.215 0 0 1 .276.103z"/><path fill="#b7bcff" d="M193.486 231.38a.5.5 0 0 1-.5-.5v-13.784c0-12.501 10.17-22.672 22.671-22.672h14.29a.5.5 0 1 1 0 1h-14.29c-11.95 0-21.671 9.721-21.671 21.672v13.784a.5.5 0 0 1-.5.5zM229.694 419.513H215.91c-12.501 0-22.671-10.17-22.671-22.671v-14.29a.5.5 0 1 1 1 0v14.29c0 11.949 9.721 21.67 21.67 21.67h13.785a.5.5 0 1 1 0 1zM471.385 231.38a.5.5 0 0 1-.5-.5v-13.784c0-11.95-9.722-21.672-21.671-21.672h-14.29a.5.5 0 1 1 0-1h14.29c12.5 0 22.67 10.17 22.67 22.672v13.784a.5.5 0 0 1-.5.5zM448.961 419.513h-13.784a.5.5 0 1 1 0-1h13.784c11.95 0 21.67-9.722 21.67-21.671v-14.29a.5.5 0 1 1 1 0v14.29c0 12.5-10.17 22.67-22.67 22.67z"/><linearGradient id="e" x1="332.438" x2="332.438" y1="364.191" y2="132.289" gradientUnits="userSpaceOnUse"><stop offset="0" stop-color="#e7ecff"/><stop offset="1" stop-color="#c2d5ff"/></linearGradient><path fill="url(#e)" d="M460.07 217.094v179.75c0 5.992-4.863 10.856-10.855 10.856H215.66c-6 0-10.855-4.864-10.855-10.855V217.094c0-5.992 4.855-10.856 10.855-10.856h233.555c5.992 0 10.856 4.864 10.856 10.856z"/><path fill="#fff" d="M327.894 356.32v32.272a4.196 4.196 0 0 1-4.196 4.196H283.27a4.196 4.196 0 0 1-4.196-4.196V356.32a4.196 4.196 0 0 1 4.196-4.196h40.428a4.196 4.196 0 0 1 4.196 4.196z"/><linearGradient id="f" x1="-6495.634" x2="-6497.392" y1="203.33" y2="263.661" gradientTransform="matrix(-1 0 0 1 -6163.978 0)" gradientUnits="userSpaceOnUse"><stop offset="0" stop-color="#b3b3ff"/><stop offset="1" stop-color="#8f8fea"/></linearGradient><path fill="url(#f)" d="M204.798 217.093v25.947h255.27v-25.946c0-6-4.863-10.863-10.863-10.863H215.66c-5.999 0-10.862 4.863-10.862 10.862z"/><linearGradient id="g" x1="217.955" x2="230.821" y1="224.636" y2="224.636" gradientUnits="userSpaceOnUse"><stop offset="0" stop-color="#e7ecff"/><stop offset="1" stop-color="#c2d5ff"/></linearGradient><path fill="url(#g)" d="M230.821 224.636a6.443 6.443 0 0 1-6.438 6.438c-3.553 0-6.428-2.886-6.428-6.438s2.875-6.438 6.428-6.438a6.443 6.443 0 0 1 6.438 6.438z"/><linearGradient id="h" x1="238.125" x2="250.991" y1="224.636" y2="224.636" gradientUnits="userSpaceOnUse"><stop offset="0" stop-color="#e7ecff"/><stop offset="1" stop-color="#c2d5ff"/></linearGradient><path fill="url(#h)" d="M250.991 224.636a6.443 6.443 0 0 1-6.438 6.438c-3.552 0-6.428-2.886-6.428-6.438s2.876-6.438 6.428-6.438a6.443 6.443 0 0 1 6.438 6.438z"/><linearGradient id="i" x1="258.295" x2="271.161" y1="224.636" y2="224.636" gradientUnits="userSpaceOnUse"><stop offset="0" stop-color="#e7ecff"/><stop offset="1" stop-color="#c2d5ff"/></linearGradient><path fill="url(#i)" d="M271.161 224.636a6.443 6.443 0 0 1-6.438 6.438c-3.552 0-6.428-2.886-6.428-6.438s2.876-6.438 6.428-6.438a6.443 6.443 0 0 1 6.438 6.438z"/><linearGradient id="j" x1="3064.41" x2="2989.781" y1="140.629" y2="236.327" gradientTransform="matrix(-.94234 -.33467 -.62239 .9973 3138.042 1594.219)" gradientUnits="userSpaceOnUse"><stop offset="0" stop-color="#78a7ff"/><stop offset="1" stop-color="#3d79f3"/></linearGradient><path fill="url(#j)" d="M112.539 316.613c1.436-3.52 3.363-12.418 10.184-15.98l8.147 1.361a19.65 19.65 0 0 1 1.132 3.229c3.097 12.103-8.698 38.507-4.386 50.234 3.329 9.054 27.562 26.026 27.562 26.026 1.647 1.245-4.765 9.726-6.412 8.481 0 0-31.429-17.915-36.871-27.991-5.384-9.97-3.635-34.869.644-45.36z"/><path fill="#f5f7ff" d="M94 577.86c0 1.17 19.321 2.13 43.148 2.13s43.14-.96 43.14-2.13c0-1.181-19.313-2.13-43.14-2.13S94 576.68 94 577.86z"/><path fill="#fdccc5" d="m114.736 559.772.345 8.64 5.92 3.202 2.686-5.99-.482-5.852z"/><linearGradient id="k" x1="-377.145" x2="-350.164" y1="570.115" y2="570.115" gradientTransform="matrix(-1 0 0 1 -236.632 0)" gradientUnits="userSpaceOnUse"><stop offset="0" stop-color="#78a7ff"/><stop offset="1" stop-color="#3d79f3"/></linearGradient><path fill="url(#k)" d="M123.496 563.014c2.838.748 5.313 5.873 7.682 6.897 2.186.945 8.13-.824 9.132 2.715.48 1.694.018 2.997-.436 3.777a1.663 1.663 0 0 1-1.44.822h-22.792a1.664 1.664 0 0 1-1.651-1.437c-.472-3.422-1.301-11.676 1.907-10.345 1.524.632 3.29 3.378 4.605 2.987 1.483-.441 2.006-5.677 2.993-5.416z"/><linearGradient id="l" x1="-377.045" x2="-350.517" y1="576.104" y2="576.104" gradientTransform="matrix(-1 0 0 1 -236.632 0)" gradientUnits="userSpaceOnUse"><stop offset="0" stop-color="#771e24"/><stop offset="1" stop-color="#47090e"/></linearGradient><path fill="url(#l)" d="M113.885 574.982c.036.29.072.561.106.806a1.664 1.664 0 0 0 1.65 1.437h22.793c.593 0 1.14-.31 1.44-.823.212-.363.42-.843.54-1.42h-26.529z"/><path fill="#fdccc5" d="m137.144 559.772.344 8.64 5.921 3.202 2.685-5.99-.481-5.852z"/><linearGradient id="m" x1="-399.553" x2="-372.572" y1="570.115" y2="570.115" gradientTransform="matrix(-1 0 0 1 -236.632 0)" gradientUnits="userSpaceOnUse"><stop offset="0" stop-color="#78a7ff"/><stop offset="1" stop-color="#3d79f3"/></linearGradient><path fill="url(#m)" d="M145.904 563.014c2.838.748 5.312 5.873 7.682 6.897 2.186.945 8.13-.824 9.132 2.715.48 1.694.018 2.997-.437 3.777a1.663 1.663 0 0 1-1.44.822H138.05a1.664 1.664 0 0 1-1.651-1.437c-.472-3.422-1.301-11.676 1.907-10.345 1.524.632 3.29 3.378 4.605 2.987 1.483-.441 2.006-5.677 2.993-5.416z"/><linearGradient id="n" x1="-399.453" x2="-372.925" y1="576.104" y2="576.104" gradientTransform="matrix(-1 0 0 1 -236.632 0)" gradientUnits="userSpaceOnUse"><stop offset="0" stop-color="#771e24"/><stop offset="1" stop-color="#47090e"/></linearGradient><path fill="url(#n)" d="M136.293 574.982c.036.29.072.561.105.806a1.664 1.664 0 0 0 1.652 1.437h22.792c.593 0 1.14-.31 1.44-.823.211-.363.42-.843.54-1.42h-26.529z"/><linearGradient id="o" x1="-338.279" x2="-401.93" y1="465.335" y2="485.408" gradientTransform="matrix(-1 0 0 1 -236.632 0)" gradientUnits="userSpaceOnUse"><stop offset="0" stop-color="#771e24"/><stop offset="1" stop-color="#47090e"/></linearGradient><path fill="url(#o)" d="M113.512 561.066c6.296-87.771-7.327-133.493-.226-173.693h34.767l-23.036 173.693c0 2.048-11.505 2.048-11.505 0z"/><linearGradient id="p" x1="-360.076" x2="-423.98" y1="465.26" y2="485.412" gradientTransform="matrix(-1 0 0 1 -236.632 0)" gradientUnits="userSpaceOnUse"><stop offset="0" stop-color="#771e24"/><stop offset="1" stop-color="#47090e"/></linearGradient><path fill="url(#p)" d="M135.233 561.066c6.297-87.771-7.327-133.493-.226-173.693h34.767l-22.761 173.693c0 1.64-11.78 1.64-11.78 0z"/><path fill="#fdccc5" d="m132.004 292.838 1.44-29.061 26.726-3.49.835 9.042s2.673 4.287 2.712 5.461c.04 1.204-3.603.601-3.603.601s1.04 9.86-3.34 9.67c-4.767-.206-8.517-1.837-8.517-1.837l-1.142 12.24-15.111-2.626z"/><linearGradient id="q" x1="-342.959" x2="-414.386" y1="318.681" y2="379.647" gradientTransform="matrix(-1 0 0 1 -236.632 0)" gradientUnits="userSpaceOnUse"><stop offset="0" stop-color="#78a7ff"/><stop offset="1" stop-color="#3d79f3"/></linearGradient><path fill="url(#q)" d="M170.28 386.25c-5.463-20.066-11.422-31.772-9.517-79.28.583-14.521-25.17-13.022-34.699-8.063-3.37 1.753-8.947 3.546-9.464 12.444-1.107 19.063 6.146 44.028-3.84 74.668-2.373 7.291 60.842 12.427 57.52.232z"/><linearGradient id="r" x1="-375.61" x2="-377.401" y1="289.515" y2="301.228" gradientTransform="matrix(-1 0 0 1 -236.632 0)" gradientUnits="userSpaceOnUse"><stop offset="0" stop-color="#78a7ff"/><stop offset="1" stop-color="#3d79f3"/></linearGradient><path fill="url(#r)" d="M129.665 297.271c-.014.791 19.953-.656 19.96-1.454 0 0 1.073-4.035-.503-4.648-3.69-1.44-14.842-3.275-18.539-1.836-1.569.615-.918 7.938-.918 7.938z"/><linearGradient id="s" x1="579.787" x2="618.148" y1="259.506" y2="262.941" gradientTransform="matrix(-1 0 0 1 746.117 0)" gradientUnits="userSpaceOnUse"><stop offset="0" stop-color="#771e24"/><stop offset="1" stop-color="#47090e"/></linearGradient><path fill="url(#s)" d="M149.558 267.693c3.148-1.4 4.373-3 2.294-5.47 0 0 16.307 3.054 13.891-8.304-2.486-11.69-33.131-10.72-37.207-.53-3.382 8.455 4.23 24.078 4.23 24.078.235 1.701 12.895-.48 11.878-1.646 0 0-4.825-3.77-2.397-8.64 2.428-4.87 7.33 4.5 7.33 4.5l-.02-3.988z"/><path fill="#fdccc5" d="M148.536 268.652c1.719 2.587 1.821 5.658.236 6.861-1.584 1.203-4.264.087-5.983-2.5-1.72-2.587-1.826-5.665-.241-6.868s4.268-.08 5.988 2.507z"/><path fill="#f7b4ad" d="M148.257 283.224c-1.354-.437-2.832-1.536-4.342-2.807 1.017 2.076 2.376 3.728 4.149 4.873l.193-2.066z"/><linearGradient id="t" x1="1003.698" x2="1005.073" y1="-1285.319" y2="-1285.319" gradientTransform="scale(-1 1) rotate(10.317 -8181.168 -6949.548)" gradientUnits="userSpaceOnUse"><stop offset="0" stop-color="#771e24"/><stop offset="1" stop-color="#47090e"/></linearGradient><path fill="url(#t)" d="M157.85 268.268a.687.687 0 1 0 1.352-.246.687.687 0 0 0-1.353.246z"/><linearGradient id="u" x1="-693.424" x2="-688.58" y1="287.688" y2="287.688" gradientTransform="scale(-1 1) rotate(8.709 -278.577 3783.18)" gradientUnits="userSpaceOnUse"><stop offset="0" stop-color="#771e24"/><stop offset="1" stop-color="#47090e"/></linearGradient><path fill="url(#u)" d="M154.947 265.81c-.182.187-.361.434-.297.688.054.214.273.354.492.384.219.03.44-.027.653-.084l1.315-.35c.432-.116.87-.233 1.259-.453.39-.22.732-.558.862-.986.05-.166.066-.354-.015-.507-.286-.546-1.755-.118-2.185.02a5.078 5.078 0 0 0-2.084 1.288z"/><linearGradient id="v" x1="1827.332" x2="1865.896" y1="192.225" y2="214.208" gradientTransform="matrix(-1 0 0 1 2003.159 0)" gradientUnits="userSpaceOnUse"><stop offset="0" stop-color="#e7ecff"/><stop offset="1" stop-color="#c2d5ff"/></linearGradient><path fill="url(#v)" d="M132.447 199.873c0 12.25 9.935 22.193 22.193 22.193a22 22 0 0 0 7.248-1.217l7.327 4.9a.356.356 0 0 0 .553-.316l-.482-8.9a22.118 22.118 0 0 0 7.54-16.66c0-12.267-9.935-22.194-22.186-22.194-12.258 0-22.193 9.927-22.193 22.194z"/><linearGradient id="w" x1="138.597" x2="170.676" y1="199.551" y2="199.551" gradientUnits="userSpaceOnUse"><stop offset="0" stop-color="#a7c161"/><stop offset="1" stop-color="#8ba53a"/></linearGradient><path fill="url(#w)" d="M170.676 199.547c0 8.863-7.18 16.044-16.044 16.044-8.855 0-16.035-7.18-16.035-16.044 0-8.855 7.18-16.035 16.035-16.035 8.864 0 16.044 7.18 16.044 16.035z"/><path fill="#fff" d="M152.366 203.545a1.868 1.868 0 0 1-1.581-.875l-2.133-3.402a1.866 1.866 0 1 1 3.162-1.983l1.12 1.787 4.882-3.208a1.866 1.866 0 1 1 2.05 3.12l-6.475 4.254a1.863 1.863 0 0 1-1.025.307z"/><path fill="#adc8f7" d="M236.925 447.617a.5.5 0 0 1-.5-.5v-3.278c0-4.516 3.674-8.19 8.19-8.19h3.794a.5.5 0 1 1 0 1h-3.794c-3.965 0-7.19 3.226-7.19 7.19v3.278a.5.5 0 0 1-.5.5zM341.35 448.134a.5.5 0 0 1-.5-.5v-3.795c0-3.964-3.225-7.19-7.19-7.19h-3.278a.5.5 0 1 1 0-1h3.278c4.516 0 8.19 3.674 8.19 8.19v3.795a.5.5 0 0 1-.5.5zM333.66 489.013h-3.794a.5.5 0 1 1 0-1h3.794c3.965 0 7.19-3.226 7.19-7.19v-3.277a.5.5 0 1 1 1 0v3.277c0 4.516-3.674 8.19-8.19 8.19zM247.892 489.013h-3.278c-4.515 0-8.19-3.674-8.19-8.19v-3.794a.5.5 0 1 1 1 0v3.794c0 3.964 3.226 7.19 7.19 7.19h3.278a.5.5 0 1 1 0 1z"/><linearGradient id="x" x1="239.935" x2="338.34" y1="462.331" y2="462.331" gradientUnits="userSpaceOnUse"><stop offset="0" stop-color="#e7ecff"/><stop offset="1" stop-color="#c2d5ff"/></linearGradient><path fill="url(#x)" d="M338.34 443.839v36.985a4.68 4.68 0 0 1-4.68 4.68h-89.046a4.68 4.68 0 0 1-4.68-4.68v-36.985a4.68 4.68 0 0 1 4.68-4.68h89.046a4.68 4.68 0 0 1 4.68 4.68z"/><linearGradient id="y" x1="248.678" x2="284.613" y1="462.331" y2="462.331" gradientUnits="userSpaceOnUse"><stop offset="0" stop-color="#f88"/><stop offset="1" stop-color="#f24e4e"/></linearGradient><path fill="url(#y)" d="M284.613 462.326c0 9.932-8.046 17.978-17.968 17.978-9.921 0-17.967-8.046-17.967-17.978 0-9.921 8.046-17.967 17.967-17.967 9.922 0 17.968 8.046 17.968 17.967z"/><path fill="#fff" d="M263.533 460.103a.753.753 0 0 1-.753-.752 2.545 2.545 0 0 0-2.542-2.542 2.545 2.545 0 0 0-2.541 2.542.753.753 0 0 1-1.505 0 4.051 4.051 0 0 1 4.046-4.047 4.051 4.051 0 0 1 4.047 4.047.752.752 0 0 1-.752.752zM276.347 460.103a.753.753 0 0 1-.753-.752 2.545 2.545 0 0 0-2.54-2.542 2.545 2.545 0 0 0-2.543 2.542.753.753 0 0 1-1.505 0 4.051 4.051 0 0 1 4.047-4.047 4.051 4.051 0 0 1 4.046 4.047.752.752 0 0 1-.752.752zM262.288 466.921a.612.612 0 0 0-.597.71 5.01 5.01 0 0 0 9.909 0 .612.612 0 0 0-.597-.71h-8.715z"/><linearGradient id="z" x1="295.992" x2="329.596" y1="462.331" y2="462.331" gradientUnits="userSpaceOnUse"><stop offset="0" stop-color="#ffbb83"/><stop offset="1" stop-color="#ff9d45"/></linearGradient><path fill="url(#z)" d="M329.596 462.326c0 9.288-7.524 16.812-16.802 16.812s-16.802-7.524-16.802-16.812c0-9.278 7.524-16.802 16.802-16.802s16.802 7.524 16.802 16.802z"/><path fill="#fff" d="M312.784 474.75c-6 0-10.91-4.884-10.942-10.888a.938.938 0 0 1 .932-.944h.006c.516 0 .935.417.938.933.027 4.976 4.094 9.023 9.066 9.023 4.982 0 9.058-4.047 9.086-9.023a.938.938 0 0 1 .938-.933h.006a.938.938 0 0 1 .932.944c-.033 6.004-4.95 10.889-10.962 10.889zM309.202 456.928c0 2.054-1.154 3.724-2.57 3.724-1.427 0-2.571-1.67-2.571-3.724 0-2.055 1.144-3.725 2.57-3.725 1.417 0 2.57 1.67 2.57 3.725zM321.528 456.928c0 2.054-1.154 3.724-2.571 3.724-1.426 0-2.57-1.67-2.57-3.724 0-2.055 1.144-3.725 2.57-3.725 1.417 0 2.57 1.67 2.57 3.725z"/><path fill="#adc8f7" d="M502.797 368.363a.5.5 0 0 1-.5-.5v-7.451c0-6.565-5.342-11.906-11.908-11.906h-7.835a.5.5 0 1 1 0-1h7.835c7.117 0 12.908 5.79 12.908 12.906v7.451a.5.5 0 0 1-.5.5zM490.389 427.605h-7.835a.5.5 0 1 1 0-1h7.835c6.566 0 11.908-5.34 11.908-11.906v-7.451a.5.5 0 1 1 1 0v7.451c0 7.116-5.791 12.906-12.908 12.906zM355.889 427.605h-7.836c-7.117 0-12.908-5.79-12.908-12.906v-7.451a.5.5 0 1 1 1 0v7.451c0 6.566 5.342 11.906 11.908 11.906h7.836a.5.5 0 1 1 0 1zM335.645 368.363a.5.5 0 0 1-.5-.5v-7.451c0-7.116 5.79-12.906 12.908-12.906h7.836a.5.5 0 1 1 0 1h-7.836c-6.566 0-11.908 5.34-11.908 11.906v7.451a.5.5 0 0 1-.5.5z"/><linearGradient id="A" x1="419.221" x2="419.221" y1="435.179" y2="343.547" gradientUnits="userSpaceOnUse"><stop offset="0" stop-color="#e7ecff"/><stop offset="1" stop-color="#c2d5ff"/></linearGradient><path fill="url(#A)" d="M496.605 360.412V414.7a6.216 6.216 0 0 1-6.215 6.215H348.053a6.216 6.216 0 0 1-6.216-6.215v-54.287a6.216 6.216 0 0 1 6.216-6.215H490.39a6.216 6.216 0 0 1 6.215 6.215z"/><path fill="#fff" d="M396.584 368.55v38.008a2.697 2.697 0 0 1-2.697 2.697h-38.02a2.697 2.697 0 0 1-2.696-2.697V368.55a2.697 2.697 0 0 1 2.696-2.696h38.02a2.697 2.697 0 0 1 2.697 2.696z"/><linearGradient id="B" x1="362.092" x2="387.662" y1="390.511" y2="390.511" gradientUnits="userSpaceOnUse"><stop offset="0" stop-color="#ffbb83"/><stop offset="1" stop-color="#ff9d45"/></linearGradient><path fill="url(#B)" d="M385.827 398.624H364.71c-2.053 0-3.303-2.258-2.221-3.994l6.84-11c1.026-1.643 3.415-1.643 4.441 0l4.218 6.783 1.455-2.342c.719-1.157 2.408-1.157 3.126 0l4.815 7.744c.756 1.223-.121 2.809-1.558 2.809z"/><linearGradient id="C" x1="376.725" x2="382.639" y1="379.441" y2="379.441" gradientUnits="userSpaceOnUse"><stop offset="0" stop-color="#ffbb83"/><stop offset="1" stop-color="#ff9d45"/></linearGradient><path fill="url(#C)" d="M382.64 379.444a2.952 2.952 0 0 1-2.955 2.954 2.954 2.954 0 0 1-2.96-2.954 2.955 2.955 0 0 1 2.96-2.96 2.954 2.954 0 0 1 2.954 2.96z"/><path fill="#fff" d="M445.628 370.98v8.44c0 .8-.647 1.448-1.447 1.448h-37.095c-.799 0-1.447-.648-1.447-1.447v-8.442c0-.8.648-1.447 1.447-1.447h37.095c.8 0 1.447.648 1.447 1.447zM466.272 387.834c0 .962-.78 1.742-1.742 1.742h-57.148a1.743 1.743 0 1 1 0-3.485h57.148c.962 0 1.742.78 1.742 1.743zM479.53 395.833c0 .963-.78 1.743-1.743 1.743h-70.405a1.743 1.743 0 1 1 0-3.485h70.405c.963 0 1.743.78 1.743 1.742zM438.583 403.833c0 .963-.78 1.743-1.742 1.743h-29.46a1.743 1.743 0 0 1 0-3.485h29.46c.962 0 1.742.78 1.742 1.742z"/><linearGradient id="D" x1="304.566" x2="434.924" y1="225.98" y2="225.98" gradientUnits="userSpaceOnUse"><stop offset="0" stop-color="#e7ecff"/><stop offset="1" stop-color="#c2d5ff"/></linearGradient><path fill="url(#D)" d="M434.924 225.98a7.782 7.782 0 0 1-7.782 7.782H312.348a7.782 7.782 0 1 1 0-15.564h114.794a7.782 7.782 0 0 1 7.782 7.782z"/><linearGradient id="E" x1="304.566" x2="434.924" y1="225.98" y2="225.98" gradientUnits="userSpaceOnUse"><stop offset="0" stop-color="#78a7ff"/><stop offset="1" stop-color="#3d79f3"/></linearGradient><path fill="url(#E)" d="M416.905 218.198v15.564h10.237a7.782 7.782 0 1 0 0-15.564h-10.237z"/><path fill="#fff" d="M424.902 229.153c-.973 0-1.946-.37-2.686-1.11-.72-.72-1.117-1.677-1.117-2.694s.396-1.976 1.117-2.696a3.81 3.81 0 0 1 5.384.006c.717.718 1.112 1.673 1.112 2.69s-.395 1.971-1.112 2.688a3.803 3.803 0 0 1-2.698 1.116zm0-6.111a2.29 2.29 0 0 0-1.626.672c-.436.436-.677 1.017-.677 1.635s.24 1.197.677 1.633a2.31 2.31 0 0 0 3.263-.006c.435-.433.673-1.011.673-1.627s-.24-1.195-.673-1.63a2.31 2.31 0 0 0-1.637-.677z"/><path fill="#fff" d="M429.23 230.418a.747.747 0 0 1-.53-.22l-2.16-2.161a.75.75 0 1 1 1.06-1.06l2.16 2.16a.75.75 0 0 1-.53 1.28zM327.894 260.914v73.176c0 2.7-2.188 4.888-4.888 4.888h-97.48a4.888 4.888 0 0 1-4.887-4.888v-73.176c0-2.7 2.188-4.888 4.888-4.888h97.48c2.699 0 4.887 2.189 4.887 4.888z"/><linearGradient id="F" x1="252.787" x2="295.746" y1="297.502" y2="297.502" gradientUnits="userSpaceOnUse"><stop offset="0" stop-color="#e7ecff"/><stop offset="1" stop-color="#c2d5ff"/></linearGradient><circle cx="274.267" cy="297.502" r="21.48" fill="url(#F)"/><linearGradient id="G" x1="269.29" x2="282.429" y1="297.502" y2="297.502" gradientUnits="userSpaceOnUse"><stop offset="0" stop-color="#f88"/><stop offset="1" stop-color="#f24e4e"/></linearGradient><path fill="url(#G)" d="m281.409 299.569-7.93 6.079c-1.714 1.313-4.189.092-4.189-2.067v-12.158c0-2.158 2.475-3.38 4.188-2.066l7.931 6.079a2.604 2.604 0 0 1 0 4.133z"/><path fill="#fff" d="M269.459 356.32v32.272a4.196 4.196 0 0 1-4.196 4.196h-40.428a4.196 4.196 0 0 1-4.196-4.196V356.32a4.196 4.196 0 0 1 4.196-4.196h40.428a4.196 4.196 0 0 1 4.196 4.196z"/><linearGradient id="H" x1="229.085" x2="239.176" y1="373.162" y2="373.162" gradientUnits="userSpaceOnUse"><stop offset="0" stop-color="#f88"/><stop offset="1" stop-color="#f24e4e"/></linearGradient><path fill="url(#H)" d="m229.74 372.301 8.156-4.078c.282-.109.484-.163.606-.163.186 0 .35.06.49.182a.617.617 0 0 1 .184.471c0 .36-.212.63-.635.809l-7.388 3.626 7.503 3.742c.321.135.482.378.482.731 0 .18-.061.33-.184.452-.109.128-.272.192-.49.192-.065 0-.24-.05-.53-.153l-8.32-4.118c-.314-.185-.49-.442-.529-.77.038-.403.257-.71.654-.923z"/><linearGradient id="I" x1="240.379" x2="247.65" y1="371.123" y2="371.123" gradientUnits="userSpaceOnUse"><stop offset="0" stop-color="#f88"/><stop offset="1" stop-color="#f24e4e"/></linearGradient><path fill="url(#I)" d="m240.474 377.063 5.599-12.486a.706.706 0 0 1 .336-.432.81.81 0 0 1 .472-.164.78.78 0 0 1 .529.202c.16.141.24.317.24.53 0 .127-.028.259-.086.393l-5.57 12.553c-.16.404-.443.606-.846.606a.724.724 0 0 1-.52-.192.902.902 0 0 1-.25-.529c.02-.077.039-.157.058-.24.013-.064.021-.113.024-.145.003-.032.008-.064.014-.096z"/><linearGradient id="J" x1="248.824" x2="258.953" y1="373.162" y2="373.162" gradientUnits="userSpaceOnUse"><stop offset="0" stop-color="#f88"/><stop offset="1" stop-color="#f24e4e"/></linearGradient><path fill="url(#J)" d="M258.318 372.301c.423.219.635.527.635.924 0 .295-.187.552-.559.77l-8.272 4.117c-.27.102-.458.153-.567.153a.541.541 0 0 1-.433-.192.677.677 0 0 1-.222-.452c.059-.391.222-.635.492-.731l7.512-3.742-7.388-3.626c-.423-.205-.654-.481-.692-.828 0-.166.07-.31.211-.433a.725.725 0 0 1 .52-.201c.166 0 .369.054.606.163l8.157 4.078z"/><linearGradient id="K" x1="290.28" x2="315.85" y1="373.953" y2="373.953" gradientUnits="userSpaceOnUse"><stop offset="0" stop-color="#b3b3ff"/><stop offset="1" stop-color="#8f8fea"/></linearGradient><path fill="url(#K)" d="M314.015 382.066h-21.116c-2.053 0-3.303-2.258-2.221-3.993l6.84-11.002c1.026-1.642 3.415-1.642 4.441 0l4.218 6.784 1.455-2.342c.719-1.157 2.408-1.157 3.126 0l4.815 7.745c.756 1.222-.121 2.808-1.558 2.808z"/><linearGradient id="L" x1="304.913" x2="310.827" y1="362.883" y2="362.883" gradientUnits="userSpaceOnUse"><stop offset="0" stop-color="#b3b3ff"/><stop offset="1" stop-color="#8f8fea"/></linearGradient><path fill="url(#L)" d="M310.827 362.886a2.952 2.952 0 0 1-2.954 2.954 2.954 2.954 0 0 1-2.96-2.954 2.955 2.955 0 0 1 2.96-2.96 2.954 2.954 0 0 1 2.954 2.96z"/><path fill="#fff" d="M444.765 276.021a8.281 8.281 0 0 1-8.282 8.282h-88.05a8.281 8.281 0 1 1 0-16.562h88.05a8.281 8.281 0 0 1 8.282 8.28zM381.323 296.672a3.146 3.146 0 0 0 3.146 3.146h57.15a3.146 3.146 0 0 0 0-6.292h-57.15a3.146 3.146 0 0 0-3.146 3.146zM364.336 293.526h-21.038a3.146 3.146 0 0 0 0 6.292h21.038a3.146 3.146 0 0 0 0-6.292zM397.617 306.19h-54.32a3.146 3.146 0 1 0 0 6.292h54.32a3.146 3.146 0 0 0 0-6.292zM422.535 309.336a3.146 3.146 0 0 0 3.146 3.146h15.938a3.146 3.146 0 0 0 0-6.292H425.68a3.146 3.146 0 0 0-3.146 3.146zM405.428 322a3.146 3.146 0 0 1-3.146 3.146h-58.984a3.146 3.146 0 0 1 0-6.292h58.984a3.146 3.146 0 0 1 3.146 3.146z"/><linearGradient id="M" x1="1679.467" x2="1692.854" y1="261.812" y2="261.812" gradientTransform="matrix(-1 0 0 1 2234.881 0)" gradientUnits="userSpaceOnUse"><stop offset="0" stop-color="#771e24"/><stop offset="1" stop-color="#47090e"/></linearGradient><path fill="url(#M)" d="M542.027 261.812a6.69 6.69 0 0 0 6.69 6.69 6.692 6.692 0 0 0 6.697-6.69 6.694 6.694 0 0 0-13.387 0z"/><path fill="#fdccc5" d="M489.597 319.294s-3.583-5.925-5.738-4.354c-1.234.898 1.03 3.83 1.03 3.83s-3.256-1.508-5.946-1.924c-4.93-.763-5.68 10.917 8.368 9.714l2.286-7.266z"/><linearGradient id="N" x1="538.146" x2="476.809" y1="298.255" y2="364.972" gradientUnits="userSpaceOnUse"><stop offset="0" stop-color="#ffbb83"/><stop offset="1" stop-color="#ff9d45"/></linearGradient><path fill="url(#N)" d="M559.822 300.754c-.345 7.549-22.31 33.537-34.529 36.319-9.608 2.2-38.162-9.77-38.162-9.77-1.014-.334 1.865-8.875 2.868-8.53 0 0 25.007 7.915 32.652 4.227 7.484-3.602 12.79-21.405 21.503-25.34 6.394-2.891 15.862-.874 15.668 3.094z"/><ellipse cx="555.546" cy="576.438" fill="#e7ecff" rx="50.454" ry="3.551"/><path fill="#fdccc5" d="m548.4 558.31-2.02 9.956h12.482v-9.956z"/><linearGradient id="O" x1="1629.863" x2="1819.439" y1="408.875" y2="615.597" gradientTransform="matrix(-1 0 0 1 2234.881 0)" gradientUnits="userSpaceOnUse"><stop offset="0" stop-color="#771e24"/><stop offset="1" stop-color="#47090e"/></linearGradient><path fill="url(#O)" d="m541.323 377.704 5.176 180.23c0 1.316 14.03 1.316 14.03 0l16.724-180.23h-35.93z"/><linearGradient id="P" x1="1245.815" x2="1282.514" y1="568.857" y2="568.857" gradientTransform="matrix(-1 0 0 1 1808.638 0)" gradientUnits="userSpaceOnUse"><stop offset="0" stop-color="#78a7ff"/><stop offset="1" stop-color="#3d79f3"/></linearGradient><path fill="url(#P)" d="M526.13 573.382v.033a3.096 3.096 0 0 0 1.864 3.017c2.314 1.006 6.771 2.323 12.635 1.178 8.766-1.725 16.952-.728 20.199-.409 1.145.115 1.766-1.52 1.946-3.754.008-.098.017-.196.017-.294.22-3.598-.696-8.521-2.495-10.173a2.784 2.784 0 0 0-.351-.278 1.735 1.735 0 0 0-.466-.22c-2.421-.737-7.033 5.282-9.904 2.093-.319-.344-.22-1.006-.073-1.791.065-.352.139-.736.196-1.12.052-.375-.044-.765-.207-1.129-.42-.94-1.66-1.16-2.425-.473a72.623 72.623 0 0 1-2.651 2.256c-.213.171-.417.376-.63.58-.147.131-.294.27-.45.41a18.75 18.75 0 0 1-1.627 1.381c-.229.18-.458.344-.679.507a21.534 21.534 0 0 1-2.486 1.472c-5.013 2.47-9.412 1.873-10.974 3.312-.99.9-1.333 2.216-1.431 3.345-.009.016-.009.04-.009.057z"/><path fill="#070159" d="M527.99 576.435c2.315 1 6.776 2.316 12.635 1.173 8.77-1.726 16.954-.727 20.206-.403 1.14.11 1.766-1.529 1.943-3.755.007-.098.014-.196.014-.299-5.25-2.28-13.308-1.883-19.643.989-6.934 3.14-14.843 1.413-16.996-.758-.006-.005-.012-.004-.017.003s.001.005.001.005a3.086 3.086 0 0 0 1.857 3.044zM549.273 564.084c.065.744.425 1.472 1.038 1.905.434.303.973.442 1.505.466.54.025 1.071-.065 1.586-.188.655-.147 1.3-.343 1.922-.588a14.154 14.154 0 0 0 3.157-1.742c.482-.36.94-.744 1.374-1.162.024-.024.057-.048.09-.073a1.735 1.735 0 0 0-.466-.22c-2.421-.737-7.033 5.282-9.904 2.093-.319-.344-.22-1.006-.073-1.791-.213.392-.27.85-.23 1.3z"/><path fill="#fdccc5" d="m569.388 558.409-1.467 10.052 12.463-.691-.55-9.94z"/><linearGradient id="Q" x1="1682.63" x2="1615.361" y1="380.055" y2="605.488" gradientTransform="matrix(-1 0 0 1 2234.881 0)" gradientUnits="userSpaceOnUse"><stop offset="0" stop-color="#771e24"/><stop offset="1" stop-color="#47090e"/></linearGradient><path fill="url(#Q)" d="m553.596 377.704 13.878 180.435c.065 1.316 14.073.54 14.008-.776l7.99-179.659h-35.876z"/><linearGradient id="R" x1="1465.677" x2="1502.375" y1="378.308" y2="378.308" gradientTransform="scale(-1 1) rotate(3.173 -2986.435 -36536.646)" gradientUnits="userSpaceOnUse"><stop offset="0" stop-color="#78a7ff"/><stop offset="1" stop-color="#3d79f3"/></linearGradient><path fill="url(#R)" d="M547.986 574.69v.008l.001.025a3.095 3.095 0 0 0 2.03 2.91c2.366.876 6.888 1.944 12.68.476 8.657-2.208 16.886-1.665 20.145-1.526 1.15.05 1.68-1.617 1.736-3.856a3.542 3.542 0 0 0 0-.295c.021-3.605-1.166-8.47-3.054-10.02-.12-.1-.24-.183-.366-.257a1.737 1.737 0 0 0-.478-.195c-2.458-.6-6.73 5.664-9.772 2.638-.338-.325-.276-.992-.173-1.784.046-.355.098-.742.134-1.13.032-.376-.086-.76-.269-1.114-.471-.915-1.722-1.067-2.448-.338a72.757 72.757 0 0 1-2.521 2.398c-.203.184-.396.399-.597.615-.14.139-.279.286-.426.433a18.749 18.749 0 0 1-1.549 1.47c-.218.192-.438.368-.65.544a21.498 21.498 0 0 1-2.4 1.607c-4.869 2.744-9.295 2.391-10.775 3.915-.938.953-1.208 2.286-1.243 3.418a.139.139 0 0 0-.005.058z"/><path fill="#070159" d="M550.012 577.635c2.367.87 6.894 1.938 12.681.472 8.66-2.209 16.887-1.664 20.152-1.52 1.144.046 1.679-1.625 1.733-3.858.001-.098.003-.196-.002-.298-5.369-1.987-13.393-1.144-19.559 2.074-6.75 3.519-14.742 2.232-17.012.184-.007-.004-.012-.003-.016.003-.005.007 0 .006 0 .006a3.086 3.086 0 0 0 2.023 2.937zM570.579 564.125c.106.74.506 1.446 1.142 1.845.45.278.996.387 1.528.382.54-.005 1.066-.124 1.574-.275.645-.184 1.28-.415 1.886-.695a14.15 14.15 0 0 0 3.056-1.913c.461-.386.897-.795 1.307-1.236a.888.888 0 0 1 .086-.078 1.737 1.737 0 0 0-.478-.195c-2.458-.6-6.73 5.664-9.772 2.638-.338-.325-.276-.992-.173-1.784-.19.404-.222.864-.156 1.311z"/><linearGradient id="S" x1="564.284" x2="564.917" y1="325.956" y2="398.678" gradientUnits="userSpaceOnUse"><stop offset="0" stop-color="#ffbb83"/><stop offset="1" stop-color="#ff9d45"/></linearGradient><path fill="url(#S)" d="M589.638 378.697c-2.825 4.939-48.396 5.176-48.762 0 3.062-31.078-6.018-67.44 1.498-78.86 5.791-8.788 42.584-9.974 44.46-1.229 3.247 15.14-2.663 35.52 2.804 80.089z"/><path fill="#fdccc5" d="M570.026 275.108v24.295H556.13c.008-1.625.04-13.092.04-13.092-3.044 1.148-6.637 1.474-7.793.701-.709-.478-1.107-2.318-1.33-4.08l-.096-.804c-.152-1.546-.175-2.845-.175-2.845-5.691.373-.356-4.912-.356-4.912l1.144-14.873 12.654.055c7.626 2.59 9.81 15.555 9.81 15.555z"/><path fill="#fff" d="m568.935 327.134-6.102 8.377-6.111-8.377c-.753-8.268 2.176-18.713 6.111-29.753.638 11.389 2.016 21.997 6.102 29.753z"/><path fill="#fff" d="M570.03 292.585s2.369-.594 3.038.232c1.779 2.195-1.334 9.658-4.01 10.569-1.818.618-6.54-4.033-6.54-4.033l7.512-6.768zM556.148 292.539s-1.936-.5-2.66.278c-1.852 1.985-.018 9.528 2.489 10.569 1.774.736 6.54-4.033 6.54-4.033l-6.369-6.814z"/><linearGradient id="T" x1="-3943.768" x2="-3896.397" y1="345.275" y2="345.275" gradientTransform="matrix(1 0 .3423 1 4341.888 0)" gradientUnits="userSpaceOnUse"><stop offset="0" stop-color="#78a7ff"/><stop offset="1" stop-color="#3d79f3"/></linearGradient><path fill="url(#T)" d="m558.538 330.38 9.638 28.03a2.717 2.717 0 0 1-2.57 3.596H524.02a2.717 2.717 0 0 1-2.57-1.837l-9.638-28.03a2.717 2.717 0 0 1 2.57-3.596h41.586c1.161 0 2.194.738 2.57 1.837z"/><linearGradient id="U" x1="-3062.774" x2="-3055.698" y1="422.469" y2="422.469" gradientTransform="matrix(1 0 .2169 .98927 3504.46 -72.365)" gradientUnits="userSpaceOnUse"><stop offset="0" stop-color="#e7ecff"/><stop offset="1" stop-color="#c2d5ff"/></linearGradient><path fill="url(#U)" d="M540.395 345.572c.423 1.93-.819 3.5-2.77 3.5-1.956 0-3.883-1.57-4.306-3.5-.424-1.935.815-3.5 2.77-3.5 1.952 0 3.882 1.565 4.306 3.5z"/><linearGradient id="V" x1="67.224" x2="82.154" y1="345.277" y2="345.277" gradientTransform="matrix(-1 0 0 1 638.12 0)" gradientUnits="userSpaceOnUse"><stop offset="0" stop-color="#78a7ff"/><stop offset="1" stop-color="#3d79f3"/></linearGradient><path fill="url(#V)" d="M555.966 328.545c1.165 0 2.197.737 2.572 1.835l9.637 28.03a2.717 2.717 0 0 1-2.572 3.598h2.572a2.717 2.717 0 0 0 2.572-3.598l-9.637-28.03a2.714 2.714 0 0 0-2.572-1.835h-2.572z"/><linearGradient id="W" x1="1660.048" x2="1695.129" y1="261.404" y2="261.404" gradientTransform="matrix(-1 0 0 1 2234.881 0)" gradientUnits="userSpaceOnUse"><stop offset="0" stop-color="#771e24"/><stop offset="1" stop-color="#47090e"/></linearGradient><path fill="url(#W)" d="M539.752 255.725c0 5.65 4.287 9.397 7.365 10.48 2.17.763 11.676 2.69 15.85-.59.061-.049.158 0 .231-.007.061.067.122.134.177.213.949 1.186 1.806 3.382 1.222 7.384-.048.316-.103.65-.17.997l5.6 3.485c4.365-4.212 10.67-24.997-6.664-21.999-4.241.734-2.245-9.53-10.151-10.467-7.895-.93-13.46 4.86-13.46 10.504z"/><path fill="#fdccc5" d="M570.49 276.479c-1.284 2.006-3.525 2.868-4.998 1.925-1.48-.946-1.631-3.339-.348-5.345 1.288-2.012 3.523-2.877 5.002-1.931 1.474.943 1.631 3.339.343 5.351z"/><linearGradient id="X" x1="-3807.943" x2="-3803.057" y1="17.734" y2="17.734" gradientTransform="rotate(-5.708 897.929 -43540.248)" gradientUnits="userSpaceOnUse"><stop offset="0" stop-color="#771e24"/><stop offset="1" stop-color="#47090e"/></linearGradient><path fill="url(#X)" d="M552.405 269.544c.114.063.228.133.309.234.081.102.124.244.077.365-.079.206-.347.249-.567.252a9.83 9.83 0 0 1-3.835-.724 1.215 1.215 0 0 1-.38-.216c-.71-.662.71-.795 1.078-.79.716.01 1.446.131 2.126.354.413.136.813.311 1.192.525z"/><path fill="#f7b4ad" d="M562.034 284.056c-.144.183-2.55 3.068-5.873 4.542.008-1.363.008-2.287.008-2.287s3.347-.94 5.865-2.255zM550.982 281.092a4.3 4.3 0 0 1-2.79 1.793 4.247 4.247 0 0 1-.78.072c-.12 0-.247-.008-.366-.024l-.096-.805c.358.048.733.04 1.1-.032a3.502 3.502 0 0 0 2.278-1.458.406.406 0 0 1 .558-.104.397.397 0 0 1 .096.558z"/><path fill="#fdccc5" d="M569.85 343.5c-1.078-.805-2.853-1.069-4.646-1.319l.812 2.362s-2.12-.05-4.051.467c-3.54.947-.585 9.02 8.5 4.051l-.614-5.56z"/><linearGradient id="Y" x1="598.619" x2="567.212" y1="306.648" y2="347.491" gradientUnits="userSpaceOnUse"><stop offset="0" stop-color="#ffbb83"/><stop offset="1" stop-color="#ff9d45"/></linearGradient><path fill="url(#Y)" d="M601.042 340.54c-3.632 7.497-30.96 9.119-30.96 9.119-.777 0-.777-6.415 0-6.415 0 0 18.186-2.28 19.986-8.28 2.771-9.235-18.768-26.089-14.833-34.797 2.175-4.812 9.102-5.99 11.19-2.595 4.138 6.732 19.598 32.69 14.617 42.968z"/><linearGradient id="Z" x1="548.616" x2="550.311" y1="271.913" y2="271.913" gradientUnits="userSpaceOnUse"><stop offset="0" stop-color="#771e24"/><stop offset="1" stop-color="#47090e"/></linearGradient><path fill="url(#Z)" d="M550.311 271.916a.844.844 0 0 1-.844.845.847.847 0 1 1 .844-.844z"/><linearGradient id="aa" x1="4889.592" x2="4898.867" y1="737.711" y2="776.969" gradientTransform="rotate(45 3055.55 -5064.375)" gradientUnits="userSpaceOnUse"><stop offset="0" stop-color="#e7ecff"/><stop offset="1" stop-color="#c2d5ff"/></linearGradient><path fill="url(#aa)" d="M254.303 366.492c-8.363 8.363-22.05 8.165-30.16-.603-7.268-7.856-7.375-20.147-.234-28.119 4.987-5.567 12.174-7.805 18.936-6.72.982.157 1.382 1.348.68 2.051l-6.102 6.102c-.22.219-.346.515-.353.825l-.32 13.198a1.208 1.208 0 0 0 1.238 1.237l13.198-.319c.31-.007.606-.134.825-.353l6.102-6.102c.69-.69 1.889-.32 2.045.644 1.04 6.413-.91 13.213-5.855 18.159z"/><linearGradient id="ab" x1="4889.592" x2="4898.867" y1="737.711" y2="776.969" gradientTransform="rotate(45 3055.55 -5064.375)" gradientUnits="userSpaceOnUse"><stop offset="0" stop-color="#e7ecff"/><stop offset="1" stop-color="#c2d5ff"/></linearGradient><path fill="url(#ab)" d="M254.303 366.492c-8.363 8.363-22.05 8.165-30.16-.603-7.268-7.856-7.375-20.147-.234-28.119 4.987-5.567 12.174-7.805 18.936-6.72.982.157 1.382 1.348.68 2.051l-6.102 6.102c-.22.219-.346.515-.353.825l-.32 13.198a1.208 1.208 0 0 0 1.238 1.237l13.198-.319c.31-.007.606-.134.825-.353l6.102-6.102c.69-.69 1.889-.32 2.045.644 1.04 6.413-.91 13.213-5.855 18.159z"/><linearGradient id="ac" x1="4886.926" x2="4902.488" y1="775.263" y2="841.131" gradientTransform="rotate(45 3055.55 -5064.375)" gradientUnits="userSpaceOnUse"><stop offset="0" stop-color="#e7ecff"/><stop offset="1" stop-color="#c2d5ff"/></linearGradient><path fill="url(#ac)" d="m232.182 371.3-41.407 41.406a8.673 8.673 0 0 1-12.267 0 8.647 8.647 0 0 1-2.542-6.13 8.65 8.65 0 0 1 2.542-6.137l41.422-41.422a20.634 20.634 0 0 0 4.214 6.871 20.879 20.879 0 0 0 8.038 5.411z"/><linearGradient id="ad" x1="4891.428" x2="4896.683" y1="794.647" y2="816.89" gradientTransform="rotate(45 3055.55 -5064.375)" gradientUnits="userSpaceOnUse"><stop offset="0" stop-color="#e7ecff"/><stop offset="1" stop-color="#c2d5ff"/></linearGradient><path fill="url(#ad)" d="m212.966 384.647-10.03 10.03a4.524 4.524 0 1 1-6.398-6.398l10.03-10.03a4.524 4.524 0 0 1 6.398 6.398z"/><path fill="#fdccc5" d="M197.034 375.3c1.93-1.171 7.064-1.207 7.175-.562l-2.461 2.432s7.48-.426 6.351 4.877c-1.131 5.313-5.51 10.416-14.423.582l3.358-7.33z"/><linearGradient id="ae" x1="-3020.497" x2="-3094.735" y1="3030.382" y2="3125.578" gradientTransform="matrix(-.98958 -.14397 -.4154 1.09974 -1460.956 -3075.152)" gradientUnits="userSpaceOnUse"><stop offset="0" stop-color="#78a7ff"/><stop offset="1" stop-color="#3d79f3"/></linearGradient><path fill="url(#ae)" d="M153.076 297.514c3.577-.287 6.299 3.97 7.532 6.542 5.405 11.265-1 39.465 5.52 50.122 5.036 8.229 32.12 20.136 32.12 20.136 1.858.899-2.772 10.47-4.631 9.57 0 0-34.325-11.424-41.632-20.242-7.229-8.724-10.382-33.485-8.237-44.61 1.18-6.116 4.587-21.137 9.328-21.518z"/></svg>