<svg id="visual" viewBox="0 0 1600 720" width="1600" height="720" xmlns="http://www.w3.org/2000/svg" xmlns:xlink="http://www.w3.org/1999/xlink" version="1.1"><path d="M0 260L70 260L70 325L139 325L139 224L209 224L209 246L278 246L278 224L348 224L348 267L417 267L417 318L487 318L487 303L557 303L557 239L626 239L626 253L696 253L696 296L765 296L765 217L835 217L835 224L904 224L904 318L974 318L974 282L1043 282L1043 296L1113 296L1113 231L1183 231L1183 239L1252 239L1252 267L1322 267L1322 296L1391 296L1391 260L1461 260L1461 332L1530 332L1530 260L1600 260L1600 275L1600 0L1600 0L1530 0L1530 0L1461 0L1461 0L1391 0L1391 0L1322 0L1322 0L1252 0L1252 0L1183 0L1183 0L1113 0L1113 0L1043 0L1043 0L974 0L974 0L904 0L904 0L835 0L835 0L765 0L765 0L696 0L696 0L626 0L626 0L557 0L557 0L487 0L487 0L417 0L417 0L348 0L348 0L278 0L278 0L209 0L209 0L139 0L139 0L70 0L70 0L0 0Z" fill="#f0f8ff"></path><path d="M0 534L70 534L70 498L139 498L139 534L209 534L209 563L278 563L278 584L348 584L348 577L417 577L417 534L487 534L487 541L557 541L557 505L626 505L626 563L696 563L696 584L765 584L765 527L835 527L835 555L904 555L904 563L974 563L974 512L1043 512L1043 519L1113 519L1113 584L1183 584L1183 548L1252 548L1252 577L1322 577L1322 577L1391 577L1391 498L1461 498L1461 512L1530 512L1530 584L1600 584L1600 534L1600 273L1600 258L1530 258L1530 330L1461 330L1461 258L1391 258L1391 294L1322 294L1322 265L1252 265L1252 237L1183 237L1183 229L1113 229L1113 294L1043 294L1043 280L974 280L974 316L904 316L904 222L835 222L835 215L765 215L765 294L696 294L696 251L626 251L626 237L557 237L557 301L487 301L487 316L417 316L417 265L348 265L348 222L278 222L278 244L209 244L209 222L139 222L139 323L70 323L70 258L0 258Z" fill="#e8f4ff"></path><path d="M0 721L70 721L70 721L139 721L139 721L209 721L209 721L278 721L278 721L348 721L348 721L417 721L417 721L487 721L487 721L557 721L557 721L626 721L626 721L696 721L696 721L765 721L765 721L835 721L835 721L904 721L904 721L974 721L974 721L1043 721L1043 721L1113 721L1113 721L1183 721L1183 721L1252 721L1252 721L1322 721L1322 721L1391 721L1391 721L1461 721L1461 721L1530 721L1530 721L1600 721L1600 721L1600 532L1600 582L1530 582L1530 510L1461 510L1461 496L1391 496L1391 575L1322 575L1322 575L1252 575L1252 546L1183 546L1183 582L1113 582L1113 517L1043 517L1043 510L974 510L974 561L904 561L904 553L835 553L835 525L765 525L765 582L696 582L696 561L626 561L626 503L557 503L557 539L487 539L487 532L417 532L417 575L348 575L348 582L278 582L278 561L209 561L209 532L139 532L139 496L70 496L70 532L0 532Z" fill="#c9e5ff"></path></svg>